<?xml version="1.0" encoding="UTF-8"?>
<svg version="1.1" xmlns="http://www.w3.org/2000/svg" width="613" height="262">
<path d="M0 0 C202.29 0 404.58 0 613 0 C613 86.46 613 172.92 613 262 C410.71 262 208.42 262 0 262 C0 175.54 0 89.08 0 0 Z " fill="#020B3E" transform="translate(0,0)"/>
<path d="M0 0 C0.97988892 -0.00004028 1.95977783 -0.00008057 2.96936035 -0.00012207 C5.03709339 0.00522942 7.10482616 0.0227962 9.17236328 0.05175781 C12.33299075 0.09360754 15.49148593 0.09282497 18.65234375 0.0859375 C20.66407727 0.09643071 22.67579983 0.10936952 24.6875 0.125 C25.63032837 0.12520142 26.57315674 0.12540283 27.54455566 0.12561035 C32.42077201 0.21334005 35.92386292 0.34902078 39.84375 3.59375 C42.27218172 8.45061345 41.15632287 15.87704175 41.19384766 21.27807617 C41.21039961 23.02495656 41.23767995 24.77176943 41.27587891 26.51831055 C41.33073252 29.03990726 41.35253326 31.55991775 41.3671875 34.08203125 C41.38985687 34.85928055 41.41252625 35.63652985 41.43588257 36.43733215 C41.42102457 40.2635297 40.97850354 42.39324509 38.82983398 45.59033203 C35.03074695 48.13920851 31.96418423 48.2562307 27.54296875 48.16015625 C26.35016045 48.16860817 26.35016045 48.16860817 25.133255 48.17723083 C22.59864971 48.19364384 20.06579358 48.17818888 17.53125 48.15625 C15.00757696 48.13958173 12.48507272 48.13067749 9.96138 48.14598083 C8.39528486 48.15516044 6.82894031 48.14643605 5.2631073 48.11634827 C-1.4950162 48.14976593 -6.68563342 50.27925453 -11.62890625 54.91015625 C-13.56576425 58.31328016 -13.65725905 60.63179457 -13.59375 64.53125 C-13.59246094 65.71589844 -13.59117187 66.90054688 -13.58984375 68.12109375 C-13.01358273 72.73637347 -11.64189588 76.20395224 -8.21875 79.40625 C-4.33979783 81.6395861 -0.67437752 81.72978173 3.74609375 81.8046875 C4.88369141 81.83304687 6.02128906 81.86140625 7.19335938 81.890625 C9.58122452 81.94261989 11.96926993 81.98691743 14.35742188 82.0234375 C15.49630859 82.054375 16.63519531 82.0853125 17.80859375 82.1171875 C18.8462085 82.13700684 19.88382324 82.15682617 20.95288086 82.17724609 C24.27545775 82.65594858 26.1538718 83.61001231 28.84375 85.59375 C31.29996359 89.27807039 31.14982273 92.10330836 31.14453125 96.3671875 C31.14881638 97.12794586 31.1531015 97.88870422 31.15751648 98.67251587 C31.16325647 100.28134161 31.16376246 101.89019331 31.15942383 103.49902344 C31.15627033 105.95292833 31.17970294 108.40561973 31.20507812 110.859375 C31.20735191 112.42447765 31.20805425 113.98958353 31.20703125 115.5546875 C31.216241 116.28505219 31.22545074 117.01541687 31.23493958 117.76791382 C31.1948481 122.21336841 30.67454086 125.11517816 27.84375 128.59375 C24.4111599 131.16685495 20.53788625 130.91628588 16.41015625 130.9296875 C15.69520493 130.9363443 14.9802536 130.9430011 14.24363708 130.94985962 C12.73496057 130.9599617 11.2262396 130.9646774 9.7175293 130.96435547 C7.4170533 130.96872946 5.1184963 131.00507198 2.81835938 131.04296875 C1.34896486 131.04883747 -0.12043872 131.0528065 -1.58984375 131.0546875 C-2.27332382 131.06905853 -2.95680389 131.08342957 -3.66099548 131.09823608 C-8.42411911 131.05296438 -10.80949598 129.95106161 -14.15625 126.59375 C-15.45064818 124.00495365 -15.29934465 122.07219054 -15.33203125 119.17578125 C-15.35587891 118.08587891 -15.37972656 116.99597656 -15.40429688 115.87304688 C-15.44689911 113.58156314 -15.47834663 111.28984193 -15.49804688 108.99804688 C-15.66497117 102.39483231 -15.85147365 97.76085039 -20.15625 92.59375 C-27.16735515 88.0497733 -33.35150863 87.99407585 -41.5625 88.02734375 C-43.48141052 88.01804588 -43.48141052 88.01804588 -45.43908691 88.00856018 C-48.1355198 87.99820319 -50.83142339 88.00264917 -53.52783203 88.01733398 C-56.96442781 88.03452866 -60.39935248 88.01099734 -63.83576202 87.97584438 C-67.14060349 87.94846818 -70.44505073 87.95861256 -73.75 87.96484375 C-74.97416626 87.95158554 -76.19833252 87.93832733 -77.45959473 87.92466736 C-84.44291454 88.00045783 -89.95460208 88.56979695 -95.15625 93.59375 C-99.45119148 100.39691049 -98.59084371 108.71113059 -98.59570312 116.45703125 C-98.73861169 124.01640133 -98.73861169 124.01640133 -101.06640625 127.234375 C-106.33931683 130.66423085 -112.17204663 129.89301229 -118.27709961 129.94384766 C-119.73299158 129.96039004 -121.1888029 129.98765836 -122.64428711 130.02587891 C-124.74896123 130.08083123 -126.85173507 130.10254616 -128.95703125 130.1171875 C-130.21684814 130.13700684 -131.47666504 130.15682617 -132.7746582 130.17724609 C-137.0389786 129.44143455 -138.46358809 127.89788546 -141.15625 124.59375 C-143.44607938 120.01409123 -142.4678165 113.2777956 -142.50634766 108.19116211 C-142.52289525 106.58977717 -142.55017009 104.98846573 -142.58837891 103.38745117 C-142.64327731 101.07431884 -142.66503918 98.76291564 -142.6796875 96.44921875 C-142.70235687 95.73759079 -142.72502625 95.02596283 -142.74838257 94.29277039 C-142.73151553 90.30466936 -142.29558146 88.75892897 -139.68603516 85.6652832 C-138.4337915 84.63987427 -138.4337915 84.63987427 -137.15625 83.59375 C-136.66125 83.09875 -136.66125 83.09875 -136.15625 82.59375 C-134.46996611 82.48451475 -132.77954443 82.43790157 -131.08984375 82.41796875 C-130.04634766 82.39412109 -129.00285156 82.37027344 -127.92773438 82.34570312 C-125.73260962 82.30326662 -123.53724269 82.27173192 -121.34179688 82.25195312 C-113.66796867 82.04988661 -108.01296157 81.02278662 -102.18359375 75.83984375 C-100.6555902 72.49915157 -100.68263421 69.2579788 -100.71875 65.65625 C-100.69876953 64.95306641 -100.67878906 64.24988281 -100.65820312 63.52539062 C-100.66147379 60.03559582 -101.03476495 57.80082027 -102.80859375 54.77734375 C-107.28170492 50.61682937 -111.42570103 49.22676207 -117.47265625 49.22265625 C-118.64892578 49.20525391 -119.82519531 49.18785156 -121.03710938 49.16992188 C-123.49543128 49.16079283 -125.95377087 49.1555969 -128.41210938 49.15429688 C-129.58708984 49.13560547 -130.76207031 49.11691406 -131.97265625 49.09765625 C-133.03943604 49.09580322 -134.10621582 49.0939502 -135.20532227 49.09204102 C-138.85299412 48.47609841 -140.5168736 47.13303561 -143.15625 44.59375 C-145.53861624 39.82901752 -144.4685046 32.63316402 -144.50634766 27.33666992 C-144.52289824 25.63828826 -144.55017685 23.93997599 -144.58837891 22.24194336 C-144.64324658 19.78983537 -144.66503513 17.33935853 -144.6796875 14.88671875 C-144.70235687 14.13134323 -144.72502625 13.37596771 -144.74838257 12.59770203 C-144.73329705 8.81888513 -144.27136237 6.76361348 -142.13745117 3.61474609 C-138.37183777 1.06198647 -135.33438683 0.88695492 -130.93359375 0.96484375 C-130.15109756 0.96243179 -129.36860138 0.96001984 -128.56239319 0.95753479 C-126.91418368 0.95851111 -125.26594052 0.97185372 -123.61791992 0.99682617 C-121.09766237 1.03119664 -118.58090213 1.01746258 -116.06054688 0.99804688 C-114.45571428 1.00494428 -112.8508907 1.01461572 -111.24609375 1.02734375 C-110.49496811 1.02238388 -109.74384247 1.01742401 -108.96995544 1.01231384 C-105.60493664 1.0879763 -103.49355977 1.36605261 -100.67773438 3.2668457 C-98.76914336 6.18577718 -98.6855307 7.91787338 -98.72265625 11.390625 C-98.71298828 12.5146875 -98.70332031 13.63875 -98.69335938 14.796875 C-98.71017484 17.14586553 -98.73095455 19.49483131 -98.75585938 21.84375 C-98.69493049 28.12300958 -98.32415761 32.71795327 -94.81616211 38.01660156 C-88.78565041 43.7464303 -81.76693838 43.04594373 -73.9453125 43.02734375 C-72.66320892 43.0325856 -71.38110535 43.03782745 -70.06015015 43.04322815 C-67.35184861 43.05213747 -64.64384228 43.04976229 -61.93554688 43.03979492 C-58.483432 43.02832138 -55.03234257 43.04850111 -51.58036232 43.07771206 C-48.26446025 43.10059154 -44.94879137 43.09360189 -41.6328125 43.08984375 C-40.40237213 43.10107773 -39.17193176 43.11231171 -37.90420532 43.12388611 C-30.86535977 43.06702424 -26.08651241 42.50587859 -20.15625 38.59375 C-14.57500484 31.62211867 -15.66280806 22.99696629 -15.75585938 14.52929688 C-15.73942383 12.91571289 -15.73942383 12.91571289 -15.72265625 11.26953125 C-15.73240479 10.29927002 -15.74215332 9.32900879 -15.75219727 8.3293457 C-13.89401141 -0.20034399 -7.25141318 -0.12609806 0 0 Z " fill="#FBFCFC" transform="translate(469.15625,102.40625)"/>
<path d="M0 0 C1.07396782 -0.0532267 1.07396782 -0.0532267 2.16963196 -0.10752869 C8.84242516 -0.42105836 15.51847329 -0.60957671 22.1967659 -0.75935268 C26.67168121 -0.86210818 31.13646969 -1.00535288 35.60595703 -1.25195312 C67.96293845 -2.99154914 67.96293845 -2.99154914 78.98650551 6.49833584 C86.7170419 13.73104353 93.675469 21.58020034 94.24121094 32.58764648 C93.63917077 39.2975618 91.22680741 43.61072494 86.24121094 48.08764648 C84.4657526 49.52340322 82.66068748 50.88234266 80.80224609 52.20874023 C78.24166528 54.04497914 75.84820359 56.07081904 73.42871094 58.08764648 C72.09453125 59.15885742 72.09453125 59.15885742 70.73339844 60.25170898 C67.92117779 62.57199599 65.23573831 64.99335783 62.55371094 67.46264648 C58.10643982 71.5561574 53.50653631 75.38707147 48.80371094 79.18139648 C45.02953691 82.31224539 41.44943303 85.63791102 37.84277344 88.95874023 C34.05699224 92.35745977 30.13235371 95.55507178 26.17089844 98.74780273 C24.1916432 100.28990725 24.1916432 100.28990725 23.05371094 101.46264648 C55.22871094 101.95764648 55.22871094 101.95764648 88.05371094 102.46264648 C88.05371094 111.70264648 88.05371094 120.94264648 88.05371094 130.46264648 C49.11371094 130.46264648 10.17371094 130.46264648 -29.94628906 130.46264648 C-29.94628906 106.46264648 -29.94628906 106.46264648 -25.82128906 101.71264648 C-23.87091633 100.61504603 -21.9116875 99.53310878 -19.94628906 98.46264648 C-17.58507523 96.62645964 -15.36693699 94.63884563 -13.13378906 92.65014648 C-11.93250501 91.611555 -10.72937042 90.57510017 -9.52441406 89.54077148 C-8.92822266 89.02708008 -8.33203125 88.51338867 -7.71777344 87.98413086 C-4.95182941 85.60852954 -2.16903569 83.25306137 0.61621094 80.90014648 C1.14835205 80.45050537 1.68049316 80.00086426 2.22875977 79.53759766 C3.30067536 78.63211747 4.37269657 77.7267623 5.44482422 76.8215332 C8.14943383 74.53718463 10.85143221 72.24975141 13.55371094 69.96264648 C14.63703193 69.04596523 15.72036525 68.12929856 16.80371094 67.21264648 C17.33996094 66.75889648 17.87621094 66.30514648 18.42871094 65.83764648 C23.30371094 61.71264648 23.30371094 61.71264648 24.93017578 60.33642578 C26.00865102 59.42385734 27.08710172 58.51125989 28.16552734 57.59863281 C31.52141053 54.75876613 34.87770998 51.91939579 38.23632812 49.08276367 C39.35098875 48.13919348 40.46367442 47.1932845 41.57421875 46.24487305 C43.80981093 44.33792258 46.05079251 42.46486703 48.38964844 40.68530273 C51.67176644 38.16008133 52.96778005 36.76593195 54.11621094 32.71264648 C54.42773413 29.3744161 54.42773413 29.3744161 52.05371094 27.46264648 C49.88541039 27.16373665 49.88541039 27.16373665 47.36035156 27.21972656 C46.38594116 27.21664993 45.41153076 27.2135733 44.40759277 27.21040344 C43.35237427 27.21758896 42.29715576 27.22477448 41.20996094 27.23217773 C40.12992798 27.23263596 39.04989502 27.23309418 37.93713379 27.23356628 C35.65062361 27.23659115 33.36411554 27.2444844 31.07763672 27.25683594 C27.5682855 27.27507075 24.05919829 27.27734581 20.54980469 27.27709961 C18.33235448 27.28201548 16.11490607 27.28784411 13.89746094 27.29467773 C12.84224243 27.29579056 11.78702393 27.29690338 10.6998291 27.29804993 C9.7254187 27.30442978 8.7510083 27.31080963 7.74707031 27.31738281 C6.45706116 27.32310051 6.45706116 27.32310051 5.14099121 27.32893372 C2.99358646 27.3305761 2.99358646 27.3305761 1.05371094 28.46264648 C0.72371094 34.40264648 0.39371094 40.34264648 0.05371094 46.46264648 C-10.17628906 46.46264648 -20.40628906 46.46264648 -30.94628906 46.46264648 C-33.53539388 27.3974201 -33.53539388 27.3974201 -28.81933594 20.23022461 C-21.41007034 11.16111649 -12.01103224 0.59389322 0 0 Z " fill="#FAFAFB" transform="translate(225.9462890625,102.537353515625)"/>
<path d="M0 0 C12.10994442 -0.36315866 24.21620891 -0.65593382 36.33039093 -0.82899475 C41.95719981 -0.91210682 47.58005615 -1.02457729 53.20458984 -1.20703125 C58.64500449 -1.3823846 64.0816489 -1.47684208 69.52467346 -1.51803589 C71.58862144 -1.54734113 73.65238916 -1.60457422 75.71470642 -1.69168091 C92.67389518 -2.37873931 92.67389518 -2.37873931 99.7331543 3.49267578 C103.23048892 6.81093202 106.33809965 10.38662557 109.3708334 14.12891197 C110.92019419 15.9083435 112.48495892 17.30536801 114.34144592 18.75210571 C117.7458867 21.63067156 118.24109002 23.34205762 118.87635803 27.60147095 C119.31110651 35.11517236 118.57522497 40.71359791 113.47525978 46.57773209 C110.90299748 49.3079066 108.2054648 51.87949383 105.44140625 54.4140625 C104.86086864 54.94920219 104.28033104 55.48434189 103.68220139 56.03569794 C98.13732042 61.10699035 92.46390818 66.02575467 86.71948242 70.86914062 C69.01437326 85.62262435 69.01437326 85.62262435 61.90893745 106.71767044 C61.48868924 114.54252143 62.42248179 122.14030767 63 130 C51.78 130 40.56 130 29 130 C25.94602121 116.88160885 23.52612332 102.81203371 29 90 C35.20948514 80.2658441 43.69403773 72.24225761 52.0625 64.375 C52.61027729 63.85942913 53.15805458 63.34385826 53.72243118 62.81266403 C61.67426752 55.36169731 69.81057885 48.11447957 78.21202087 41.17214966 C81.80027628 38.40673011 81.80027628 38.40673011 83.68359375 34.4453125 C83.60238281 33.67960937 83.52117187 32.91390625 83.4375 32.125 C83.37433594 31.34382813 83.31117188 30.56265625 83.24609375 29.7578125 C83.16488281 29.17773438 83.08367187 28.59765625 83 28 C79.93200879 26.46600439 76.70597732 26.82052046 73.33740234 26.79467773 C72.15190544 26.77982834 72.15190544 26.77982834 70.94245911 26.76467896 C68.3236493 26.73302878 65.70482134 26.70829267 63.0859375 26.68359375 C61.27275108 26.66302726 59.45956948 26.64203087 57.64639282 26.62062073 C52.86901758 26.56536858 48.09159885 26.51597318 43.31414795 26.46777344 C38.44116332 26.41758134 33.56824202 26.36188333 28.6953125 26.30664062 C19.13026037 26.1990206 9.56515459 26.09809283 0 26 C0 17.42 0 8.84 0 0 Z " fill="#FAFAFB" transform="translate(71,103)"/>
<path d="M0 0 C7.59 0 15.18 0 23 0 C23 7.59 23 15.18 23 23 C21.35 23 19.7 23 18 23 C18 18.38 18 13.76 18 9 C17.34 9 16.68 9 16 9 C15.599021 9.88993652 15.599021 9.88993652 15.18994141 10.79785156 C13.98415007 13.02933245 12.7641905 14.4664799 10.9609375 16.234375 C10.38085938 16.80800781 9.80078125 17.38164062 9.203125 17.97265625 C8.59984375 18.55917969 7.9965625 19.14570313 7.375 19.75 C6.76398438 20.35199219 6.15296875 20.95398438 5.5234375 21.57421875 C4.02011376 23.05405305 2.51065144 24.52764676 1 26 C-0.32 25.34 -1.64 24.68 -3 24 C-3 21 -3 21 -1.49609375 19.421875 C-0.47708984 18.59429687 -0.47708984 18.59429687 0.5625 17.75 C7.66948753 12.13449684 7.66948753 12.13449684 13 5 C8.71 5 4.42 5 0 5 C0 3.35 0 1.7 0 0 Z " fill="#141847" transform="translate(472,114)"/>
<path d="M0 0 C1.32 0 2.64 0 4 0 C4.99 1.98 5.98 3.96 7 6 C7.66 4.02 8.32 2.04 9 0 C10.32 0 11.64 0 13 0 C13 3.96 13 7.92 13 12 C12.01 12 11.02 12 10 12 C9.67 10.68 9.34 9.36 9 8 C8.67 8.99 8.34 9.98 8 11 C7.01 11 6.02 11 5 11 C4.67 10.01 4.34 9.02 4 8 C3.67 9.32 3.34 10.64 3 12 C2.01 12 1.02 12 0 12 C0 8.04 0 4.08 0 0 Z " fill="#D5D6DD" transform="translate(531,102)"/>
<path d="M0 0 C1.32 0 2.64 0 4 0 C4 3.96 4 7.92 4 12 C3.01 12 2.02 12 1 12 C0.896875 11.360625 0.79375 10.72125 0.6875 10.0625 C0.460625 9.381875 0.23375 8.70125 0 8 C-0.99 7.67 -1.98 7.34 -3 7 C-2.01 4.69 -1.02 2.38 0 0 Z " fill="#CDCDD7" transform="translate(540,102)"/>
<path d="M0 0 C2.97 0 5.94 0 9 0 C9 0.66 9 1.32 9 2 C8.01 2 7.02 2 6 2 C6 4.97 6 7.94 6 11 C5.01 11 4.02 11 3 11 C3 8.03 3 5.06 3 2 C2.01 2 1.02 2 0 2 C0 1.34 0 0.68 0 0 Z " fill="#CDCED7" transform="translate(521,102)"/>
</svg>
