<?xml version="1.0" encoding="UTF-8"?>
<svg version="1.1" xmlns="http://www.w3.org/2000/svg" width="785" height="318">
<path d="M0 0 C32.18791849 7.74627037 69.06028209 22.69153673 94 45 C94 45.66 94 46.32 94 47 C95.32 47.33 96.64 47.66 98 48 C98 48.66 98 49.32 98 50 C98.79664063 50.3403125 98.79664063 50.3403125 99.609375 50.6875 C102.78994062 52.43369289 105.47998907 54.68061286 108.25 57 C108.80429688 57.45117188 109.35859375 57.90234375 109.9296875 58.3671875 C111.32731582 59.53073029 112.66885563 60.76094738 114 62 C114 62.66 114 63.32 114 64 C114.56332031 64.23847656 115.12664062 64.47695312 115.70703125 64.72265625 C124.73073059 69.74948706 134.7948766 81.58227573 139 91 C139.66 91 140.32 91 141 91 C142.72509196 93.23995645 144.34554127 95.48084328 145.9375 97.8125 C146.81894573 99.09168688 147.70298392 100.369092 148.58984375 101.64453125 C148.98034912 102.21534424 149.37085449 102.78615723 149.77319336 103.37426758 C151.05767364 105.07642762 152.46042283 106.5278333 154 108 C154.61875 107.03900391 154.61875 107.03900391 155.25 106.05859375 C164.11436284 92.78183601 176.56087571 83.58170504 192.3125 80.3125 C210.39945441 78.77970725 225.22361924 82.29348311 240 93 C242.25102896 94.90404954 244.06750013 96.75412177 246 99 C246 99.66 246 100.32 246 101 C246.66 101 247.32 101 248 101 C249.54296875 102.828125 249.54296875 102.828125 251.1875 105.25 C251.73792969 106.03890625 252.28835938 106.8278125 252.85546875 107.640625 C254 110 254 110 253.86791992 111.96069336 C252.63660008 114.85386203 251.0034415 115.50739465 248.2578125 116.98828125 C247.27296875 117.53033203 246.288125 118.07238281 245.2734375 118.63085938 C244.23445313 119.18580078 243.19546875 119.74074219 242.125 120.3125 C231.32028213 126.18129972 220.83493207 132.17346774 211.3125 140 C210.66877441 140.52343994 210.02504883 141.04687988 209.36181641 141.58618164 C207.56836366 143.05014592 205.78277166 144.52306172 204 146 C203.24847656 146.61746094 202.49695313 147.23492187 201.72265625 147.87109375 C180.70663741 165.68805687 164.75153599 187.73441886 152 212 C151.43667969 213.04542969 150.87335938 214.09085938 150.29296875 215.16796875 C143.02368751 229.0735859 138.14409503 243.91320243 134 259 C129.72652109 259 127.033827 256.69493482 123.5625 254.4375 C122.11275727 253.51440184 120.6622298 252.59253501 119.2109375 251.671875 C118.49518555 251.21619141 117.77943359 250.76050781 117.04199219 250.29101562 C114.28227618 248.54623104 111.4956086 246.85320221 108.6875 245.1875 C107.84574219 244.68605469 107.00398437 244.18460938 106.13671875 243.66796875 C87.25526103 233.62764192 66.83173167 226.59893719 46 222 C45.10877441 221.78972168 44.21754883 221.57944336 43.29931641 221.36279297 C28.01853652 217.85440813 12.8537792 217.63328674 -2.75 217.625 C-3.75249786 217.62300598 -4.75499573 217.62101196 -5.78787231 217.61895752 C-15.78880951 217.62120927 -25.56922224 217.67727278 -35.41967773 219.56347656 C-39.31600117 220.22263318 -43.05837748 220.13361432 -47 220 C-44.14848428 215.72272642 -40.64522307 214.95134798 -35.9375 213.1875 C-35.0101001 212.83929199 -34.0827002 212.49108398 -33.12719727 212.13232422 C-7.5024837 202.84094481 18.00712146 200.85969033 45 200 C27.01708281 196.28064163 9.27913782 193.95904623 -9.08642578 193.42895508 C-14.78541742 193.21458258 -14.78541742 193.21458258 -17 191 C-12.0078957 189.14601914 -7.11228162 188.23319632 -1.875 187.4375 C-1.09640625 187.31181641 -0.3178125 187.18613281 0.484375 187.05664062 C14.51254699 184.8747344 28.58575465 184.71565326 42.75 184.4375 C44.81511132 184.39422019 46.8802156 184.3506032 48.9453125 184.30664062 C53.96346895 184.20053814 58.98169868 184.09900353 64 184 C44.86913697 178.7078208 25.54288706 173.91805356 5.609375 173.2734375 C2.91812569 172.99142036 1.35594739 172.26063852 -1 171 C9.62878354 168.79711097 20.03649468 168.72394055 30.84570312 168.79418945 C33.73055991 168.81237744 36.61509189 168.81469877 39.5 168.81445312 C50.69989211 168.83639254 61.82915725 169.19292797 73 170 C56.49303286 162.23004605 40.18371852 157.6804264 22 156 C22.33 155.01 22.66 154.02 23 153 C33.89 152.34 44.78 151.68 56 151 C53.256875 148.23625 50.51375 145.4725 47.6875 142.625 C46.82729248 141.75568848 45.96708496 140.88637695 45.08081055 139.99072266 C44.39801025 139.3054248 43.71520996 138.62012695 43.01171875 137.9140625 C42.31522217 137.2123291 41.61872559 136.5105957 40.90112305 135.78759766 C38.92409164 133.82960744 38.92409164 133.82960744 36 132 C36 131.34 36 130.68 36 130 C35.1028125 129.566875 35.1028125 129.566875 34.1875 129.125 C32 128 32 128 29 126 C29 125.34 29 124.68 29 124 C28.40791748 123.72397949 27.81583496 123.44795898 27.20581055 123.16357422 C25.11451031 122.06040467 23.50609725 120.90466646 21.70703125 119.3828125 C21.08570312 118.86436768 20.464375 118.34592285 19.82421875 117.81176758 C19.16035156 117.25513428 18.49648437 116.69850098 17.8125 116.125 C5.16110533 105.69893681 -8.26440884 96.64313102 -22.23535156 88.09326172 C-24.7693579 86.52335574 -27.25618513 84.88276991 -29.75 83.25 C-34.4868145 80.21413252 -39.39992302 77.6960896 -44.46875 75.26171875 C-47 74 -47 74 -50 72 C-49.505 71.01 -49.505 71.01 -49 70 C-36.26297575 74.86439117 -23.87296495 80.61659919 -11.54418945 86.42504883 C-6.3990712 88.83898565 -1.19912807 91.11433115 4.015625 93.37304688 C8.58887176 95.36160845 13.11524993 97.43419799 17.625 99.5625 C22.37908514 101.80555479 27.15850289 103.94916358 32 106 C38.21178265 108.63211129 44.31967815 111.44684238 50.421875 114.3203125 C55.26097217 116.59194108 60.12725039 118.80169092 65 121 C64.360625 120.38125 63.72125 119.7625 63.0625 119.125 C60.60643667 116.68258147 58.34001197 114.10894095 56.0625 111.5 C39.15194602 92.65761122 17.98129337 76.47680331 -4 64 C-5.00546875 63.40058594 -6.0109375 62.80117187 -7.046875 62.18359375 C-14.78454328 57.62835355 -22.68431272 53.67094384 -30.86694336 49.96948242 C-31.64948486 49.61088135 -32.43202637 49.25228027 -33.23828125 48.8828125 C-34.2907605 48.40932373 -34.2907605 48.40932373 -35.36450195 47.92626953 C-37 47 -37 47 -38 45 C-0.31552813 49.46452979 40.08275546 73.61780111 72.21484375 92.7578125 C76.42715173 95.26446557 80.69684342 97.65282368 85 100 C75.26806222 90.04084115 75.26806222 90.04084115 64.96484375 80.6875 C62.5404227 78.60529345 60.21649968 76.42497793 57.875 74.25 C53.61052824 70.36023078 49.22498627 66.69197171 44.6875 63.125 C44.11306152 62.67286133 43.53862305 62.22072266 42.94677734 61.75488281 C40.22529156 59.63983649 37.4929044 57.65202159 34.58203125 55.8046875 C33.72996094 55.20914063 32.87789063 54.61359375 32 54 C32 53.34 32 52.68 32 52 C31.30132812 51.75636719 30.60265625 51.51273438 29.8828125 51.26171875 C26.54095814 49.79909144 23.84396827 47.93162846 20.875 45.8125 C19.71589632 44.99589974 18.55572393 44.1808145 17.39453125 43.3671875 C16.82041504 42.96467773 16.24629883 42.56216797 15.65478516 42.14746094 C10.38907902 38.49611558 4.97602595 35.08380461 -0.62109375 31.96484375 C-1.55514038 31.44289429 -1.55514038 31.44289429 -2.50805664 30.91040039 C-4.27886537 29.92831594 -6.05720647 28.9598493 -7.8359375 27.9921875 C-11.13759146 25.91336834 -13.37044808 23.84621912 -16 21 C-9.18724545 22.31704061 -3.13034175 24.3618171 3.25 27.0625 C4.1994751 27.45880615 5.1489502 27.8551123 6.12719727 28.26342773 C8.10535917 29.09127125 10.08199694 29.92276573 12.05712891 30.7578125 C14.89151475 31.95420832 17.73206601 33.13469819 20.57421875 34.3125 C29.85595124 38.18875661 38.85966856 42.30564954 47.6640625 47.171875 C50.72093664 48.84707066 53.80531442 50.40919497 56.9375 51.9375 C66.94598341 56.90116677 76.78280649 62.30202231 85.9765625 68.66015625 C88.86765682 70.57452951 91.89511424 72.20123542 94.95703125 73.82421875 C97.11231062 75.06463766 99.04058975 76.47210032 101 78 C90.68244657 64.47254106 78.48812062 52.35590103 65 42 C63.99839844 41.20464844 62.99679688 40.40929688 61.96484375 39.58984375 C45.2209656 26.35827174 27.08696422 15.79378069 7.91796875 6.47265625 C5.17887581 5.09027601 2.54002844 3.72308768 0 2 C0 1.34 0 0.68 0 0 Z M214.625 105 C212.72793176 106.9727942 212.72793176 106.9727942 212.625 110.0625 C212.71069764 113.11861241 212.71069764 113.11861241 215 115 C218.5 115.41666667 218.5 115.41666667 222 115 C224.36692966 112.15173402 224.36692966 112.15173402 223.625 108.8125 C223.41875 107.884375 223.2125 106.95625 223 106 C218.86684246 104.09590749 218.86684246 104.09590749 214.625 105 Z " fill="#03256A" transform="translate(84,15)"/>
<path d="M0 0 C2.85202755 0.01063198 5.70341255 0.00009948 8.55541992 -0.01269531 C17.80415857 -0.02437673 27.05283039 0.18093205 36.2800293 0.83105469 C37.08811539 0.86559753 37.89620148 0.90014038 38.72877502 0.93572998 C44.42102466 1.42885138 47.171369 3.31409361 50.93527222 7.57635498 C52.54323135 9.58795789 54.07024235 11.57967418 55.4362793 13.76464844 C57.30103949 16.67465249 59.19352572 19.53735409 61.2019043 22.35058594 C63.54232399 25.64585803 65.80413344 28.98601572 68.04125977 32.35205078 C69.24114364 34.14431141 70.46416199 35.91752957 71.69799805 37.68652344 C77.26203598 45.73495831 82.24027736 54.10369583 87.1315918 62.57324219 C87.76613281 63.67071777 88.40067383 64.76819336 89.05444336 65.89892578 C99.3190918 83.82542047 99.3190918 83.82542047 99.3190918 88.26074219 C95.77746852 86.93470355 92.63362998 85.36216182 89.4050293 83.39746094 C88.47819336 82.83994141 87.55135742 82.28242188 86.59643555 81.70800781 C84.68387154 80.54837109 82.77238528 79.3869547 80.86206055 78.22363281 C74.52117022 74.41472559 68.12453755 71.15559598 61.3190918 68.26074219 C60.44494629 67.88667236 59.57080078 67.51260254 58.67016602 67.12719727 C44.50893091 61.177285 30.31461979 56.57124428 15.3190918 53.26074219 C14.42786621 53.05046387 13.53664063 52.84018555 12.6184082 52.62353516 C-2.66237168 49.11515032 -17.827129 48.89402893 -33.4309082 48.88574219 C-34.43340607 48.88374817 -35.43590393 48.88175415 -36.46878052 48.87969971 C-46.46971771 48.88195146 -56.25013044 48.93801497 -66.10058594 50.82421875 C-69.99690937 51.48337537 -73.73928568 51.39435651 -77.6809082 51.26074219 C-74.82939248 46.98346861 -71.32613127 46.21209017 -66.6184082 44.44824219 C-65.6910083 44.10003418 -64.7636084 43.75182617 -63.80810547 43.39306641 C-38.1833919 34.101687 -12.67378674 32.12043252 14.3190918 31.26074219 C-3.66382539 27.54138381 -21.40177039 25.21978842 -39.76733398 24.68969727 C-45.46632563 24.47532476 -45.46632563 24.47532476 -47.6809082 22.26074219 C-42.68880391 20.40676133 -37.79318982 19.49393851 -32.5559082 18.69824219 C-31.77731445 18.57255859 -30.9987207 18.446875 -30.1965332 18.31738281 C-16.16836122 16.13547658 -2.09515355 15.97639545 12.0690918 15.69824219 C14.13420312 15.65496238 16.1993074 15.61134538 18.2644043 15.56738281 C23.28256075 15.46128033 28.30079048 15.35974572 33.3190918 15.26074219 C14.18822877 9.96856299 -5.13802114 5.17879575 -25.0715332 4.53417969 C-27.76278251 4.25216254 -29.32496081 3.5213807 -31.6809082 2.26074219 C-21.10868341 0.08763827 -10.75114518 -0.04748658 0 0 Z " fill="#919292" transform="translate(114.680908203125,183.7392578125)"/>
<path d="M0 0 C2.31 0 4.62 0 7 0 C7 67.32 7 134.64 7 204 C4.69 204 2.38 204 0 204 C0 136.68 0 69.36 0 0 Z " fill="#032569" transform="translate(380,82)"/>
<path d="M0 0 C3.59792511 2.73694303 5.58049118 5.74147353 7 10 C7.27844438 13.22419388 7.2774649 16.45259239 7.3125 19.6875 C7.34150391 20.56083984 7.37050781 21.43417969 7.40039062 22.33398438 C7.45887446 28.35781978 6.52810466 33.01575451 3 38 C-1.23892827 41.22965963 -5.41515465 41.51146395 -10.59375 41.36328125 C-15.09787109 40.68327596 -17.88150919 38.11849081 -21 35 C-22.61429786 30.22018505 -22.22400431 25.10967324 -22.25 20.125 C-22.270625 19.14402344 -22.29125 18.16304687 -22.3125 17.15234375 C-22.34219924 11.65056043 -22.07495759 7.77427626 -19 3 C-18.34 3 -17.68 3 -17 3 C-17 2.34 -17 1.68 -17 1 C-11.42106814 -1.56329302 -5.85457966 -1.65908711 0 0 Z M-15 10 C-16.14330513 13.42991538 -16.20381651 16.1986416 -16.25 19.8125 C-16.27578125 21.01519531 -16.3015625 22.21789062 -16.328125 23.45703125 C-15.95696474 27.46467838 -14.93020203 31.06979797 -12 34 C-6.58223517 34.61284876 -6.58223517 34.61284876 -1.76953125 32.5703125 C0.89757736 28.6962342 0.58361382 25.15777605 0.5 20.5625 C0.51546875 19.71623047 0.5309375 18.86996094 0.546875 17.99804688 C0.52108881 13.88192626 0.32031237 11.54121745 -1.8125 7.9375 C-3.96142252 5.68554698 -3.96142252 5.68554698 -7.5 5.4375 C-11.47764662 6.07676464 -12.63185681 6.81211494 -15 10 Z " fill="#092562" transform="translate(455,157)"/>
<path d="M0 0 C4.05726069 1.79531808 6.10878762 4.84457081 7.875 8.8125 C8.431875 10.3903125 8.431875 10.3903125 9 12 C8 13 8 13 5.1875 13.375 C2 13 2 13 0 10.5625 C-0.66 9.716875 -1.32 8.87125 -2 8 C-4.94109858 6.75949193 -4.94109858 6.75949193 -8 7 C-10.88642473 9.18432142 -11.85101198 10.55303594 -13 14 C-13.12117236 16.26845929 -13.17540383 18.54083894 -13.1875 20.8125 C-13.20876953 22.61654297 -13.20876953 22.61654297 -13.23046875 24.45703125 C-13.00124672 27.98083425 -12.27030979 30.72129528 -11 34 C-7.75202267 34.41904703 -7.75202267 34.41904703 -4 34 C-3.01 33.175 -2.02 32.35 -1 31.5 C2 29 2 29 5.875 28.6875 C6.90625 28.790625 7.9375 28.89375 9 29 C6.87321725 34.52963515 5.05438579 38.16736853 -0.1875 41.3125 C-5.28526089 42.55861933 -10.05952427 41.80150085 -14.875 39.8125 C-18.21762098 36.96144093 -19.78663734 33.94117805 -20.27148438 29.5300293 C-20.3671943 26.66000417 -20.35987871 23.80865005 -20.3125 20.9375 C-20.31572266 19.95716797 -20.31894531 18.97683594 -20.32226562 17.96679688 C-20.27443744 11.56216789 -19.89450386 7.24349141 -15.625 2.1875 C-11.06835233 -1.34783009 -5.44326843 -0.91841155 0 0 Z " fill="#072566" transform="translate(453,109)"/>
<path d="M0 0 C4.05984498 1.78506803 6.11032975 4.84803532 7.875 8.8125 C8.431875 10.3903125 8.431875 10.3903125 9 12 C5.875 12.3125 5.875 12.3125 2 12 C0.989375 11.154375 -0.02125 10.30875 -1.0625 9.4375 C-3.77444953 6.69753001 -3.77444953 6.69753001 -7.1875 6.8125 C-10.12396083 7.79898686 -10.12396083 7.79898686 -11.875 10.25 C-13.9503727 17.16790901 -14.44135164 25.4510733 -11 32 C-8.19333909 34.28441618 -8.19333909 34.28441618 -5.0625 33.9375 C-1.81039233 33.26221772 -1.81039233 33.26221772 0 30.4375 C0.66 29.633125 1.32 28.82875 2 28 C5.25 27.6875 5.25 27.6875 8 28 C8.33 28.66 8.66 29.32 9 30 C7.17702691 34.825517 4.57172077 38.51622962 0 41 C-4.4930116 42.31247471 -7.89496863 42.39614332 -12.3125 40.8125 C-16.09158918 38.26381195 -18.5397545 36.38073649 -20 32 C-20.2572155 28.21269657 -20.23135079 24.42011514 -20.25 20.625 C-20.270625 19.5834375 -20.29125 18.541875 -20.3125 17.46875 C-20.34795008 10.53826014 -19.54793124 7.04107923 -15.0625 1.6875 C-10.19511562 -0.99452813 -5.42284538 -0.8376753 0 0 Z " fill="#082563" transform="translate(453,204)"/>
<path d="M0 0 C2.82762238 1.88508159 3.44814268 2.65643032 4.625 5.75 C4.85205078 8.31542969 4.85205078 8.31542969 4.8203125 11.171875 C4.81386719 12.19667969 4.80742188 13.22148437 4.80078125 14.27734375 C4.78402344 15.34082031 4.76726563 16.40429688 4.75 17.5 C4.74097656 18.57894531 4.73195313 19.65789062 4.72265625 20.76953125 C4.69911305 23.42991278 4.66622799 26.08984336 4.625 28.75 C1.89631829 28.99970296 -0.83086014 29.22531211 -3.5625 29.4375 C-4.33142578 29.51033203 -5.10035156 29.58316406 -5.89257812 29.65820312 C-10.62628592 30.00358095 -13.53923886 29.90673751 -17.375 26.75 C-19.82568846 23.07396731 -20.08132248 20.02238966 -19.375 15.75 C-17.04802639 12.50885819 -15.20665483 11.47190598 -11.375 10.75 C-9.79288427 10.68451508 -8.20829919 10.66421619 -6.625 10.6875 C-5.82578125 10.69652344 -5.0265625 10.70554688 -4.203125 10.71484375 C-3.59984375 10.72644531 -2.9965625 10.73804688 -2.375 10.75 C-2.705 9.43 -3.035 8.11 -3.375 6.75 C-6.45599266 5.93444312 -8.28373085 5.72951101 -11.4375 6.4375 C-12.8915625 6.5921875 -12.8915625 6.5921875 -14.375 6.75 C-16.75 4.8125 -16.75 4.8125 -18.375 2.75 C-11.98595477 -1.50936349 -7.5283133 -2.78826419 0 0 Z M-11.375 16.75 C-12.035 18.07 -12.695 19.39 -13.375 20.75 C-12.25390434 22.37493901 -12.25390434 22.37493901 -10.375 23.75 C-7.27998792 24.00265405 -5.17370027 24.14935013 -2.375 22.75 C-2.375 20.77 -2.375 18.79 -2.375 16.75 C-5.345 16.75 -8.315 16.75 -11.375 16.75 Z " fill="#072665" transform="translate(507.375,121.25)"/>
<path d="M0 0 C2.82069295 2.27806397 3.88735445 4.04448829 4.31323242 7.65698242 C4.394306 10.8848363 4.34808285 14.08519712 4.25 17.3125 C4.23195313 18.43462891 4.21390625 19.55675781 4.1953125 20.71289062 C4.14827856 23.47613447 4.08256317 26.23762698 4 29 C1.10359882 29.08120751 -1.79050912 29.14059421 -4.6875 29.1875 C-5.50412109 29.21263672 -6.32074219 29.23777344 -7.16210938 29.26367188 C-11.94015822 29.32170486 -15.13423093 29.14903871 -19 26 C-20.14993366 23.70013269 -20.2316929 22.18530912 -20.3125 19.625 C-20.34988281 18.85414063 -20.38726563 18.08328125 -20.42578125 17.2890625 C-19.81783592 14.02065917 -18.68277792 12.92811031 -16 11 C-12.765625 10.609375 -12.765625 10.609375 -9.25 10.75 C-8.07953125 10.78609375 -6.9090625 10.8221875 -5.703125 10.859375 C-4.81109375 10.90578125 -3.9190625 10.9521875 -3 11 C-3 9.35 -3 7.7 -3 6 C-3.90363281 6.03480469 -4.80726563 6.06960937 -5.73828125 6.10546875 C-6.91777344 6.13253906 -8.09726562 6.15960938 -9.3125 6.1875 C-11.07013672 6.23970703 -11.07013672 6.23970703 -12.86328125 6.29296875 C-16 6 -16 6 -17.91796875 4.48828125 C-18.27503906 3.99714844 -18.63210938 3.50601563 -19 3 C-14.43757835 -2.90431037 -6.30324598 -2.97103092 0 0 Z M-12 16 C-12.66 17.32 -13.32 18.64 -14 20 C-13.01 21.485 -13.01 21.485 -12 23 C-9.2572492 23.47114738 -6.80441103 23.17805784 -4 23 C-2.64381501 21.87465895 -2.64381501 21.87465895 -2.9375 18.9375 C-2.958125 17.968125 -2.97875 16.99875 -3 16 C-5.97 16 -8.94 16 -12 16 Z " fill="#0A2563" transform="translate(623,169)"/>
<path d="M0 0 C3.98282188 4.55179643 4.75 10.13061071 4.75 16 C-1.19 16 -7.13 16 -13.25 16 C-12.59 17.65 -11.93 19.3 -11.25 21 C-5.16591528 21.19814261 -5.16591528 21.19814261 0.75 20 C1.74 21.65 2.73 23.3 3.75 25 C-0.71413131 28.75926847 -4.00342235 29.64668273 -9.84375 29.3828125 C-13.50703586 28.80001702 -15.57745689 27.53891596 -18.25 25 C-21.0675245 19.62108958 -21.2100579 12.75613894 -19.71484375 6.90625 C-18.29366904 3.24070649 -16.70617102 0.8851842 -13.25 -1 C-8.88693162 -2.80540761 -4.21413553 -1.87294912 0 0 Z M-12.0625 6.3125 C-13.5377467 8.06499542 -13.5377467 8.06499542 -13.25 11 C-9.62 11 -5.99 11 -2.25 11 C-3.70288986 6.4158037 -3.70288986 6.4158037 -5.25 5 C-8.13725465 4.69607846 -9.67208484 4.58150971 -12.0625 6.3125 Z " fill="#072565" transform="translate(535.25,169)"/>
<path d="M0 0 C3.48512684 1.71088045 5.41978549 2.82389951 7.14794922 6.3269043 C8.02809818 9.088151 8.23073574 11.19503706 8.1953125 14.08203125 C8.18886719 15.01337891 8.18242188 15.94472656 8.17578125 16.90429688 C8.15902344 17.86400391 8.14226563 18.82371094 8.125 19.8125 C8.11597656 20.79154297 8.10695313 21.77058594 8.09765625 22.77929688 C8.07417182 25.18645061 8.0413284 27.59309743 8 30 C6.14955078 29.98066406 6.14955078 29.98066406 4.26171875 29.9609375 C1.37151767 29.95966456 -1.33878807 30.10263491 -4.1875 30.625 C-8.71007556 31.0698435 -11.07013093 30.51398929 -14.61328125 27.734375 C-16.46613279 25.41700576 -16.40122927 23.93767773 -16.375 21 C-16.38273438 20.13375 -16.39046875 19.2675 -16.3984375 18.375 C-15.92099716 15.52908109 -15.31828644 14.67839742 -13 13 C-9.92426278 11.86921426 -7.00386125 11.89468604 -3.75 11.9375 C-2.85796875 11.94652344 -1.9659375 11.95554688 -1.046875 11.96484375 C-0.37140625 11.97644531 0.3040625 11.98804688 1 12 C0.67 10.68 0.34 9.36 0 8 C-4.31477459 7.09572793 -4.31477459 7.09572793 -8.625 7.6875 C-9.40875 7.790625 -10.1925 7.89375 -11 8 C-13.3125 6.0625 -13.3125 6.0625 -15 4 C-10.14857728 0.01934546 -6.25674295 -1.10808149 0 0 Z M-10 19 C-9.67 20.65 -9.34 22.3 -9 24 C-3.94990405 24.93786082 -3.94990405 24.93786082 1 24 C1 21.69 1 19.38 1 17 C-4.7974423 16.75571657 -4.7974423 16.75571657 -10 19 Z " fill="#072665" transform="translate(660,215)"/>
<path d="M0 0 C1.65635138 0.69934836 3.26983897 1.49874424 4.87109375 2.31640625 C4.52029677 4.94738357 4.24505459 6.02257987 2.12109375 7.69140625 C-0.90314622 8.53147291 -2.25990114 7.47767022 -5.12890625 6.31640625 C-8.35718862 6.61728341 -8.35718862 6.61728341 -11.12890625 7.31640625 C-10.79890625 8.30640625 -10.46890625 9.29640625 -10.12890625 10.31640625 C-9.29746094 10.42597656 -8.46601562 10.53554687 -7.609375 10.6484375 C-6.52269531 10.80699219 -5.43601562 10.96554688 -4.31640625 11.12890625 C-3.23746094 11.27972656 -2.15851562 11.43054688 -1.046875 11.5859375 C1.9966263 12.3478314 3.16826953 12.71243107 4.87109375 15.31640625 C5.26953125 17.69140625 5.26953125 17.69140625 5.24609375 20.31640625 C5.25382813 21.18265625 5.2615625 22.04890625 5.26953125 22.94140625 C4.79760873 25.75443463 4.08633366 26.58390627 1.87109375 28.31640625 C-2.2873479 30.573846 -6.49040542 31.02369538 -11.12890625 30.31640625 C-14.24980901 29.20179812 -17.1886528 27.84098211 -20.12890625 26.31640625 C-19.35546875 22.48828125 -19.35546875 22.48828125 -17.31640625 20.94140625 C-15.12890625 20.31640625 -15.12890625 20.31640625 -13.3203125 21.26953125 C-10.66682444 22.53715122 -8.80230368 22.51833776 -5.87890625 22.44140625 C-4.54085937 22.41433594 -4.54085937 22.41433594 -3.17578125 22.38671875 C-2.5003125 22.36351562 -1.82484375 22.3403125 -1.12890625 22.31640625 C-1.45890625 21.32640625 -1.78890625 20.33640625 -2.12890625 19.31640625 C-4.38483315 18.1884428 -5.9371638 18.11817631 -8.44140625 17.94140625 C-15.57956414 17.11245888 -15.57956414 17.11245888 -18.12890625 14.31640625 C-18.5444415 10.61486201 -18.41221117 7.02455292 -18.12890625 3.31640625 C-12.19704634 -0.72230688 -7.04220072 -2.26125711 0 0 Z " fill="#092561" transform="translate(540.12890625,120.68359375)"/>
<path d="M0 0 C1.423125 0.7425 1.423125 0.7425 2.875 1.5 C2.52420302 4.13097732 2.24896084 5.20617362 0.125 6.875 C-2.89923997 7.71506666 -4.25599489 6.66126397 -7.125 5.5 C-10.35328237 5.80087716 -10.35328237 5.80087716 -13.125 6.5 C-13.455 7.49 -13.785 8.48 -14.125 9.5 C-13.14917969 9.60957031 -12.17335938 9.71914062 -11.16796875 9.83203125 C-9.89566406 9.99058594 -8.62335937 10.14914063 -7.3125 10.3125 C-6.04792969 10.46332031 -4.78335938 10.61414063 -3.48046875 10.76953125 C-0.125 11.5 -0.125 11.5 1.79296875 12.765625 C4.01108154 16.32101157 3.59007987 20.49817689 2.875 24.5 C-0.59498517 28.3451187 -3.68373657 29.40228722 -8.8125 29.75 C-13.458571 29.68977315 -16.93222166 28.4860529 -21.125 26.5 C-21.455 25.51 -21.785 24.52 -22.125 23.5 C-20.6875 21.3125 -20.6875 21.3125 -19.125 19.5 C-18.34125 19.83 -17.5575 20.16 -16.75 20.5 C-12.13138131 21.77410171 -7.88250644 21.66923936 -3.125 21.5 C-3.65321591 19.43851064 -3.65321591 19.43851064 -5.125 17.5 C-8.13332374 16.79892068 -8.13332374 16.79892068 -11.5625 16.625 C-17.82676265 15.82117869 -17.82676265 15.82117869 -20.5625 12.875 C-21.27758284 8.58450294 -21.00331757 5.43924935 -19.125 1.5 C-14.26274691 -3.36225309 -5.94461168 -2.53733425 0 0 Z " fill="#072564" transform="translate(574.125,121.5)"/>
<path d="M0 0 C1.62745563 0.70556359 3.21251571 1.50761689 4.78515625 2.328125 C4.43435927 4.95910232 4.15911709 6.03429862 2.03515625 7.703125 C-0.98908372 8.54319166 -2.34583864 7.48938897 -5.21484375 6.328125 C-8.44312612 6.62900216 -8.44312612 6.62900216 -11.21484375 7.328125 C-11.21484375 7.988125 -11.21484375 8.648125 -11.21484375 9.328125 C-10.55097656 9.44929687 -9.88710938 9.57046875 -9.203125 9.6953125 C1.28148877 11.68509322 1.28148877 11.68509322 3.78515625 13.328125 C5.47141336 17.14053239 5.94975229 19.47222558 5.16015625 23.578125 C3.64941184 26.59961381 2.61227884 27.56304317 -0.21484375 29.328125 C-6.63653444 31.02766793 -11.45968225 30.49933644 -17.21484375 27.328125 C-18.20484375 26.668125 -19.19484375 26.008125 -20.21484375 25.328125 C-19.40234375 23.390625 -19.40234375 23.390625 -18.21484375 21.328125 C-15.21484375 20.328125 -15.21484375 20.328125 -13.08984375 21.265625 C-9.10985704 22.73648965 -5.41228587 22.49273057 -1.21484375 22.328125 C-1.21484375 21.008125 -1.21484375 19.688125 -1.21484375 18.328125 C-2.67857422 18.16376953 -2.67857422 18.16376953 -4.171875 17.99609375 C-6.08033203 17.75826172 -6.08033203 17.75826172 -8.02734375 17.515625 C-9.29191406 17.36480469 -10.55648437 17.21398437 -11.859375 17.05859375 C-15.21484375 16.328125 -15.21484375 16.328125 -17.13671875 15.03125 C-19.22083175 11.73895556 -18.84276575 8.06189778 -18.21484375 4.328125 C-13.74286793 -1.63450943 -6.89033975 -2.09019125 0 0 Z " fill="#082664" transform="translate(556.21484375,215.671875)"/>
<path d="M0 0 C2.43936642 1.74240458 2.82649304 3.41979331 3.75 6.25 C3.97705078 8.92895508 3.97705078 8.92895508 3.9453125 11.76953125 C3.93886719 12.79111328 3.93242188 13.81269531 3.92578125 14.86523438 C3.90902344 15.92033203 3.89226563 16.97542969 3.875 18.0625 C3.86597656 19.13693359 3.85695313 20.21136719 3.84765625 21.31835938 C3.82415306 23.96246854 3.79129575 26.60611872 3.75 29.25 C1.44 29.25 -0.87 29.25 -3.25 29.25 C-3.58 21.99 -3.91 14.73 -4.25 7.25 C-9.71084261 5.73534976 -9.71084261 5.73534976 -12.25 7.25 C-12.58 14.51 -12.91 21.77 -13.25 29.25 C-15.56 29.25 -17.87 29.25 -20.25 29.25 C-20.25 19.35 -20.25 9.45 -20.25 -0.75 C-17.25 -0.75 -14.25 -0.75 -11.25 -0.75 C-7.13259169 -2.12246944 -4.06287103 -1.35429034 0 0 Z " fill="#092560" transform="translate(569.25,168.75)"/>
<path d="M0 0 C3.33333333 0 6.66666667 0 10 0 C11.27875 -0.103125 12.5575 -0.20625 13.875 -0.3125 C17.4434544 -0.32564348 17.92400934 -0.05982244 20.9375 2.3125 C23.77724946 6.01277959 24.12383506 8.57653522 24.09765625 13.10546875 C24.09443359 14.08837891 24.09121094 15.07128906 24.08789062 16.08398438 C24.07951172 17.10814453 24.07113281 18.13230469 24.0625 19.1875 C24.05798828 20.22326172 24.05347656 21.25902344 24.04882812 22.32617188 C24.0370401 24.88417266 24.02058515 27.44205733 24 30 C21.69 30 19.38 30 17 30 C16.97494385 29.36908447 16.9498877 28.73816895 16.92407227 28.08813477 C16.80845863 25.24603175 16.68557684 22.40428917 16.5625 19.5625 C16.52318359 18.56927734 16.48386719 17.57605469 16.44335938 16.55273438 C16.40146484 15.60849609 16.35957031 14.66425781 16.31640625 13.69140625 C16.27974854 12.81685791 16.24309082 11.94230957 16.20532227 11.04125977 C16.21818934 9.0072598 16.21818934 9.0072598 15 8 C12.69 7.67 10.38 7.34 8 7 C7.67 14.59 7.34 22.18 7 30 C4.69 30 2.38 30 0 30 C0 20.1 0 10.2 0 0 Z " fill="#0F265C" transform="translate(678,215)"/>
<path d="M0 0 C2.31 0 4.62 0 7 0 C7.60736227 1.33188071 8.21067185 2.6656095 8.8125 4 C9.14894531 4.7425 9.48539063 5.485 9.83203125 6.25 C11.33442748 9.78741453 12.65054824 13.40146198 14 17 C15.98 11.39 17.96 5.78 20 0 C22.31 0 24.62 0 27 0 C25.6992028 7.28446434 23.24398266 13.96557707 20.578125 20.8359375 C19.53026442 23.54946509 18.56360639 26.27035851 17.671875 29.0390625 C17.26453125 30.28429687 16.8571875 31.52953125 16.4375 32.8125 C15.90962891 34.49279297 15.90962891 34.49279297 15.37109375 36.20703125 C13.73566584 39.53845848 12.35344241 40.50496685 9 42 C6.1875 42.1875 6.1875 42.1875 4 42 C3.6875 39.1875 3.6875 39.1875 4 36 C4.825 35.54625 5.65 35.0925 6.5 34.625 C7.325 34.08875 8.15 33.5525 9 33 C9.67350447 26.51572824 8.15281585 21.8507835 5.625 15.9375 C4.9892115 14.40618013 4.35635094 12.87364102 3.7265625 11.33984375 C3.42782227 10.61265137 3.12908203 9.88545898 2.82128906 9.13623047 C1.6675884 6.13537411 0.81725608 3.10804964 0 0 Z " fill="#072567" transform="translate(739,215)"/>
<path d="M0 0 C2.30045731 1.95190317 3.01260975 2.93647831 4.0625 5.75 C4.28053697 8.44289816 4.38726002 10.99765123 4.375 13.6875 C4.39111328 14.39068359 4.40722656 15.09386719 4.42382812 15.81835938 C4.42805077 20.32392597 3.84027867 23.18045544 1.0625 26.75 C-3.25972975 29.83730697 -6.72014986 30.16721191 -11.81640625 29.40234375 C-15.13109096 28.38291033 -16.84567732 26.43014781 -18.9375 23.75 C-20.45328428 20.71843143 -20.18721927 17.87033386 -20.25 14.5 C-20.28738281 13.19546875 -20.32476562 11.8909375 -20.36328125 10.546875 C-19.87073925 6.15466563 -18.77065755 4.10414098 -15.9375 0.75 C-11.19786858 -2.50673684 -5.13092948 -2.18337425 0 0 Z M-12.8125 7.25 C-14.73771893 11.52826429 -14.46370519 15.69779978 -13.3125 20.1875 C-11.92998565 22.01689436 -11.92998565 22.01689436 -9.0625 22.75 C-5.94109885 23.00191985 -5.94109885 23.00191985 -3.5625 21.4375 C-1.14699291 17.44262288 -1.09246407 13.31014885 -1.9375 8.75 C-3.91194791 6.12507799 -4.59864393 5.79941651 -7.9375 5.3125 C-10.9389421 5.49209948 -10.9389421 5.49209948 -12.8125 7.25 Z " fill="#0A2662" transform="translate(489.9375,216.25)"/>
<path d="M0 0 C2.31 0 4.62 0 7 0 C7.33 0.66 7.66 1.32 8 2 C8.99 1.34 9.98 0.68 11 0 C15.17262337 -0.46362482 17.28714371 -0.4494094 20.875 1.8125 C24.11683047 5.14967843 24.12227338 7.86851875 24.09765625 12.32421875 C24.09443359 13.35224609 24.09121094 14.38027344 24.08789062 15.43945312 C24.07951172 16.51130859 24.07113281 17.58316406 24.0625 18.6875 C24.05798828 19.77095703 24.05347656 20.85441406 24.04882812 21.97070312 C24.03703743 24.64719085 24.02058063 27.32356777 24 30 C22.02 30 20.04 30 18 30 C17.98018066 29.44014404 17.96036133 28.88028809 17.93994141 28.3034668 C17.84462217 25.76434146 17.73497247 23.22603112 17.625 20.6875 C17.5940625 19.80642578 17.563125 18.92535156 17.53125 18.01757812 C17.49257813 17.17001953 17.45390625 16.32246094 17.4140625 15.44921875 C17.36693115 14.27879028 17.36693115 14.27879028 17.31884766 13.0847168 C17.10412111 10.69844232 17.10412111 10.69844232 15 8 C11.95804573 7.66659529 11.95804573 7.66659529 9 8 C7.38219843 9.61780157 7.77727853 11.45635518 7.68359375 13.69140625 C7.64169922 14.63564453 7.59980469 15.57988281 7.55664062 16.55273438 C7.51732422 17.54595703 7.47800781 18.53917969 7.4375 19.5625 C7.37272461 21.05813477 7.37272461 21.05813477 7.30664062 22.58398438 C7.20019702 25.0558415 7.09818072 27.5278031 7 30 C4.69 30 2.38 30 0 30 C0 20.1 0 10.2 0 0 Z " fill="#072666" transform="translate(504,215)"/>
<path d="M0 0 C2.31 0 4.62 0 7 0 C7.01458252 0.62567871 7.02916504 1.25135742 7.04418945 1.89599609 C7.11852804 4.72296402 7.21523234 7.54873208 7.3125 10.375 C7.33505859 11.35984375 7.35761719 12.3446875 7.38085938 13.359375 C7.41630859 14.30039063 7.45175781 15.24140625 7.48828125 16.2109375 C7.51446533 17.08024902 7.54064941 17.94956055 7.56762695 18.84521484 C7.81345218 21.38600027 7.81345218 21.38600027 11 23 C12.98 23 14.96 23 17 23 C17.33 15.41 17.66 7.82 18 0 C19.98 0 21.96 0 24 0 C24 9.9 24 19.8 24 30 C21.33333333 30 18.66666667 30 16 30 C14.9275 30.226875 13.855 30.45375 12.75 30.6875 C8.29164277 31.05902977 6.57241291 30.67930968 3 28 C-0.01388973 21.69565183 -0.38347413 16.41436945 -0.1875 9.5 C-0.17396484 8.5821875 -0.16042969 7.664375 -0.14648438 6.71875 C-0.11148097 4.47853197 -0.06238869 2.23959406 0 0 Z " fill="#072666" transform="translate(570,215)"/>
<path d="M0 0 C1.98 0 3.96 0 6 0 C6 67.32 6 134.64 6 204 C3.69 204 1.38 204 -1 204 C-1 199.38 -1 194.76 -1 190 C-0.67 190 -0.34 190 0 190 C0.1953125 192.05078125 0.390625 194.1015625 0.5859375 196.15234375 C0.72257812 196.76207031 0.85921875 197.37179687 1 198 C1.66 198.33 2.32 198.66 3 199 C3.33 133.99 3.66 68.98 4 2 C2.68 1.67 1.36 1.34 0 1 C0 0.67 0 0.34 0 0 Z " fill="#0E285C" transform="translate(381,82)"/>
<path d="M0 0 C2.36185168 1.09708729 3.96522046 2.3304373 6 4 C5.25 5.9375 5.25 5.9375 4 8 C1.9375 8.8125 1.9375 8.8125 0 9 C-0.33 8.67 -0.66 8.34 -1 8 C-4.45812169 7.66661404 -4.45812169 7.66661404 -8 8 C-10.06520632 11.09780948 -10.29477024 11.9540481 -10.3125 15.5 C-10.32925781 16.2734375 -10.34601562 17.046875 -10.36328125 17.84375 C-10.15192237 20.06868871 -10.15192237 20.06868871 -8.703125 21.796875 C-6.8605402 23.36775151 -6.8605402 23.36775151 -3.4375 22.75 C-0.16037491 22.18280091 -0.16037491 22.18280091 2 21 C3.32 21.99 4.64 22.98 6 24 C5.9375 25.8125 5.9375 25.8125 5 28 C0.21946932 30.88823729 -3.41109417 31.43110328 -8.9140625 30.5859375 C-11.94754395 29.73383597 -13.82828315 28.239583 -16 26 C-17.68618252 22.62763497 -17.35296693 18.89238024 -17.4375 15.1875 C-17.48326172 14.37990234 -17.52902344 13.57230469 -17.57617188 12.74023438 C-17.68663755 6.87594779 -17.68663755 6.87594779 -15.70361328 4.34619141 C-10.6294602 0.05576279 -6.4673999 -0.83415376 0 0 Z " fill="#072565" transform="translate(620,120)"/>
<path d="M0 0 C2.41534564 1.08453755 3.9518276 2.27522324 6 4 C5.25 5.9375 5.25 5.9375 4 8 C1.9375 8.8125 1.9375 8.8125 0 9 C-0.33 8.67 -0.66 8.34 -1 8 C-2.34747084 7.76924918 -3.70377565 7.58846937 -5.0625 7.4375 C-6.361875 7.293125 -7.66125 7.14875 -9 7 C-9.96847302 9.90541905 -10.19582812 11.96637454 -10.25 15 C-10.27578125 15.86625 -10.3015625 16.7325 -10.328125 17.625 C-10.18166268 20.03999588 -10.18166268 20.03999588 -8.71484375 21.80078125 C-5.9623193 23.72566737 -3.24668947 23.18377488 0 23 C0 22.34 0 21.68 0 21 C2.4375 21.75 2.4375 21.75 5 23 C5.66015625 25.078125 5.66015625 25.078125 6 27 C0.92340276 30.22301677 -2.93684505 31.62834807 -8.94921875 30.62109375 C-11.94126531 29.71493108 -13.84290507 28.22450415 -16 26 C-17.68460589 22.63078823 -17.31092974 18.8890138 -17.375 15.1875 C-17.41238281 14.37990234 -17.44976563 13.57230469 -17.48828125 12.74023438 C-17.55360096 8.30938042 -17.45609147 6.57271421 -14.6015625 2.98828125 C-9.89950499 -0.60533327 -5.80373335 -0.68331417 0 0 Z " fill="#082563" transform="translate(729,215)"/>
<path d="M0 0 C2.31 0 4.62 0 7 0 C7 2.64 7 5.28 7 8 C8.32 8 9.64 8 11 8 C11 9.98 11 11.96 11 14 C9.68 14 8.36 14 7 14 C7 19.61 7 25.22 7 31 C8.32 31 9.64 31 11 31 C11 33.31 11 35.62 11 38 C4.77293935 38.47900467 4.77293935 38.47900467 1.78125 36.625 C-0.99246547 32.5374193 -0.42528283 28.56353626 -0.25 23.75 C-0.23195313 22.81414062 -0.21390625 21.87828125 -0.1953125 20.9140625 C-0.14825673 18.60832985 -0.08253713 16.30469055 0 14 C-0.99 14 -1.98 14 -3 14 C-3 12.02 -3 10.04 -3 8 C-2.01 8 -1.02 8 0 8 C0 5.36 0 2.72 0 0 Z " fill="#092664" transform="translate(584,160)"/>
<path d="M0 0 C2.31 0 4.62 0 7 0 C7 2.64 7 5.28 7 8 C8.32 8 9.64 8 11 8 C11 10.31 11 12.62 11 15 C9.68 15 8.36 15 7 15 C7.33 20.28 7.66 25.56 8 31 C8.99 31.33 9.98 31.66 11 32 C11 33.98 11 35.96 11 38 C4.54782609 38.36521739 4.54782609 38.36521739 2.125 36.75 C-0.61106978 32.49389146 -0.11860741 27.63566089 -0.0625 22.75 C-0.05798828 22.00492188 -0.05347656 21.25984375 -0.04882812 20.4921875 C-0.03709246 18.6614236 -0.0191585 16.83070127 0 15 C-0.66 15 -1.32 15 -2 15 C-2 12.69 -2 10.38 -2 8 C-1.34 8 -0.68 8 0 8 C0 5.36 0 2.72 0 0 Z " fill="#062565" transform="translate(624,207)"/>
<path d="M0 0 C2.31 0 4.62 0 7 0 C7 11.22 7 22.44 7 34 C8.32 34 9.64 34 11 34 C11 36.31 11 38.62 11 41 C7.12913737 41.45010031 5.49797841 41.37151924 2.32348633 39.00317383 C-0.62671072 35.18995812 -0.64481671 32.2566986 -0.48828125 27.63671875 C-0.48120651 26.84473587 -0.47413177 26.05275299 -0.46684265 25.23677063 C-0.43896244 22.71936611 -0.376242 20.20422644 -0.3125 17.6875 C-0.28740861 15.9759437 -0.26459691 14.26435235 -0.24414062 12.55273438 C-0.18915747 8.36762346 -0.10293418 4.18419504 0 0 Z " fill="#0B265E" transform="translate(637,157)"/>
<path d="M0 0 C0.81251221 -0.00451172 1.62502441 -0.00902344 2.4621582 -0.01367188 C6.44070268 -0.00375341 10.11684561 0.13855352 14 1.125 C14 1.785 14 2.445 14 3.125 C14.556875 3.33125 15.11375 3.5375 15.6875 3.75 C18.93653549 5.68185894 20.8038546 8.07479805 23 11.125 C23 12.445 23 13.765 23 15.125 C21.80375 14.7125 20.6075 14.3 19.375 13.875 C5.25331573 9.18252811 -9.08950292 4.99154191 -24 4.125 C-23.67 3.135 -23.34 2.145 -23 1.125 C-15.32225313 0.35309008 -7.71249698 0.01783065 0 0 Z " fill="#919292" transform="translate(130,166.875)"/>
<path d="M0 0 C0 3 0 3 -1.625 5.25 C-4 7 -4 7 -7.125 6.6875 C-8.07375 6.460625 -9.0225 6.23375 -10 6 C-10.99 6.495 -10.99 6.495 -12 7 C-12.33 14.26 -12.66 21.52 -13 29 C-15.31 29 -17.62 29 -20 29 C-20 19.1 -20 9.2 -20 -1 C-16.66666667 -1 -13.33333333 -1 -10 -1 C-6.06329512 -2.31223496 -3.87511856 -1.24296256 0 0 Z " fill="#052567" transform="translate(492,169)"/>
<path d="M0 0 C1.98 0 3.96 0 6 0 C6.33 11.22 6.66 22.44 7 34 C8.32 34.33 9.64 34.66 11 35 C11 36.98 11 38.96 11 41 C3.46540596 41.37055381 3.46540596 41.37055381 1.39360046 39.72099304 C-1.00784809 36.75538248 -0.36224997 33.04440108 -0.29296875 29.39453125 C-0.28872391 28.55532639 -0.28447906 27.71612152 -0.28010559 26.85148621 C-0.26331464 24.17149755 -0.2256623 21.4922613 -0.1875 18.8125 C-0.17245367 16.99545357 -0.15876518 15.17839535 -0.14648438 13.36132812 C-0.11340982 8.90726224 -0.06162513 4.45375868 0 0 Z " fill="#0A2662" transform="translate(605,204)"/>
<path d="M0 0 C1.98 0 3.96 0 6 0 C6.33 11.22 6.66 22.44 7 34 C8.32 34.33 9.64 34.66 11 35 C11 36.98 11 38.96 11 41 C3.46540596 41.37055381 3.46540596 41.37055381 1.39360046 39.72099304 C-1.00784809 36.75538248 -0.36224997 33.04440108 -0.29296875 29.39453125 C-0.28872391 28.55532639 -0.28447906 27.71612152 -0.28010559 26.85148621 C-0.26331464 24.17149755 -0.2256623 21.4922613 -0.1875 18.8125 C-0.17245367 16.99545357 -0.15876518 15.17839535 -0.14648438 13.36132812 C-0.11340982 8.90726224 -0.06162513 4.45375868 0 0 Z " fill="#0A255F" transform="translate(471,109)"/>
<path d="M0 0 C7.71586944 0.91410937 14.72572291 3.41270345 22 6 C22.65742187 6.23380371 23.31484375 6.46760742 23.9921875 6.70849609 C34.19226742 10.3697402 44.11739302 14.55808356 54 19 C50.69930006 20.12490222 49.04025994 19.89608423 45.875 18.5 C43.87241403 17.58449271 43.87241403 17.58449271 42 17 C41.01 17.495 41.01 17.495 40 18 C40.66 19.65 41.32 21.3 42 23 C38.37721599 21.67678456 35.42658912 20.05005306 32.25 17.875 C26.76988791 14.31069945 21.08396987 11.57451917 15.1574707 8.85888672 C9.95334593 6.47109108 4.95250281 3.88145618 0 1 C0 0.67 0 0.34 0 0 Z " fill="#092560" transform="translate(46,60)"/>
<path d="M0 0 C3 2.375 3 2.375 5 5 C5 5.66 5 6.32 5 7 C5.66 7 6.32 7 7 7 C7.054138 9.24973447 7.09285491 11.49984383 7.125 13.75 C7.14820313 15.00296875 7.17140625 16.2559375 7.1953125 17.546875 C7.01521852 20.73093657 6.85250451 22.44654783 5 25 C2.375 25.75 2.375 25.75 0 26 C0 26.66 0 27.32 0 28 C-1.65 27.67 -3.3 27.34 -5 27 C-2.9413783 23.91206745 -2.1446688 23.52161393 1 22 C2.35119149 19.29761702 2.13237128 17.13985554 2.125 14.125 C2.12757813 13.07570312 2.13015625 12.02640625 2.1328125 10.9453125 C2.08822255 7.79022605 2.08822255 7.79022605 1 4 C-3.455 4.495 -3.455 4.495 -8 5 C-8 5.99 -8 6.98 -8 8 C-8.99 8.495 -8.99 8.495 -10 9 C-10.65772428 12.02934491 -10.65772428 12.02934491 -11 15 C-11.99 15.33 -12.98 15.66 -14 16 C-14.87456095 12.02472294 -15.22554499 9.61728101 -13.8125 5.75 C-10.2748778 0.38257321 -6.50245429 -1.41637618 0 0 Z " fill="#03256A" transform="translate(486,216)"/>
<path d="M0 0 C2.31 0 4.62 0 7 0 C7 9.9 7 19.8 7 30 C4.69 30 2.38 30 0 30 C0 20.1 0 10.2 0 0 Z " fill="#0B2660" transform="translate(499,168)"/>
<path d="M0 0 C1.98 0 3.96 0 6 0 C6 9.9 6 19.8 6 30 C4.02 30 2.04 30 0 30 C0 20.1 0 10.2 0 0 Z " fill="#06266B" transform="translate(587,120)"/>
<path d="M0 0 C3.3125 -0.25 3.3125 -0.25 7 0 C8.9375 1.875 8.9375 1.875 10 4 C10 4.66 10 5.32 10 6 C10.66 6 11.32 6 12 6 C12 12.93 12 19.86 12 27 C10.35 26.67 8.7 26.34 7 26 C6.98018066 25.40461426 6.96036133 24.80922852 6.93994141 24.19580078 C6.84483874 21.50507847 6.73510158 18.81514852 6.625 16.125 C6.5940625 15.18785156 6.563125 14.25070313 6.53125 13.28515625 C6.49257813 12.38925781 6.45390625 11.49335938 6.4140625 10.5703125 C6.3826416 9.74289551 6.3512207 8.91547852 6.31884766 8.06298828 C6.17400863 5.78013915 6.17400863 5.78013915 4 4 C1.93125966 3.3574765 1.93125966 3.3574765 0 3 C0 2.01 0 1.02 0 0 Z " fill="#04246A" transform="translate(689,217)"/>
<path d="M0 0 C0.99 0 1.98 0 3 0 C3 0.66 3 1.32 3 2 C3.66 2.33 4.32 2.66 5 3 C4.67 3.33 4.34 3.66 4 4 C3.84235595 5.77869726 3.74899323 7.56318476 3.68359375 9.34765625 C3.64169922 10.42724609 3.59980469 11.50683594 3.55664062 12.61914062 C3.51732422 13.75544922 3.47800781 14.89175781 3.4375 16.0625 C3.37272461 17.77276367 3.37272461 17.77276367 3.30664062 19.51757812 C3.20017161 22.34492195 3.09815793 25.17235738 3 28 C1.35 27.67 -0.3 27.34 -2 27 C-2.05827558 23.4375692 -2.09368885 19.87526181 -2.125 16.3125 C-2.14175781 15.30509766 -2.15851562 14.29769531 -2.17578125 13.25976562 C-2.18544922 11.79506836 -2.18544922 11.79506836 -2.1953125 10.30078125 C-2.20578613 9.40528564 -2.21625977 8.50979004 -2.22705078 7.5871582 C-1.97703456 4.73831743 -1.18016512 2.59105457 0 0 Z " fill="#032569" transform="translate(552,169)"/>
<path d="M0 0 C1.32 0.33 2.64 0.66 4 1 C4.08742801 5.20820145 4.14053641 9.41616776 4.1875 13.625 C4.22520508 15.40970703 4.22520508 15.40970703 4.26367188 17.23046875 C4.35493909 28.12168962 4.35493909 28.12168962 1 33 C0.67 33 0.34 33 0 33 C0 22.11 0 11.22 0 0 Z " fill="#03256C" transform="translate(639,158)"/>
<path d="M0 0 C1.32 0.66 2.64 1.32 4 2 C3.83250244 2.56170898 3.66500488 3.12341797 3.49243164 3.70214844 C2.96080248 6.18290882 2.97515645 8.23604506 3.12109375 10.765625 C3.16943359 11.65507812 3.21777344 12.54453125 3.26757812 13.4609375 C3.32365234 14.38132813 3.37972656 15.30171875 3.4375 16.25 C3.48970703 17.18585938 3.54191406 18.12171875 3.59570312 19.0859375 C3.72506825 21.39098887 3.86002034 23.69557289 4 26 C2.35 26.33 0.7 26.66 -1 27 C-1.02886537 22.68751391 -1.04675255 18.37505238 -1.0625 14.0625 C-1.07087891 12.83080078 -1.07925781 11.59910156 -1.08789062 10.33007812 C-1.09111328 9.16025391 -1.09433594 7.99042969 -1.09765625 6.78515625 C-1.10289307 5.70113525 -1.10812988 4.61711426 -1.11352539 3.50024414 C-1 1 -1 1 0 0 Z " fill="#02256B" transform="translate(680,217)"/>
<path d="M0 0 C4.5394636 0.69276955 5.98266668 1.90789718 8.91796875 5.4453125 C10.16629726 7.76022055 11.03735489 9.95023991 11.91796875 12.4453125 C10.91796875 13.4453125 10.91796875 13.4453125 8.10546875 13.8203125 C4.91796875 13.4453125 4.91796875 13.4453125 2.66796875 11.0703125 C2.09046875 10.2040625 1.51296875 9.3378125 0.91796875 8.4453125 C0.25796875 7.7853125 -0.40203125 7.1253125 -1.08203125 6.4453125 C0.56796875 6.4453125 2.21796875 6.4453125 3.91796875 6.4453125 C2.90036402 4.30656173 2.90036402 4.30656173 0.91796875 2.4453125 C-4.19159463 1.85574749 -8.28490127 2.87890271 -13.08203125 4.4453125 C-9.09434343 -0.35326878 -5.96481145 -0.21795901 0 0 Z " fill="#0B275D" transform="translate(450.08203125,108.5546875)"/>
<path d="M0 0 C9.90525083 2.48324916 19.44137573 5.40631075 29 9 C29 9.33 29 9.66 29 10 C27.02 10 25.04 10 23 10 C23 9.34 23 8.68 23 8 C21.35 8 19.7 8 18 8 C18 8.66 18 9.32 18 10 C20.97 10.495 20.97 10.495 24 11 C24.33 11.99 24.66 12.98 25 14 C20.41592192 12.59328291 16.19844123 10.73682646 11.9375 8.5625 C11.33873047 8.26279297 10.73996094 7.96308594 10.12304688 7.65429688 C3.12519993 4.12088237 3.12519993 4.12088237 0 2 C0 1.34 0 0.68 0 0 Z " fill="#09235C" transform="translate(84,15)"/>
<path d="M0 0 C0.495 0.99 0.495 0.99 1 2 C-0.65 2 -2.3 2 -4 2 C-4.495 0.515 -4.495 0.515 -5 -1 C-6.299375 -1.144375 -7.59875 -1.28875 -8.9375 -1.4375 C-12.875 -1.875 -12.875 -1.875 -14 -3 C-15.77869726 -3.15764405 -17.56318476 -3.25100677 -19.34765625 -3.31640625 C-20.42724609 -3.35830078 -21.50683594 -3.40019531 -22.61914062 -3.44335938 C-24.32360352 -3.50233398 -24.32360352 -3.50233398 -26.0625 -3.5625 C-27.20267578 -3.60568359 -28.34285156 -3.64886719 -29.51757812 -3.69335938 C-32.34492195 -3.79982839 -35.17235738 -3.90184207 -38 -4 C-38 -3.01 -38 -2.02 -38 -1 C-38.88751953 -0.90912109 -38.88751953 -0.90912109 -39.79296875 -0.81640625 C-43.90978208 -0.37987629 -47.95544533 0.08671346 -52 1 C-40.82481527 -11.66049409 -13.12871352 -6.91553634 0 0 Z " fill="#0E255B" transform="translate(313,101)"/>
<path d="M0 0 C0.66 0 1.32 0 2 0 C2 0.66 2 1.32 2 2 C2.66 2 3.32 2 4 2 C4 1.34 4 0.68 4 0 C4.99 0.33 5.98 0.66 7 1 C7 7.93 7 14.86 7 22 C5.68 22 4.36 22 3 22 C3 16.06 3 10.12 3 4 C2.34 4 1.68 4 1 4 C0.67 2.68 0.34 1.36 0 0 Z " fill="#032569" transform="translate(520,222)"/>
<path d="M0 0 C1.9375 0.375 1.9375 0.375 4 1 C4.33 1.66 4.66 2.32 5 3 C6.74965358 3.05429959 8.49979787 3.09292823 10.25 3.125 C11.22453125 3.14820313 12.1990625 3.17140625 13.203125 3.1953125 C16.0196498 2.99862781 17.60949036 2.44568916 20 1 C20 2.65 20 4.3 20 6 C15.20770772 8.55588921 10.29299114 8.58248228 5 8 C1.375 6.5 1.375 6.5 -1 5 C-0.67 3.35 -0.34 1.7 0 0 Z " fill="#04256A" transform="translate(523,141)"/>
<path d="M0 0 C7.28599085 1.37130335 13.747381 3.73838441 20.5625 6.625 C21.57119141 7.04523437 22.57988281 7.46546875 23.61914062 7.8984375 C26.08227192 8.92571501 28.54236676 9.95965415 31 11 C27.52128379 12.15957207 26.65780355 11.77456651 23.3125 10.5625 C22.50425781 10.27503906 21.69601563 9.98757812 20.86328125 9.69140625 C20.24839844 9.46324219 19.63351563 9.23507813 19 9 C19 9.33 19 9.66 19 10 C19 10.99 19 11.98 19 13 C16.76471449 11.78102834 14.53724827 10.55044684 12.3125 9.3125 C11.68666016 8.97283203 11.06082031 8.63316406 10.41601562 8.28320312 C6.28177136 5.96716053 3.2030671 3.49703884 0 0 Z " fill="#0D2559" transform="translate(68,36)"/>
<path d="M0 0 C0.99 0 1.98 0 3 0 C3 9.57 3 19.14 3 29 C1.02 29 -0.96 29 -3 29 C-3 26.36 -3 23.72 -3 21 C-1.68 21.33 -0.36 21.66 1 22 C0.67 14.74 0.34 7.48 0 0 Z " fill="#0B265F" transform="translate(590,121)"/>
<path d="M0 0 C3.53586014 3.17320782 5.58578031 5.16743695 6 10 C1.76140737 12.7140852 -2.51835388 15.35421772 -6.875 17.875 C-7.61492187 18.30554688 -8.35484375 18.73609375 -9.1171875 19.1796875 C-9.73851562 19.45039063 -10.35984375 19.72109375 -11 20 C-11.66 19.67 -12.32 19.34 -13 19 C-10.80161026 16.80161026 -8.59978365 14.60931261 -6.375 12.4375 C-3.89526499 10.04154383 -3.89526499 10.04154383 -2 7 C0 7 0 7 1.625 8.5 C2.07875 8.995 2.5325 9.49 3 10 C3 8.68 3 7.36 3 6 C2.34 5.67 1.68 5.34 1 5 C0.375 2.4375 0.375 2.4375 0 0 Z " fill="#0A2360" transform="translate(332,118)"/>
<path d="M0 0 C2.9375 1.5 2.9375 1.5 5 4 C5.12073255 6.87562977 4.61800917 9.14765 4 12 C3.67 11.34 3.34 10.68 3 10 C2.01 9.67 1.02 9.34 0 9 C0 7.68 0 6.36 0 5 C-3.3 5 -6.6 5 -10 5 C-10.33 4.01 -10.66 3.02 -11 2 C-7.17369543 0.19938608 -4.22501011 -0.52812626 0 0 Z " fill="#03246B" transform="translate(621,168)"/>
<path d="M0 0 C0.33 0 0.66 0 1 0 C1 4.29 1 8.58 1 13 C-10.625 13.125 -10.625 13.125 -14 12 C-14 11.34 -14 10.68 -14 10 C-13.39671875 9.91363281 -12.7934375 9.82726562 -12.171875 9.73828125 C-6.79969098 8.79723725 -6.79969098 8.79723725 -2.5 5.5625 C-0.89024005 3.01463004 -0.89024005 3.01463004 0 0 Z " fill="#03256B" transform="translate(624,184)"/>
<path d="M0 0 C0.825 0.309375 1.65 0.61875 2.5 0.9375 C6.39126155 2.11877583 9.96166953 2.58224168 14 3 C14 3.33 14 3.66 14 4 C10.33333333 4 6.66666667 4 3 4 C3.33 4.99 3.66 5.98 4 7 C8.29 7 12.58 7 17 7 C17 6.34 17 5.68 17 5 C18.32 5.33 19.64 5.66 21 6 C16.21081475 9.79831934 12.05666283 10.61210954 6 10 C3.07019925 9.26754981 0.76350543 8.30902889 -2 7 C-2.33 6.01 -2.66 5.02 -3 4 C-1.5625 1.8125 -1.5625 1.8125 0 0 Z " fill="#0D265A" transform="translate(555,141)"/>
<path d="M0 0 C0.99 0 1.98 0 3 0 C4.09506492 3.28519475 4.09960608 5.73663415 4.0625 9.1875 C4.05347656 10.27417969 4.04445313 11.36085937 4.03515625 12.48046875 C4.02355469 13.31191406 4.01195312 14.14335937 4 15 C2.35 15.66 0.7 16.32 -1 17 C-1.02684679 14.35409986 -1.04676357 11.70846904 -1.0625 9.0625 C-1.07087891 8.30775391 -1.07925781 7.55300781 -1.08789062 6.77539062 C-1.09652441 4.85005687 -1.05224333 2.92464419 -1 1 C-0.67 0.67 -0.34 0.34 0 0 Z " fill="#03256B" transform="translate(457,165)"/>
<path d="M0 0 C-0.804375 0.28875 -1.60875 0.5775 -2.4375 0.875 C-5.1326468 1.73262568 -5.1326468 1.73262568 -6 4 C-6.99 4.495 -6.99 4.495 -8 5 C-6.02 5 -4.04 5 -2 5 C-2 5.66 -2 6.32 -2 7 C-8.7831364 8.42002108 -15.06697907 9.22731216 -22 9 C-19.8862402 5.8293603 -19.30122013 5.44725526 -15.9375 4.140625 C-15.14085937 3.82996094 -14.34421875 3.51929688 -13.5234375 3.19921875 C-12.69070312 2.88597656 -11.85796875 2.57273438 -11 2.25 C-10.16726562 1.92128906 -9.33453125 1.59257812 -8.4765625 1.25390625 C-2.26013049 -1.13006525 -2.26013049 -1.13006525 0 0 Z " fill="#8B8B8B" transform="translate(59,226)"/>
<path d="M0 0 C2.31 0 4.62 0 7 0 C7 0.99 7 1.98 7 3 C5.35 3 3.7 3 2 3 C2 11.25 2 19.5 2 28 C3.32 28.33 4.64 28.66 6 29 C6 22.4 6 15.8 6 9 C6.33 9 6.66 9 7 9 C7 15.93 7 22.86 7 30 C4.69 30 2.38 30 0 30 C0 20.1 0 10.2 0 0 Z " fill="#0F2557" transform="translate(504,215)"/>
<path d="M0 0 C2.31 0 4.62 0 7 0 C6.67 1.32 6.34 2.64 6 4 C4.35 3.01 2.7 2.02 1 1 C1 9.91 1 18.82 1 28 C2.32 28 3.64 28 5 28 C5.33 21.4 5.66 14.8 6 8 C6.33 8 6.66 8 7 8 C7 15.26 7 22.52 7 30 C4.69 30 2.38 30 0 30 C0 20.1 0 10.2 0 0 Z " fill="#11275B" transform="translate(472,168)"/>
<path d="M0 0 C1.32 0.33 2.64 0.66 4 1 C4.33 3.97 4.66 6.94 5 10 C6.32 10 7.64 10 9 10 C8.67 11.65 8.34 13.3 8 15 C4.92463146 14.34099246 2.92264434 13.46132217 0 12 C0 8.04 0 4.08 0 0 Z " fill="#052369" transform="translate(585,182)"/>
<path d="M0 0 C9.78585462 -0.57563851 9.78585462 -0.57563851 14 3 C16.53800996 6.69083843 16.33217249 10.62135539 16.3125 14.9375 C16.32861328 15.64068359 16.34472656 16.34386719 16.36132812 17.06835938 C16.36554607 21.56890303 15.79707834 24.44606517 13 28 C9.22433034 30.38031348 6.46192275 31.39369907 2 31 C5 29 5 29 8 29 C8 28.34 8 27.68 8 27 C8.804375 26.731875 9.60875 26.46375 10.4375 26.1875 C11.283125 25.795625 12.12875 25.40375 13 25 C14.15570704 21.53287889 14.32835293 18.4585044 14.5625 14.8125 C14.64628906 13.54019531 14.73007812 12.26789063 14.81640625 10.95703125 C14.87699219 9.98121094 14.93757813 9.00539062 15 8 C14.34 8 13.68 8 13 8 C12.731875 7.38125 12.46375 6.7625 12.1875 6.125 C11.04443152 3.7004767 11.04443152 3.7004767 8 2 C5.9507906 1.54860541 5.9507906 1.54860541 3.8125 1.375 C1.9253125 1.189375 1.9253125 1.189375 0 1 C0 0.67 0 0.34 0 0 Z " fill="#0E2756" transform="translate(478,215)"/>
<path d="M0 0 C0 0.66 0 1.32 0 2 C-0.66 2 -1.32 2 -2 2 C-2 2.66 -2 3.32 -2 4 C-0.1746875 3.87625 -0.1746875 3.87625 1.6875 3.75 C5.16639526 3.72528316 5.93832664 3.95888443 9 6 C9.66 6.66 10.32 7.32 11 8 C10.3915625 7.87882813 9.783125 7.75765625 9.15625 7.6328125 C0.81252355 6.03768833 -7.56846838 4.99443409 -16 4 C-15.67 3.01 -15.34 2.02 -15 1 C-12.8750734 0.83240016 -10.75005624 0.66594799 -8.625 0.5 C-7.44164063 0.4071875 -6.25828125 0.314375 -5.0390625 0.21875 C-3.36213157 0.09804546 -1.68126944 0 0 0 Z " fill="#8B8C8B" transform="translate(122,167)"/>
<path d="M0 0 C0.99 0 1.98 0 3 0 C3.05441656 1.89551022 3.09298035 3.7914792 3.125 5.6875 C3.14820313 6.74324219 3.17140625 7.79898438 3.1953125 8.88671875 C2.99858729 12.02251859 2.33057654 14.17645373 1 17 C0.01 17 -0.98 17 -2 17 C-2.21824777 10.9981863 -1.5056904 5.80766296 0 0 Z " fill="#04246D" transform="translate(502,179)"/>
<path d="M0 0 C-0.99 0.99 -1.98 1.98 -3 3 C-2.34 3.66 -1.68 4.32 -1 5 C-4.08404808 4.88979143 -7.16691192 4.75924186 -10.25 4.625 C-11.55904297 4.57859375 -11.55904297 4.57859375 -12.89453125 4.53125 C-13.73886719 4.49257812 -14.58320312 4.45390625 -15.453125 4.4140625 C-16.22817383 4.3826416 -17.00322266 4.3512207 -17.80175781 4.31884766 C-20.20865742 3.96973494 -21.89602295 3.19448896 -24 2 C-15.92437827 0.56205146 -8.2056037 -0.29599372 0 0 Z " fill="#838383" transform="translate(107,184)"/>
<path d="M0 0 C0.66 0 1.32 0 2 0 C2 0.66 2 1.32 2 2 C2.66 2.33 3.32 2.66 4 3 C3.67 6.3 3.34 9.6 3 13 C2.01 13 1.02 13 0 13 C0 15.64 0 18.28 0 21 C-0.33 21 -0.66 21 -1 21 C-1.02888146 17.68751813 -1.04675799 14.37506833 -1.0625 11.0625 C-1.07087891 10.11697266 -1.07925781 9.17144531 -1.08789062 8.19726562 C-1.09111328 7.29814453 -1.09433594 6.39902344 -1.09765625 5.47265625 C-1.10289307 4.64000244 -1.10812988 3.80734863 -1.11352539 2.94946289 C-1 1 -1 1 0 0 Z " fill="#06276C" transform="translate(434,165)"/>
<path d="M0 0 C2 2 2 2 3.3125 4.5 C5.32957528 7.48825967 6.522498 8.17202333 10 9 C13.37932259 8.68564441 14.57479454 8.42520546 17 6 C19.125 5.375 19.125 5.375 21 5 C19.68 4.01 18.36 3.02 17 2 C17.66 1.67 18.32 1.34 19 1 C20.32 1.99 21.64 2.98 23 4 C22.9375 5.8125 22.9375 5.8125 22 8 C17.22598965 10.88429792 13.58220016 11.45196555 8.0859375 10.5703125 C4.90455466 9.70049622 3.15045552 8.4864642 1 6 C0.1875 2.75 0.1875 2.75 0 0 Z " fill="#0D2657" transform="translate(603,140)"/>
<path d="M0 0 C1.58468677 0.45363171 3.16769924 0.91311452 4.75 1.375 C5.63171875 1.63023438 6.5134375 1.88546875 7.421875 2.1484375 C9.76080572 2.9209934 11.83442562 3.83625676 14 5 C13.67 5.99 13.34 6.98 13 8 C10.125 8.125 10.125 8.125 7 8 C6.34 7.34 5.68 6.68 5 6 C2.42938689 5.35232207 2.42938689 5.35232207 0 5 C-0.5625 3.0625 -0.5625 3.0625 -1 1 C-0.67 0.67 -0.34 0.34 0 0 Z " fill="#04256C" transform="translate(70,103)"/>
<path d="M0 0 C4.62 0 9.24 0 14 0 C14 0.66 14 1.32 14 2 C7.88888889 6.58333333 7.88888889 6.58333333 4 7 C3.34 6.67 2.68 6.34 2 6 C2 5.01 2 4.02 2 3 C1.01 2.67 0.02 2.34 -1 2 C-0.67 1.34 -0.34 0.68 0 0 Z " fill="#04256C" transform="translate(718,239)"/>
<path d="M0 0 C2.31 0 4.62 0 7 0 C7 6.6 7 13.2 7 20 C6.67 20 6.34 20 6 20 C6 14.06 6 8.12 6 2 C4.35 2.33 2.7 2.66 1 3 C1.17402344 3.52078125 1.34804688 4.0415625 1.52734375 4.578125 C2.14457418 7.74079331 1.85094328 10.54507464 1.5625 13.75 C1.46066406 14.92046875 1.35882812 16.0909375 1.25390625 17.296875 C1.17011719 18.18890625 1.08632813 19.0809375 1 20 C0.67 20 0.34 20 0 20 C0 13.4 0 6.8 0 0 Z " fill="#0F2555" transform="translate(570,215)"/>
<path d="M0 0 C6.21963149 2.43154318 11.74840437 5.71014781 17.4375 9.1875 C18.35982422 9.74630859 19.28214844 10.30511719 20.23242188 10.88085938 C22.49075657 12.24990165 24.74649947 13.62302027 27 15 C26.01 15.33 25.02 15.66 24 16 C21.44140625 14.63671875 21.44140625 14.63671875 18.5625 12.6875 C13.23638904 9.11502013 9.40383297 6.87324995 3 6 C3 4.68 3 3.36 3 2 C2.01 2 1.02 2 0 2 C0 1.34 0 0.68 0 0 Z " fill="#0D2359" transform="translate(140,37)"/>
<path d="M0 0 C6.6772895 0.60702632 12.70127996 2.77631394 19 5 C18.01 5.33 17.02 5.66 16 6 C16 6.66 16 7.32 16 8 C10.04675579 6.60668753 5.24258516 4.11464243 0 1 C0 0.67 0 0.34 0 0 Z " fill="#0B2459" transform="translate(46,60)"/>
<path d="M0 0 C1.32 0.33 2.64 0.66 4 1 C0.34190461 4.7800319 -1.47444101 6.16062785 -6.75 6.3125 C-11.78513261 6.29060812 -14.18924396 5.20905771 -18 2 C-15 1 -15 1 -12.875 1.9375 C-8.89501329 3.40836465 -5.19744212 3.16460557 -1 3 C-0.67 2.01 -0.34 1.02 0 0 Z " fill="#0C2459" transform="translate(535,192)"/>
<path d="M0 0 C0.33 1.32 0.66 2.64 1 4 C2.98 4 4.96 4 7 4 C7 5.65 7 7.3 7 9 C1.375 9.25 1.375 9.25 -2 7 C-1.125 2.25 -1.125 2.25 0 0 Z " fill="#08246C" transform="translate(475,140)"/>
<path d="M0 0 C2.25 0.0625 2.25 0.0625 5 1 C6.67849824 3.2308475 7.75999263 5.47405906 9 8 C7 10 7 10 4.375 10.125 C3.59125 10.08375 2.8075 10.0425 2 10 C1.67 8.68 1.34 7.36 1 6 C-1.31 5.34 -3.62 4.68 -6 4 C-5.67 3.34 -5.34 2.68 -5 2 C-1.37 3.65 2.26 5.3 6 7 C5.195625 6.21625 4.39125 5.4325 3.5625 4.625 C1 2 1 2 0 0 Z " fill="#0C2459" transform="translate(143,129)"/>
<path d="M0 0 C0.79670486 2.23077361 0.99992751 4.00275461 0.9375 6.375 C1.01287368 9.5406945 1.90136108 12.04740791 3 15 C-0.03656917 12.4011345 -1.46163739 9.37928272 -3.1875 5.8125 C-3.71730469 4.72582031 -4.24710938 3.63914063 -4.79296875 2.51953125 C-5.19128906 1.68808594 -5.58960938 0.85664063 -6 0 C-2.25 -1.125 -2.25 -1.125 0 0 Z " fill="#0D2962" transform="translate(205,242)"/>
<path d="M0 0 C3.63 0 7.26 0 11 0 C11.66 1.65 12.32 3.3 13 5 C11.68 4.67 10.36 4.34 9 4 C9 3.34 9 2.68 9 2 C8.01 2 7.02 2 6 2 C6 2.66 6 3.32 6 4 C4.02 4 2.04 4 0 4 C0 2.68 0 1.36 0 0 Z " fill="#03246C" transform="translate(527,133)"/>
<path d="M0 0 C0.66 0.33 1.32 0.66 2 1 C1.60167969 1.9178125 1.20335937 2.835625 0.79296875 3.78125 C-1.95406259 10.13559912 -4.65420437 16.48390103 -7 23 C-7.33 22.34 -7.66 21.68 -8 21 C-8.66 20.67 -9.32 20.34 -10 20 C-9.01 19.34 -8.02 18.68 -7 18 C-6.63239269 15.67182036 -6.29758419 13.3381615 -6 11 C-5.34 10.67 -4.68 10.34 -4 10 C-3.26924352 7.6859378 -2.59861742 5.35171131 -2 3 C-1.34 3 -0.68 3 0 3 C0 2.01 0 1.02 0 0 Z " fill="#0A235D" transform="translate(231,231)"/>
<path d="M0 0 C-0.86882812 0.53109375 -1.73765625 1.0621875 -2.6328125 1.609375 C-3.79691243 2.3228556 -4.96097281 3.03640073 -6.125 3.75 C-6.97964844 4.27207031 -6.97964844 4.27207031 -7.8515625 4.8046875 C-11.62662342 7.12120215 -15.32845648 9.5225451 -19 12 C-19 10.02 -19 8.04 -19 6 C-16.525 6.495 -16.525 6.495 -14 7 C-14 6.34 -14 5.68 -14 5 C-12.35 4.67 -10.7 4.34 -9 4 C-9 3.34 -9 2.68 -9 2 C-8.01 2 -7.02 2 -6 2 C-6 1.34 -6 0.68 -6 0 C-3.50907189 -1.24546405 -2.58919267 -0.7767578 0 0 Z " fill="#0A2258" transform="translate(319,139)"/>
<path d="M0 0 C2.96404505 2.80804268 5.44499019 5.18315774 7 9 C7.66 9 8.32 9 9 9 C10.625 11 10.625 11 12 13 C11.67 13.66 11.34 14.32 11 15 C10.01 14.34 9.02 13.68 8 13 C8 12.34 8 11.68 8 11 C6.68 11 5.36 11 4 11 C3.34 10.67 2.68 10.34 2 10 C1.4375 7.75 1.4375 7.75 1 5 C0.814375 4.071875 0.62875 3.14375 0.4375 2.1875 C0.293125 1.465625 0.14875 0.74375 0 0 Z " fill="#0D2661" transform="translate(216,97)"/>
<path d="M0 0 C4.03147936 1.50070487 5.44384289 3.81985395 7.625 7.4375 C8.51058594 8.88962891 8.51058594 8.88962891 9.4140625 10.37109375 C10.19910156 11.67240234 10.19910156 11.67240234 11 13 C11.99 14.485 11.99 14.485 13 16 C13 16.99 13 17.98 13 19 C10 18 10 18 8.97265625 16.36328125 C8.67230469 15.68652344 8.37195313 15.00976562 8.0625 14.3125 C6.34096372 10.62537824 4.295567 7.3668316 2 4 C1.30570621 2.6808418 0.62469505 1.35350594 0 0 Z " fill="#7B899B" transform="translate(177,211)"/>
<path d="M0 0 C2.31 0 4.62 0 7 0 C7 1.98 7 3.96 7 6 C4.69 6 2.38 6 0 6 C0 4.02 0 2.04 0 0 Z " fill="#162B61" transform="translate(499,157)"/>
<path d="M0 0 C1.8125 0.25 1.8125 0.25 4 1 C4.474375 1.680625 4.94875 2.36125 5.4375 3.0625 C6.2109375 4.0215625 6.2109375 4.0215625 7 5 C9.62625139 5.33425735 9.62625139 5.33425735 12 5 C12.66 7.97 13.32 10.94 14 14 C9.10565787 9.90473413 4.29279666 5.73642915 0 1 C0 0.67 0 0.34 0 0 Z " fill="#0F2760" transform="translate(123,148)"/>
<path d="M0 0 C1.98 0 3.96 0 6 0 C6 2.31 6 4.62 6 7 C4.02 7 2.04 7 0 7 C0 4.69 0 2.38 0 0 Z " fill="#0E2860" transform="translate(587,109)"/>
<path d="M0 0 C1.32 0 2.64 0 4 0 C5.32 2.97 6.64 5.94 8 9 C3.545 8.01 3.545 8.01 -1 7 C-0.34 6.67 0.32 6.34 1 6 C0.67 4.02 0.34 2.04 0 0 Z " fill="#03246C" transform="translate(435,185)"/>
<path d="M0 0 C3.95969176 1.67229701 7.0161201 4.36304994 10.25 7.125 C10.80429688 7.59292969 11.35859375 8.06085938 11.9296875 8.54296875 C13.28947326 9.69175328 14.64515165 10.84539653 16 12 C15.67 12.66 15.34 13.32 15 14 C10.2962963 12.51461988 10.2962963 12.51461988 8.8125 9.9375 C8.4103125 8.9784375 8.4103125 8.9784375 8 8 C7.34 7.67 6.68 7.34 6 7 C6 6.34 6 5.68 6 5 C3.36 4.67 0.72 4.34 -2 4 C-1.34 2.68 -0.68 1.36 0 0 Z " fill="#0C2359" transform="translate(182,65)"/>
<path d="M0 0 C2.50298434 2.93828597 3.46930939 5.17902761 4 9 C-0.77609498 7.35821735 -4.79382904 4.73453298 -9 2 C-8.34 1.67 -7.68 1.34 -7 1 C-4.96855359 1.93446535 -2.96466413 2.93224776 -1 4 C-0.67 2.68 -0.34 1.36 0 0 Z " fill="#81868D" transform="translate(210,263)"/>
<path d="M0 0 C6.19887485 -0.37952295 10.4477112 0.1647887 16 3 C15.67 4.32 15.34 5.64 15 7 C14.67 6.01 14.34 5.02 14 4 C13.11248047 3.92652344 13.11248047 3.92652344 12.20703125 3.8515625 C7.80895528 3.43543133 4.03071103 2.95034405 0 1 C0 0.67 0 0.34 0 0 Z " fill="#0E2559" transform="translate(529,120)"/>
<path d="M0 0 C0 0.33 0 0.66 0 1 C-0.969375 1.309375 -1.93875 1.61875 -2.9375 1.9375 C-5.84065792 2.69523342 -5.84065792 2.69523342 -7 4 C-7.07226502 5.85287502 -7.0838122 7.70833878 -7.0625 9.5625 C-7.05347656 10.57441406 -7.04445313 11.58632812 -7.03515625 12.62890625 C-7.02355469 13.41136719 -7.01195312 14.19382813 -7 15 C-7.66 15 -8.32 15 -9 15 C-10.72973286 11.54053429 -10.47703703 7.78270206 -10 4 C-7.29698633 -0.26244464 -4.85478777 -0.44134434 0 0 Z " fill="#0E2757" transform="translate(613,180)"/>
<path d="M0 0 C1.32 0.33 2.64 0.66 4 1 C4 1.66 4 2.32 4 3 C4.66 3 5.32 3 6 3 C6 3.66 6 4.32 6 5 C5.34 5 4.68 5 4 5 C4 5.66 4 6.32 4 7 C-1.75 6.25 -1.75 6.25 -4 4 C-4 3.01 -4 2.02 -4 1 C-2.02 1.66 -0.04 2.32 2 3 C1.34 2.01 0.68 1.02 0 0 Z " fill="#0A265F" transform="translate(167,112)"/>
<path d="M0 0 C1.0828125 0.7115625 1.0828125 0.7115625 2.1875 1.4375 C4.89475226 2.94152903 6.96194275 3.56599182 10 4 C9.34 5.65 8.68 7.3 8 9 C4.05860922 7.33248852 1.2107188 4.77289351 -2 2 C-1.34 1.34 -0.68 0.68 0 0 Z " fill="#08255D" transform="translate(108,94)"/>
<path d="M0 0 C3.58620225 1.65517027 6.81530529 3.66455721 10 6 C10.33 6.99 10.66 7.98 11 9 C11.99 9.33 12.98 9.66 14 10 C15.1875 12.0625 15.1875 12.0625 16 14 C15.01 13.67 14.02 13.34 13 13 C13 12.34 13 11.68 13 11 C12.1028125 10.566875 12.1028125 10.566875 11.1875 10.125 C9 9 9 9 6 7 C6 6.34 6 5.68 6 5 C5.38125 4.731875 4.7625 4.46375 4.125 4.1875 C2 3 2 3 0 0 Z " fill="#0D2459" transform="translate(107,134)"/>
<path d="M0 0 C0 0.66 0 1.32 0 2 C-0.99 2 -1.98 2 -3 2 C-3 2.66 -3 3.32 -3 4 C-1.3603125 3.690625 -1.3603125 3.690625 0.3125 3.375 C4 3 4 3 7 5 C4.01503209 5.94396421 1.12820109 6.75232831 -2 7 C-4.5625 5.125 -4.5625 5.125 -6 3 C-2.25 0 -2.25 0 0 0 Z " fill="#0D265A" transform="translate(651,216)"/>
<path d="M0 0 C2.31 0 4.62 0 7 0 C7.99 2.97 8.98 5.94 10 9 C9.01 8.67 8.02 8.34 7 8 C5.8125 4.9375 5.8125 4.9375 5 2 C3.68 2.33 2.36 2.66 1 3 C0.67 2.01 0.34 1.02 0 0 Z " fill="#0D2559" transform="translate(739,215)"/>
<path d="M0 0 C1.125 1.5625 1.125 1.5625 2 4 C1.33167514 7.80945172 0.81030714 10.21501495 -2 12.9375 C-4 14 -4 14 -6 14 C-5.6875 12.125 -5.6875 12.125 -5 10 C-4.01 9.34 -3.02 8.68 -2 8 C-1.21011855 6.04614933 -1.21011855 6.04614933 -0.8125 3.875 C-0.544375 2.59625 -0.27625 1.3175 0 0 Z " fill="#0E2458" transform="translate(560,231)"/>
<path d="M0 0 C4.2164401 1.56164448 6.41869823 4.41485865 9 8 C9 9.32 9 10.64 9 12 C8.34 12 7.68 12 7 12 C6.67 10.35 6.34 8.7 6 7 C5.38125 6.95875 4.7625 6.9175 4.125 6.875 C3.42375 6.58625 2.7225 6.2975 2 6 C0.75 2.9375 0.75 2.9375 0 0 Z " fill="#7E8A98" transform="translate(144,170)"/>
<path d="M0 0 C1.093125 0.0825 2.18625 0.165 3.3125 0.25 C0.5625 7 0.5625 7 -1.6875 9.25 C-1.6875 6.94 -1.6875 4.63 -1.6875 2.25 C-3.3375 2.91 -4.9875 3.57 -6.6875 4.25 C-4.79150483 0.68106792 -4.16790733 0.28256999 0 0 Z " fill="#091E5E" transform="translate(458.6875,137.75)"/>
<path d="M0 0 C-0.33 1.32 -0.66 2.64 -1 4 C-3.97 4 -6.94 4 -10 4 C-10 3.01 -10 2.02 -10 1 C-6.78548731 -0.60725635 -3.56387464 -0.05748185 0 0 Z " fill="#04266A" transform="translate(567,133)"/>
<path d="M0 0 C0 0.33 0 0.66 0 1 C-1.093125 1.12375 -2.18625 1.2475 -3.3125 1.375 C-7.07381802 1.75464801 -7.07381802 1.75464801 -10 4 C-9.67 5.32 -9.34 6.64 -9 8 C-11.475 7.01 -11.475 7.01 -14 6 C-14 5.01 -14 4.02 -14 3 C-8.99067246 -0.00559652 -5.67276511 -0.29341888 0 0 Z " fill="#0F2656" transform="translate(504,120)"/>
<path d="M0 0 C3.17695511 1.46517108 5.84934394 3.24916309 8.625 5.375 C9.78902344 6.25285156 9.78902344 6.25285156 10.9765625 7.1484375 C13.00573879 9.00525132 13.96650634 10.47738645 15 13 C11.12207603 11.38419835 8.28921212 8.75734641 5.25 5.9375 C4.74339844 5.47794922 4.23679688 5.01839844 3.71484375 4.54492188 C2.45382769 3.38757425 1.22393107 2.19649813 0 1 C0 0.67 0 0.34 0 0 Z " fill="#0E2359" transform="translate(137,84)"/>
<path d="M0 0 C3.3 0 6.6 0 10 0 C10 0.99 10 1.98 10 3 C6.37 3 2.74 3 -1 3 C-0.67 2.01 -0.34 1.02 0 0 Z " fill="#7A7A7A" transform="translate(107,168)"/>
<path d="M0 0 C0.33 0.66 0.66 1.32 1 2 C2.32 2 3.64 2 5 2 C5 4.31 5 6.62 5 9 C1.6875 9.25 1.6875 9.25 -2 9 C-3.9375 7 -3.9375 7 -5 5 C-4.236875 5.309375 -3.47375 5.61875 -2.6875 5.9375 C-0.81210323 6.67893593 1.08684652 7.36228217 3 8 C3.33 6.35 3.66 4.7 4 3 C2.68 3 1.36 3 0 3 C0 2.01 0 1.02 0 0 Z " fill="#112755" transform="translate(590,189)"/>
<path d="M0 0 C1.32 0.33 2.64 0.66 4 1 C2.3970551 2.29318256 0.79259858 3.58449156 -0.8125 4.875 C-1.70582031 5.59429687 -2.59914063 6.31359375 -3.51953125 7.0546875 C-6 9 -6 9 -9 11 C-7.63029745 8.04987143 -6.17390875 5.4347778 -4 3 C-3.01 3 -2.02 3 -1 3 C-0.67 2.01 -0.34 1.02 0 0 Z " fill="#0A2557" transform="translate(289,156)"/>
<path d="M0 0 C0.66 0 1.32 0 2 0 C1.71758359 1.46015291 1.42373386 2.91809793 1.125 4.375 C0.96257812 5.18710937 0.80015625 5.99921875 0.6328125 6.8359375 C0 9 0 9 -2 11 C-2.33 8.69 -2.66 6.38 -3 4 C-3.66 4 -4.32 4 -5 4 C-4.67 3.34 -4.34 2.68 -4 2 C-3.01 2.33 -2.02 2.66 -1 3 C-0.67 2.01 -0.34 1.02 0 0 Z " fill="#07245E" transform="translate(221,255)"/>
<path d="M0 0 C1.65 0 3.3 0 5 0 C4.75 1.875 4.75 1.875 4 4 C1.04454879 6.11103658 -1.43855901 6.19785783 -5 6 C-5 5.34 -5 4.68 -5 4 C-3.35 4 -1.7 4 0 4 C0 2.68 0 1.36 0 0 Z " fill="#0E265B" transform="translate(748,251)"/>
<path d="M0 0 C6.69286912 -0.47617251 10.77531236 -0.39973696 16 4 C15.67 4.99 15.34 5.98 15 7 C14.566875 6.38125 14.13375 5.7625 13.6875 5.125 C9.60847459 1.89972409 5.0626647 1.66338365 0 1 C0 0.67 0 0.34 0 0 Z " fill="#0F2351" transform="translate(719,215)"/>
<path d="M0 0 C0.66 0.33 1.32 0.66 2 1 C1.25 2.9375 1.25 2.9375 0 5 C-2.125 5.75 -2.125 5.75 -4 6 C-4 8.31 -4 10.62 -4 13 C-4.66 13 -5.32 13 -6 13 C-5.63076923 5.73846154 -5.63076923 5.73846154 -2.4375 2 C-1.633125 1.34 -0.82875 0.68 0 0 Z " fill="#09265C" transform="translate(439,205)"/>
<path d="M0 0 C-0.66 1.32 -1.32 2.64 -2 4 C-5.375 4.125 -5.375 4.125 -9 4 C-9.66 3.34 -10.32 2.68 -11 2 C-7.17679443 0.57741188 -4.08718695 -0.24042276 0 0 Z " fill="#838383" transform="translate(78,204)"/>
<path d="M0 0 C0.99 0.33 1.98 0.66 3 1 C-0.26463823 4.26463823 -3.49210523 4.57159403 -7.87890625 5.08203125 C-10 5 -10 5 -13 3 C-12.22914063 2.95101562 -11.45828125 2.90203125 -10.6640625 2.8515625 C-9.66117187 2.77679688 -8.65828125 2.70203125 -7.625 2.625 C-6.62726563 2.55539063 -5.62953125 2.48578125 -4.6015625 2.4140625 C-1.84491121 2.23636036 -1.84491121 2.23636036 0 0 Z " fill="#0D2558" transform="translate(454,146)"/>
<path d="M0 0 C0.66 0.33 1.32 0.66 2 1 C-3.96583144 8.66742597 -3.96583144 8.66742597 -9 10 C-7.84906278 6.54718834 -6.6794007 5.61917837 -3.9375 3.3125 C-2.83728516 2.37857422 -2.83728516 2.37857422 -1.71484375 1.42578125 C-1.14894531 0.95527344 -0.58304688 0.48476562 0 0 Z " fill="#0F265C" transform="translate(253,106)"/>
<path d="M0 0 C2.31 0 4.62 0 7 0 C7 2.64 7 5.28 7 8 C5 4.25 5 4.25 5 2 C3.68 2 2.36 2 1 2 C0.67 3.32 0.34 4.64 0 6 C0 4.02 0 2.04 0 0 Z " fill="#092255" transform="translate(624,207)"/>
<path d="M0 0 C1.46067199 0.45082469 2.91848032 0.91093537 4.375 1.375 C5.18710938 1.63023438 5.99921875 1.88546875 6.8359375 2.1484375 C9 3 9 3 11 5 C8.36 5.66 5.72 6.32 3 7 C3 6.01 3 5.02 3 4 C1.56009377 1.82967524 1.56009377 1.82967524 0 0 Z " fill="#0A235E" transform="translate(112,120)"/>
<path d="M0 0 C1.65 0 3.3 0 5 0 C6 3 6 3 5 6 C3.68 5.67 2.36 5.34 1 5 C0.67 3.35 0.34 1.7 0 0 Z " fill="#04236E" transform="translate(434,115)"/>
<path d="M0 0 C0.66 0.66 1.32 1.32 2 2 C1.625 5.625 1.625 5.625 1 9 C-0.32 8.67 -1.64 8.34 -3 8 C-2.01 5.36 -1.02 2.72 0 0 Z " fill="#02276E" transform="translate(757,222)"/>
<path d="M0 0 C7.20759389 -0.61081304 7.20759389 -0.61081304 11 2.3125 C13 5 13 5 13 8 C12.34 8 11.68 8 11 8 C10.443125 7.030625 9.88625 6.06125 9.3125 5.0625 C7.23611251 1.63315935 7.23611251 1.63315935 3.25 1.125 C1.64125 1.063125 1.64125 1.063125 0 1 C0 0.67 0 0.34 0 0 Z " fill="#112850" transform="translate(688,215)"/>
<path d="M0 0 C4.75 0.75 4.75 0.75 7 3 C7.1953125 5.3828125 7.1953125 5.3828125 7.125 8.125 C7.10695313 9.03507813 7.08890625 9.94515625 7.0703125 10.8828125 C7.04710937 11.58148438 7.02390625 12.28015625 7 13 C6.67 13 6.34 13 6 13 C5.51171875 11.01432292 5.0234375 9.02864583 4.53515625 7.04296875 C3.46675172 2.7699388 3.46675172 2.7699388 0 0 Z " fill="#122859" transform="translate(570,133)"/>
<path d="M0 0 C0.33 1.32 0.66 2.64 1 4 C0.0409375 4.37125 0.0409375 4.37125 -0.9375 4.75 C-3.18741541 5.81562433 -3.18741541 5.81562433 -3.75 8.125 C-3.8325 8.74375 -3.915 9.3625 -4 10 C-4.99 9.67 -5.98 9.34 -7 9 C-5.27404519 5.54809037 -2.71685562 2.71685562 0 0 Z " fill="#0C2359" transform="translate(243,116)"/>
<path d="M0 0 C1.29608947 0.93137592 2.58671632 1.8703566 3.875 2.8125 C4.59429687 3.33457031 5.31359375 3.85664063 6.0546875 4.39453125 C8 6 8 6 10 9 C9.01 9.495 9.01 9.495 8 10 C7.4225 9.38125 6.845 8.7625 6.25 8.125 C4.19750179 6.18652947 2.56633418 5.09985751 0 4 C0 2.68 0 1.36 0 0 Z " fill="#2D4168" transform="translate(153,179)"/>
<path d="M0 0 C0.99 0.33 1.98 0.66 3 1 C2.01 1.66 1.02 2.32 0 3 C-0.25660094 6.07921132 -0.39431504 8.21136993 1 11 C-0.32 10.67 -1.64 10.34 -3 10 C-2.88637738 8.5199159 -2.75877092 7.04089926 -2.625 5.5625 C-2.55539062 4.73878906 -2.48578125 3.91507812 -2.4140625 3.06640625 C-2.27742188 2.38449219 -2.14078125 1.70257813 -2 1 C-1.34 0.67 -0.68 0.34 0 0 Z " fill="#0D2456" transform="translate(298,119)"/>
<path d="M0 0 C1.65 0 3.3 0 5 0 C5 0.66 5 1.32 5 2 C6.32 2 7.64 2 9 2 C9 2.99 9 3.98 9 5 C8.01 5 7.02 5 6 5 C6 4.34 6 3.68 6 3 C3.03 2.505 3.03 2.505 0 2 C0 1.34 0 0.68 0 0 Z " fill="#03256E" transform="translate(102,23)"/>
<path d="M0 0 C5 2 5 2 10 4 C10 4.33 10 4.66 10 5 C6.63295715 5.2295711 4.58629732 5.33943529 1.625 3.625 C1.08875 3.08875 0.5525 2.5525 0 2 C0 1.34 0 0.68 0 0 Z " fill="#0E245B" transform="translate(124,59)"/>
<path d="M0 0 C1.98 0.66 3.96 1.32 6 2 C3 3 3 3 0 2 C0 3.32 0 4.64 0 6 C-0.99 5.67 -1.98 5.34 -3 5 C-1.125 1.125 -1.125 1.125 0 0 Z " fill="#102353" transform="translate(539,236)"/>
<path d="M0 0 C2.31 0 4.62 0 7 0 C6.67 1.65 6.34 3.3 6 5 C5.67 4.34 5.34 3.68 5 3 C4.34 2.835 3.68 2.67 3 2.5 C2.34 2.335 1.68 2.17 1 2 C0.67 1.34 0.34 0.68 0 0 Z " fill="#0A2155" transform="translate(759,215)"/>
<path d="M0 0 C2.5 2.3125 2.5 2.3125 5 5 C5 5.99 5 6.98 5 8 C3.68 7.67 2.36 7.34 1 7 C0.67 4.69 0.34 2.38 0 0 Z " fill="#858C97" transform="translate(165,194)"/>
<path d="M0 0 C0.33 0.66 0.66 1.32 1 2 C0.22265625 3.9453125 0.22265625 3.9453125 -0.9375 6.125 C-1.31777344 6.84945312 -1.69804687 7.57390625 -2.08984375 8.3203125 C-2.39019531 8.87460938 -2.69054687 9.42890625 -3 10 C-4.26339822 6.20980534 -3.49719015 4.62477616 -2 1 C-1.34 0.67 -0.68 0.34 0 0 Z " fill="#0C2556" transform="translate(238,219)"/>
<path d="M0 0 C2.475 0.495 2.475 0.495 5 1 C5 1.99 5 2.98 5 4 C3.35 4 1.7 4 0 4 C0 2.68 0 1.36 0 0 Z " fill="#042469" transform="translate(500,158)"/>
<path d="M0 0 C2.64 0.66 5.28 1.32 8 2 C7.67 2.99 7.34 3.98 7 5 C4.0625 4.1875 4.0625 4.1875 1 3 C0.67 2.01 0.34 1.02 0 0 Z " fill="#10244D" transform="translate(84,15)"/>
<path d="M0 0 C0.33 0 0.66 0 1 0 C1 1.98 1 3.96 1 6 C-1.64 6 -4.28 6 -7 6 C-7.33 5.01 -7.66 4.02 -8 3 C-5.36 3.66 -2.72 4.32 0 5 C0 3.35 0 1.7 0 0 Z " fill="#142762" transform="translate(615,239)"/>
<path d="M0 0 C0.66 0 1.32 0 2 0 C2 0.66 2 1.32 2 2 C3.32 2.33 4.64 2.66 6 3 C5.67 3.66 5.34 4.32 5 5 C3.125 4.6875 3.125 4.6875 1 4 C0.34 3.01 -0.32 2.02 -1 1 C-0.67 0.67 -0.34 0.34 0 0 Z " fill="#032573" transform="translate(440,238)"/>
<path d="M0 0 C2.875 0.25 2.875 0.25 6 1 C7.375 3.0625 7.375 3.0625 8 5 C6.68 5 5.36 5 4 5 C3.67 4.01 3.34 3.02 3 2 C2.01 1.34 1.02 0.68 0 0 Z " fill="#0E275E" transform="translate(617,168)"/>
<path d="M0 0 C1.32 0 2.64 0 4 0 C4.66 1.98 5.32 3.96 6 6 C5.01 6.495 5.01 6.495 4 7 C0 2.25 0 2.25 0 0 Z " fill="#0A2354" transform="translate(181,86)"/>
<path d="M0 0 C1.98 0.99 1.98 0.99 4 2 C4.625 4.0625 4.625 4.0625 5 6 C5.66 6.33 6.32 6.66 7 7 C6.01 7.33 5.02 7.66 4 8 C2.68 5.36 1.36 2.72 0 0 Z " fill="#132C61" transform="translate(194,234)"/>
<path d="M0 0 C2 1 2 1 2 1 Z M-3 1 C0 2 0 2 4 4 C1.03 4 -1.94 4 -5 4 C-4.34 3.01 -3.68 2.02 -3 1 Z " fill="#7C7C7C" transform="translate(42,231)"/>
<path d="M0 0 C2 1.8125 2 1.8125 4 4 C4 4.99 4 5.98 4 7 C3.01 6.67 2.02 6.34 1 6 C0.67 4.02 0.34 2.04 0 0 Z " fill="#848DA2" transform="translate(186,223)"/>
<path d="M0 0 C1.65 0 3.3 0 5 0 C5 1.32 5 2.64 5 4 C3.35 4 1.7 4 0 4 C0 2.66666667 0 1.33333333 0 0 Z " fill="#25366C" transform="translate(139,164)"/>
<path d="M0 0 C0.66 0.33 1.32 0.66 2 1 C0.35 2.98 -1.3 4.96 -3 7 C-3.33 5.68 -3.66 4.36 -4 3 C-2.68 2.01 -1.36 1.02 0 0 Z " fill="#0F2657" transform="translate(526,121)"/>
<path d="M0 0 C1.32 0.33 2.64 0.66 4 1 C3 3 3 3 1.1875 3.8125 C-1 4 -1 4 -3.25 2.5625 C-3.8275 2.046875 -4.405 1.53125 -5 1 C-2.525 1.495 -2.525 1.495 0 2 C0 1.34 0 0.68 0 0 Z " fill="#0B2758" transform="translate(60,97)"/>
<path d="M0 0 C4.43090471 1.20842856 6.98112756 2.51668565 10 6 C5.56909529 4.79157144 3.01887244 3.48331435 0 0 Z " fill="#0E2958" transform="translate(159,78)"/>
<path d="M0 0 C2.31 0.33 4.62 0.66 7 1 C7.33 1.99 7.66 2.98 8 4 C5.64828869 3.40138258 3.3140622 2.73075648 1 2 C0.67 1.34 0.34 0.68 0 0 Z " fill="#16294D" transform="translate(46,60)"/>
</svg>
