<?xml version="1.0" encoding="UTF-8"?>
<svg version="1.1" xmlns="http://www.w3.org/2000/svg" width="232" height="145">
<path d="M0 0 C1.50046875 0.00386719 1.50046875 0.00386719 3.03125 0.0078125 C4.0315625 0.00523438 5.031875 0.00265625 6.0625 0 C8.53125 0.1328125 8.53125 0.1328125 9.53125 1.1328125 C9.76317865 2.64750698 9.94340238 4.17035812 10.09375 5.6953125 C10.17753906 6.52160156 10.26132813 7.34789062 10.34765625 8.19921875 C10.40824219 8.83730469 10.46882812 9.47539063 10.53125 10.1328125 C13.23841242 11.03519997 14.76901768 11.25132552 17.54296875 11.23046875 C18.30029297 11.22724609 19.05761719 11.22402344 19.83789062 11.22070312 C20.62357422 11.21232422 21.40925781 11.20394531 22.21875 11.1953125 C23.01603516 11.19080078 23.81332031 11.18628906 24.63476562 11.18164062 C26.60029257 11.169871 28.56578085 11.15193598 30.53125 11.1328125 C30.62212891 10.06740234 30.62212891 10.06740234 30.71484375 8.98046875 C30.79863281 8.06136719 30.88242188 7.14226563 30.96875 6.1953125 C31.04996094 5.27878906 31.13117188 4.36226562 31.21484375 3.41796875 C31.53125 1.1328125 31.53125 1.1328125 32.53125 0.1328125 C34.86285055 0.03371948 37.19754942 0.00310746 39.53125 0.0078125 C40.81 0.00523438 42.08875 0.00265625 43.40625 0 C46.53125 0.1328125 46.53125 0.1328125 47.53125 1.1328125 C47.62998816 3.13080822 47.66096799 5.13238408 47.65625 7.1328125 C47.66011719 8.7725 47.66011719 8.7725 47.6640625 10.4453125 C47.53125 13.1328125 47.53125 13.1328125 46.53125 14.1328125 C44.18137738 14.36809023 41.82568961 14.54667667 39.46875 14.6953125 C37.53322266 14.82099609 37.53322266 14.82099609 35.55859375 14.94921875 C34.55957031 15.00980469 33.56054688 15.07039063 32.53125 15.1328125 C33.02625 18.1028125 33.02625 18.1028125 33.53125 21.1328125 C34.15773437 21.18179688 34.78421875 21.23078125 35.4296875 21.28125 C36.24695313 21.35601562 37.06421875 21.43078125 37.90625 21.5078125 C38.71835938 21.57742187 39.53046875 21.64703125 40.3671875 21.71875 C42.53125 22.1328125 42.53125 22.1328125 44.53125 24.1328125 C44.76171875 26.69921875 44.76171875 26.69921875 44.71875 29.6953125 C44.71230469 30.68660156 44.70585937 31.67789063 44.69921875 32.69921875 C44.53125 35.1328125 44.53125 35.1328125 43.53125 36.1328125 C41.70009117 36.23132421 39.86505067 36.26253879 38.03125 36.2578125 C37.0309375 36.26039062 36.030625 36.26296875 35 36.265625 C32.53125 36.1328125 32.53125 36.1328125 31.53125 35.1328125 C30.87125 32.1628125 30.21125 29.1928125 29.53125 26.1328125 C23.26125 26.1328125 16.99125 26.1328125 10.53125 26.1328125 C10.20125 29.1028125 9.87125 32.0728125 9.53125 35.1328125 C8.53125 36.1328125 8.53125 36.1328125 6.28125 36.265625 C5.37375 36.26304688 4.46625 36.26046875 3.53125 36.2578125 C2.17 36.26167969 2.17 36.26167969 0.78125 36.265625 C-1.46875 36.1328125 -1.46875 36.1328125 -2.46875 35.1328125 C-2.56748816 33.13481678 -2.59846799 31.13324092 -2.59375 29.1328125 C-2.59632812 28.0396875 -2.59890625 26.9465625 -2.6015625 25.8203125 C-2.46875 23.1328125 -2.46875 23.1328125 -1.46875 22.1328125 C0.05053038 22.06101286 1.57292482 22.04889243 3.09375 22.0703125 C3.92003906 22.07933594 4.74632812 22.08835937 5.59765625 22.09765625 C6.55478516 22.11505859 6.55478516 22.11505859 7.53125 22.1328125 C7.20125 19.8228125 6.87125 17.5128125 6.53125 15.1328125 C5.89316406 15.07222656 5.25507813 15.01164062 4.59765625 14.94921875 C3.77136719 14.86542969 2.94507812 14.78164063 2.09375 14.6953125 C1.27003906 14.61410156 0.44632812 14.53289063 -0.40234375 14.44921875 C-2.46875 14.1328125 -2.46875 14.1328125 -3.46875 13.1328125 C-3.56748816 11.13481678 -3.59846799 9.13324092 -3.59375 7.1328125 C-3.59632812 6.0396875 -3.59890625 4.9465625 -3.6015625 3.8203125 C-3.42186534 0.18408769 -3.42186534 0.18408769 0 0 Z M39.53125 4.1328125 C39.86125 4.7928125 40.19125 5.4528125 40.53125 6.1328125 C41.19125 6.1328125 41.85125 6.1328125 42.53125 6.1328125 C42.53125 5.4728125 42.53125 4.8128125 42.53125 4.1328125 C41.54125 4.1328125 40.55125 4.1328125 39.53125 4.1328125 Z " fill="#030303" transform="translate(123.46875,47.8671875)"/>
<path d="M0 0 C0.97195312 -0.02320313 1.94390625 -0.04640625 2.9453125 -0.0703125 C7.67042482 -0.0316876 11.07820691 0.18113649 14.6875 3.421875 C16.54610834 5.69091757 17.02506517 6.8602586 17.6953125 9.80859375 C16.75033034 13.80618684 14.99648183 15.18629329 11.875 17.8125 C10.87597656 18.66714844 9.87695312 19.52179688 8.84765625 20.40234375 C7.90792969 21.17707031 6.96820313 21.95179687 6 22.75 C5.31808594 23.32878906 4.63617188 23.90757813 3.93359375 24.50390625 C2.63559272 25.60173362 1.32049199 26.67933082 0 27.75 C1.60681641 27.84087891 1.60681641 27.84087891 3.24609375 27.93359375 C4.64324391 28.01798537 6.04037857 28.10263406 7.4375 28.1875 C8.14455078 28.22681641 8.85160156 28.26613281 9.58007812 28.30664062 C14.88671875 28.63671875 14.88671875 28.63671875 16 29.75 C16.125 32.75 16.125 32.75 16 35.75 C15 36.75 15 36.75 11.94897461 36.86352539 C10.60008729 36.86336634 9.25119386 36.85767612 7.90234375 36.84765625 C6.83905602 36.84553383 6.83905602 36.84553383 5.75428772 36.84336853 C3.48198288 36.83775443 1.20977525 36.82519963 -1.0625 36.8125 C-2.59960796 36.80748681 -4.13671745 36.80292359 -5.67382812 36.79882812 C-9.44925642 36.78778042 -13.22461171 36.77050641 -17 36.75 C-17.37129249 30.30518431 -17.37129249 30.30518431 -15.73413086 27.85717773 C-15.15026611 27.38739502 -14.56640137 26.9176123 -13.96484375 26.43359375 C-13.31966797 25.89669922 -12.67449219 25.35980469 -12.00976562 24.80664062 C-10.98399414 24.00516602 -10.98399414 24.00516602 -9.9375 23.1875 C-9.28072266 22.64931641 -8.62394531 22.11113281 -7.94726562 21.55664062 C-6.6304908 20.47857178 -5.30806696 19.40736447 -3.97998047 18.34326172 C-1.98941746 16.74148438 -0.02029697 15.11895773 1.93359375 13.47265625 C2.50005615 12.99707275 3.06651855 12.52148926 3.65014648 12.03149414 C5.13154699 10.77087144 5.13154699 10.77087144 6 8.75 C1.38 8.75 -3.24 8.75 -8 8.75 C-8 10.4 -8 12.05 -8 13.75 C-9 14.75 -9 14.75 -12.5 14.875 C-16 14.75 -16 14.75 -17 13.75 C-17.62576059 9.19088715 -17.41567217 7.31695186 -14.66015625 3.55859375 C-10.34832021 -0.49709362 -5.64331467 -0.13472104 0 0 Z " fill="#020202" transform="translate(102,47.25)"/>
<path d="M0 0 C2.33437855 2.57509385 3.31514203 4.55831201 4.12109375 7.9296875 C3.21677928 12.29841795 -0.12218958 14.42396849 -3.37109375 17.296875 C-9.4968576 22.80524588 -9.4968576 22.80524588 -11.80859375 30.484375 C-11.68484375 31.845625 -11.56109375 33.206875 -11.43359375 34.609375 C-14.73359375 34.609375 -18.03359375 34.609375 -21.43359375 34.609375 C-22.16688478 29.25906635 -22.77087108 24.55528497 -19.60546875 19.94921875 C-17.3109352 17.67367968 -14.97199508 15.60778141 -12.43359375 13.609375 C-8.4786187 10.76564632 -8.4786187 10.76564632 -6.43359375 6.609375 C-12.37359375 6.609375 -18.31359375 6.609375 -24.43359375 6.609375 C-24.43359375 5.949375 -24.43359375 5.289375 -24.43359375 4.609375 C-25.42359375 4.609375 -26.41359375 4.609375 -27.43359375 4.609375 C-27.43359375 3.289375 -27.43359375 1.969375 -27.43359375 0.609375 C-19.37707785 -1.63662887 -7.67596344 -4.38626482 0 0 Z " fill="#020202" transform="translate(80.43359375,49.390625)"/>
<path d="M0 0 C2.31 0 4.62 0 7 0 C7 1.32 7 2.64 7 4 C5.02 4 3.04 4 1 4 C0.67 2.68 0.34 1.36 0 0 Z " fill="#131315" transform="translate(173,48)"/>
</svg>
