<?xml version="1.0" encoding="UTF-8"?>
<svg version="1.1" xmlns="http://www.w3.org/2000/svg" width="301" height="196">
<path d="M0 0 C0.7528125 -0.00515625 1.505625 -0.0103125 2.28125 -0.015625 C4.7296721 0.27749596 6.37304054 1.03183231 8.5 2.25 C9.16 1.59 9.82 0.93 10.5 0.25 C13.95835879 -0.22682157 17.44997512 -0.12037157 20.9375 -0.125 C22.38866211 -0.16173828 22.38866211 -0.16173828 23.86914062 -0.19921875 C24.79791016 -0.20308594 25.72667969 -0.20695312 26.68359375 -0.2109375 C27.96061157 -0.22326416 27.96061157 -0.22326416 29.26342773 -0.23583984 C31.5 0.25 31.5 0.25 33.25805664 2.10693359 C34.64218479 4.49535052 35.12211143 6.52920233 35.5 9.25 C36.16 9.25 36.82 9.25 37.5 9.25 C37.5825 8.5075 37.665 7.765 37.75 7 C38.67591962 3.60496141 39.77136862 2.44658706 42.5 0.25 C46.72892593 -0.60100468 51.00737539 -0.3986156 55.3125 -0.375 C57.05756836 -0.42333984 57.05756836 -0.42333984 58.83789062 -0.47265625 C64.45083617 -0.47904549 68.43791242 -0.46242728 72.82421875 3.2890625 C74.14873047 4.75472656 74.14873047 4.75472656 75.5 6.25 C75.83 4.6 76.16 2.95 76.5 1.25 C83.02648193 -0.01409621 89.32344458 0.34600278 95.9375 0.6875 C97.05060547 0.73970703 98.16371094 0.79191406 99.31054688 0.84570312 C102.04070323 0.97459463 104.77041935 1.10952327 107.5 1.25 C108.49 3.23 108.49 3.23 109.5 5.25 C110.015625 4.59 110.53125 3.93 111.0625 3.25 C114.29995755 0.59362457 116.42552281 0.93657868 120.5 1.25 C116.75 7 116.75 7 114.5 9.25 C114.10235737 11.23821313 113.76224651 13.23944339 113.5 15.25 C111.52 15.25 109.54 15.25 107.5 15.25 C107.2525 14.156875 107.005 13.06375 106.75 11.9375 C105.79527538 8.31947185 105.79527538 8.31947185 103.75 6.3125 C100.87933889 4.95691003 98.63566218 5.03620485 95.5 5.25 C95.5 8.55 95.5 11.85 95.5 15.25 C93.19 15.25 90.88 15.25 88.5 15.25 C88.5 11.95 88.5 8.65 88.5 5.25 C86.52 5.25 84.54 5.25 82.5 5.25 C82.5 8.55 82.5 11.85 82.5 15.25 C79.31858133 15.71557346 77.24656877 15.75963377 74.54296875 13.9140625 C72.8064392 12.40741976 71.130282 10.87063536 69.5 9.25 C69.17 11.23 68.84 13.21 68.5 15.25 C61.24 15.25 53.98 15.25 46.5 15.25 C46.17 11.95 45.84 8.65 45.5 5.25 C43.85 8.55 42.2 11.85 40.5 15.25 C37.53 15.25 34.56 15.25 31.5 15.25 C29.025 10.3 29.025 10.3 26.5 5.25 C26.5 5.58 26.5 5.91 26.5 6.25 C26.2215625 7.11625 26.2215625 7.11625 25.9375 8 C25.41575303 10.68327015 25.90870551 12.60450467 26.5 15.25 C20.16666667 15.25 13.83333333 15.25 7.5 15.25 C6.86707031 15.34539062 6.23414063 15.44078125 5.58203125 15.5390625 C0.24301902 16.32934658 -3.42215383 16.08666776 -8.5 14.25 C-8.83 12.93 -9.16 11.61 -9.5 10.25 C-8.84 9.92 -8.18 9.59 -7.5 9.25 C-8.16 8.59 -8.82 7.93 -9.5 7.25 C-9.375 4.75 -9.375 4.75 -8.5 2.25 C-5.64126745 0.41134382 -3.36738251 -0.02306426 0 0 Z M-2.5 4.25 C-2.17 4.91 -1.84 5.57 -1.5 6.25 C-0.18 6.25 1.14 6.25 2.5 6.25 C2.5 5.59 2.5 4.93 2.5 4.25 C0.85 4.25 -0.8 4.25 -2.5 4.25 Z M61.5 4.25 C57.045 4.745 57.045 4.745 52.5 5.25 C52.5 5.58 52.5 5.91 52.5 6.25 C55.8 6.25 59.1 6.25 62.5 6.25 C62.17 5.59 61.84 4.93 61.5 4.25 Z M-2.5 10.25 C-1.84 10.91 -1.18 11.57 -0.5 12.25 C0.82 11.59 2.14 10.93 3.5 10.25 C1.52 10.25 -0.46 10.25 -2.5 10.25 Z M61.5 9.25 C57.045 9.745 57.045 9.745 52.5 10.25 C52.5 10.58 52.5 10.91 52.5 11.25 C55.8 11.25 59.1 11.25 62.5 11.25 C62.17 10.59 61.84 9.93 61.5 9.25 Z " fill="#F8F9F9" transform="translate(42.5,94.75)"/>
<path d="M0 0 C0.9796875 0.00515625 1.959375 0.0103125 2.96875 0.015625 C3.9484375 0.01046875 4.928125 0.0053125 5.9375 0 C8.46875 0.265625 8.46875 0.265625 10.46875 2.265625 C10.84598556 4.60191339 10.973905 6.90867186 11.125 9.26953125 C11.29515625 10.25759766 11.29515625 10.25759766 11.46875 11.265625 C14.75019519 12.90634759 18.36664996 12.40836934 21.96875 12.390625 C22.75378906 12.39449219 23.53882813 12.39835937 24.34765625 12.40234375 C28.54145323 12.50370119 28.54145323 12.50370119 32.46875 11.265625 C32.89836221 9.20630968 32.89836221 9.20630968 33.03125 6.828125 C33.37541667 2.45229167 33.37541667 2.45229167 34.46875 0.265625 C36.92737401 0.21178652 39.3848255 0.17203462 41.84375 0.140625 C42.89175781 0.11548828 42.89175781 0.11548828 43.9609375 0.08984375 C45.79772486 0.07218233 47.63476963 0.16259239 49.46875 0.265625 C51.46875 2.265625 51.46875 2.265625 51.734375 4.54296875 C51.72921875 5.42082031 51.7240625 6.29867187 51.71875 7.203125 C51.72648437 8.51603516 51.72648437 8.51603516 51.734375 9.85546875 C51.46875 12.265625 51.46875 12.265625 49.46875 15.265625 C46.4296875 15.77734375 46.4296875 15.77734375 42.84375 15.953125 C41.65523437 16.01886719 40.46671875 16.08460937 39.2421875 16.15234375 C37.86933594 16.20841797 37.86933594 16.20841797 36.46875 16.265625 C35.46657936 19.84890253 35.46657936 19.84890253 36.46875 23.265625 C38.49570382 23.65756011 38.49570382 23.65756011 40.84375 23.765625 C44.36526464 23.99503963 45.39814296 24.21855364 48.46875 26.265625 C48.83203125 28.796875 48.83203125 28.796875 48.78125 31.765625 C48.77738281 32.7453125 48.77351563 33.725 48.76953125 34.734375 C48.46875 37.265625 48.46875 37.265625 46.46875 39.265625 C43.9375 39.53125 43.9375 39.53125 40.96875 39.515625 C39.9890625 39.52078125 39.009375 39.5259375 38 39.53125 C35.46875 39.265625 35.46875 39.265625 33.46875 37.265625 C32.97375 32.810625 32.97375 32.810625 32.46875 28.265625 C25.53875 28.265625 18.60875 28.265625 11.46875 28.265625 C10.80875 31.565625 10.14875 34.865625 9.46875 38.265625 C8.46875 39.265625 8.46875 39.265625 6.25390625 39.3984375 C5.35542969 39.39585938 4.45695312 39.39328125 3.53125 39.390625 C2.63535156 39.39320312 1.73945312 39.39578125 0.81640625 39.3984375 C-1.53125 39.265625 -1.53125 39.265625 -3.53125 38.265625 C-3.53125 33.975625 -3.53125 29.685625 -3.53125 25.265625 C-0.95963542 24.77734375 1.61197917 24.2890625 4.18359375 23.80078125 C6.42164844 23.48847512 6.42164844 23.48847512 7.46875 22.265625 C7.63541667 19.765625 7.63541667 19.765625 7.46875 17.265625 C5.56451534 15.36139034 2.18401887 15.8396501 -0.40234375 15.64453125 C-2.53125 15.265625 -2.53125 15.265625 -4.53125 13.265625 C-4.796875 10.734375 -4.796875 10.734375 -4.78125 7.765625 C-4.78640625 6.7859375 -4.7915625 5.80625 -4.796875 4.796875 C-4.42652019 1.26761155 -3.52926345 0.37035481 0 0 Z M40.46875 4.265625 C41.95375 5.255625 41.95375 5.255625 43.46875 6.265625 C44.45875 7.750625 44.45875 7.750625 45.46875 9.265625 C45.46875 7.615625 45.46875 5.965625 45.46875 4.265625 C43.81875 4.265625 42.16875 4.265625 40.46875 4.265625 Z " fill="#FAFBFB" transform="translate(112.53125,46.734375)"/>
<path d="M0 0 C4.04111622 -0.17492068 8.08125454 -0.28106344 12.125 -0.375 C13.26710938 -0.42527344 14.40921875 -0.47554687 15.5859375 -0.52734375 C25.09843244 -0.69325936 25.09843244 -0.69325936 28.8046875 2.5859375 C30.72596992 5.04099029 31.06926453 6.33589571 31.7265625 9.5234375 C30.80338408 13.94079662 28.74271025 15.88624746 25.375 18.625 C24.85292969 19.07617188 24.33085938 19.52734375 23.79296875 19.9921875 C22.21231811 21.3503762 20.60952576 22.67614192 19 24 C17.02 25.65 15.04 27.3 13 29 C18.28 29.33 23.56 29.66 29 30 C29.98150241 32.94450722 30.1613058 34.93518979 30 38 C29 39 29 39 25.67358398 39.11352539 C24.19774444 39.11336629 22.72189931 39.10767314 21.24609375 39.09765625 C20.47064713 39.0962413 19.6952005 39.09482635 18.89625549 39.09336853 C16.40996506 39.08775345 13.9237634 39.07519846 11.4375 39.0625 C9.75586067 39.05748694 8.07421994 39.0529237 6.39257812 39.04882812 C2.26168434 39.03777913 -1.86914276 39.02050445 -6 39 C-6.30712891 32.37402344 -6.30712891 32.37402344 -3.54296875 29.0078125 C-2.4422569 28.02656164 -1.32251955 27.06635565 -0.1875 26.125 C0.39547852 25.61396729 0.97845703 25.10293457 1.57910156 24.57641602 C6.24671229 20.51853252 11.06750604 16.63114055 15.953125 12.83984375 C18.24691871 11.08283707 18.24691871 11.08283707 19 8 C14.38 8.33 9.76 8.66 5 9 C4.67 10.65 4.34 12.3 4 14 C0.7 14 -2.6 14 -6 14 C-6.36717663 6.5340751 -6.36717663 6.5340751 -4.625 4 C-3 3 -3 3 -1 3 C-0.67 2.01 -0.34 1.02 0 0 Z " fill="#FBFBFB" transform="translate(76,47)"/>
<path d="M0 0 C7.92 0 15.84 0 24 0 C24.99 1.98 25.98 3.96 27 6 C27.66 4.02 28.32 2.04 29 0 C31.31 0 33.62 0 36 0 C36.66 1.65 37.32 3.3 38 5 C39.93798263 2.22739701 39.93798263 2.22739701 41 0 C44 0 47 0 50 0 C50.98871094 -0.03480469 51.97742188 -0.06960937 52.99609375 -0.10546875 C54.13175781 -0.13253906 55.26742187 -0.15960938 56.4375 -0.1875 C58.13712891 -0.23970703 58.13712891 -0.23970703 59.87109375 -0.29296875 C63.30802678 0.02884146 64.65458556 0.49672113 67 3 C67.65587245 7.59110715 67.91635309 9.73606471 65.1875 13.5 C60.46728403 15.72127811 56.12863092 15.64685435 51 15 C47.875 13.6875 47.875 13.6875 46 12 C45.505 10.515 45.505 10.515 45 9 C44.01 10.98 43.02 12.96 42 15 C39.69 15 37.38 15 35 15 C34.34 13.35 33.68 11.7 33 10 C31.06201737 12.77260299 31.06201737 12.77260299 30 15 C27.69 15 25.38 15 23 15 C21.35 11.7 19.7 8.4 18 5 C16.02 5 14.04 5 12 5 C12 8.3 12 11.6 12 15 C10.02 15 8.04 15 6 15 C6 11.7 6 8.4 6 5 C4.35 5 2.7 5 1 5 C0.67 3.35 0.34 1.7 0 0 Z M52 5 C52.33 6.65 52.66 8.3 53 10 C55.35367713 10.6878236 55.35367713 10.6878236 58 11 C58.99 10.34 59.98 9.68 61 9 C60.50243908 6.24358584 60.50243908 6.24358584 59 4 C55.36805359 3.80850919 55.36805359 3.80850919 52 5 Z " fill="#F8FAFA" transform="translate(33,112)"/>
<path d="M0 0 C4.02116194 -0.00535441 8.03995765 0.02853437 12.06054688 0.09765625 C13.42600753 0.11574182 14.79165008 0.12339825 16.15722656 0.12011719 C28.95606701 0.10143275 28.95606701 0.10143275 32.9296875 3.6171875 C35.42499924 7.69443272 36.0977021 9.32327847 35 14 C32.81509755 16.75622237 30.21881082 18.95762515 27.5625 21.25 C20.94857003 27.14361969 20.94857003 27.14361969 18.5625 35.4375 C18.706875 36.943125 18.85125 38.44875 19 40 C15.37 40 11.74 40 8 40 C6.77418148 28.67820393 6.77418148 28.67820393 9.640625 24.75390625 C11.69237516 23.04791399 13.81839648 21.53380937 16 20 C17.34192868 18.34024611 18.67909475 16.67653359 20 15 C20.66 15 21.32 15 22 15 C22.66 13.35 23.32 11.7 24 10 C20.58335127 9.97091643 17.1667345 9.95317309 13.75 9.9375 C12.78191406 9.92912109 11.81382813 9.92074219 10.81640625 9.91210938 C9.88183594 9.90888672 8.94726562 9.90566406 7.984375 9.90234375 C6.69611816 9.89448853 6.69611816 9.89448853 5.38183594 9.88647461 C3.11329256 9.99460014 1.17368285 10.36417577 -1 11 C-1.66 9.68 -2.32 8.36 -3 7 C-2.34 6.67 -1.68 6.34 -1 6 C-0.34227572 2.97065509 -0.34227572 2.97065509 0 0 Z " fill="#F6F6F5" transform="translate(34,46)"/>
<path d="M0 0 C18.75383044 -0.18386108 18.75383044 -0.18386108 25.95703125 0.87890625 C28.0541513 1.09622142 28.0541513 1.09622142 30.2734375 0.5 C33.83932704 -0.15391671 37.22780985 0.13906168 40.8125 0.4375 C41.85180664 0.51581055 41.85180664 0.51581055 42.91210938 0.59570312 C44.60854437 0.72439819 46.30434863 0.86136184 48 1 C48 1.66 48 2.32 48 3 C8.57630167 4.61526758 8.57630167 4.61526758 0 3 C0 2.01 0 1.02 0 0 Z " fill="#DCEEE8" transform="translate(116,123)"/>
<path d="M0 0 C0.99 0.33 1.98 0.66 3 1 C3 1.66 3 2.32 3 3 C4.65 3 6.3 3 8 3 C8 2.01 8 1.02 8 0 C9.32 0 10.64 0 12 0 C12 1.32 12 2.64 12 4 C11.01 4.495 11.01 4.495 10 5 C10.66 5.33 11.32 5.66 12 6 C12 7.32 12 8.64 12 10 C10.68 10 9.36 10 8 10 C8 9.01 8 8.02 8 7 C6.35 7 4.7 7 3 7 C3 7.99 3 8.98 3 10 C2.01 10 1.02 10 0 10 C-0.33 9.01 -0.66 8.02 -1 7 C-0.01 6.67 0.98 6.34 2 6 C2 5.34 2 4.68 2 4 C1.01 4 0.02 4 -1 4 C-0.67 2.68 -0.34 1.36 0 0 Z " fill="#F4F8F7" transform="translate(102,112)"/>
<path d="M0 0 C3.458176 -0.0868329 6.91607344 -0.14033282 10.375 -0.1875 C11.35984375 -0.21263672 12.3446875 -0.23777344 13.359375 -0.26367188 C14.77089844 -0.27817383 14.77089844 -0.27817383 16.2109375 -0.29296875 C17.08024902 -0.3086792 17.94956055 -0.32438965 18.84521484 -0.34057617 C19.55629395 -0.22818604 20.26737305 -0.1157959 21 0 C21.66 0.99 22.32 1.98 23 3 C20.03 2.505 20.03 2.505 17 2 C17.33 3.65 17.66 5.3 18 7 C17.48953125 6.35546875 16.9790625 5.7109375 16.453125 5.046875 C13.18676112 2.32143762 10.95555161 2.40576117 6.75 2.25 C4.85507812 2.16492188 4.85507812 2.16492188 2.921875 2.078125 C1.95765625 2.05234375 0.9934375 2.0265625 0 2 C0 3.32 0 4.64 0 6 C-0.66 5.67 -1.32 5.34 -2 5 C-1.34 3.35 -0.68 1.7 0 0 Z " fill="#ECEEED" transform="translate(53,95)"/>
<path d="M0 0 C3.96 0 7.92 0 12 0 C12 0.33 12 0.66 12 1 C10.98679687 1.02126953 10.98679687 1.02126953 9.953125 1.04296875 C4.18023303 1.24502999 4.18023303 1.24502999 -0.5 4.3125 C-1.73152021 6.5189737 -2.90184338 8.72524699 -4 11 C-4.66 11.66 -5.32 12.32 -6 13 C-6.3669579 6.51707705 -6.3669579 6.51707705 -4.625 4.0625 C-3 3 -3 3 -1 3 C-0.67 2.01 -0.34 1.02 0 0 Z " fill="#F2F3F3" transform="translate(76,47)"/>
<path d="M0 0 C2.64 0 5.28 0 8 0 C8 1.32 8 2.64 8 4 C5.69 4 3.38 4 1 4 C0.67 2.68 0.34 1.36 0 0 Z " fill="#E8EDED" transform="translate(166,47)"/>
<path d="M0 0 C0.33 0 0.66 0 1 0 C1 2.31 1 4.62 1 7 C1.99 7.33 2.98 7.66 4 8 C2.68 8.33 1.36 8.66 0 9 C-0.66 7.68 -1.32 6.36 -2 5 C-1.34 4.67 -0.68 4.34 0 4 C0 2.68 0 1.36 0 0 Z " fill="#332E39" transform="translate(33,48)"/>
<path d="M0 0 C2.31 0 4.62 0 7 0 C6.67 0.99 6.34 1.98 6 3 C5.01 3.33 4.02 3.66 3 4 C2.01 3.34 1.02 2.68 0 2 C0 1.34 0 0.68 0 0 Z " fill="#D2E5DF" transform="translate(127,123)"/>
<path d="" fill="#4F5760" transform="translate(0,0)"/>
</svg>
