<?xml version="1.0" encoding="UTF-8"?>
<svg version="1.1" xmlns="http://www.w3.org/2000/svg" width="430" height="138">
<path d="M0 0 C0.78689209 0.10908691 1.57378418 0.21817383 2.38452148 0.33056641 C7.5751925 1.1982369 11.39447378 2.65688794 15.6875 5.75 C19.15209943 10.63820841 19.42860643 15.87666048 19.875 21.6875 C19.99234497 23.12101807 19.99234497 23.12101807 20.11206055 24.58349609 C21.64894728 45.16805758 23.09481336 65.34298572 9.578125 82.4140625 C7.35792576 84.94815198 5.06333174 87.36185825 2.6875 89.75 C2.09582031 90.37648438 1.50414063 91.00296875 0.89453125 91.6484375 C-5.5799391 97.96569113 -16.33490289 104.20114584 -25.3125 105.75 C-27.78725472 105.04671061 -30.0117504 104.28849526 -32.375 103.3125 C-33.37200928 102.90414917 -33.37200928 102.90414917 -34.38916016 102.48754883 C-48.73178646 96.33454489 -60.93171738 85.06543458 -67.3125 70.75 C-70.41492136 62.2640438 -70.75083108 54.21832424 -70.625 45.25 C-70.6137207 43.93515625 -70.60244141 42.6203125 -70.59082031 41.265625 C-70.48571924 33.74260122 -70.25647539 26.24341729 -69.5625 18.75 C-69.50102783 18.01072266 -69.43955566 17.27144531 -69.3762207 16.50976562 C-68.82342535 11.64745793 -67.48938068 8.46716651 -64.3125 4.75 C-47.77936455 -5.91881817 -18.41428586 -2.61639004 0 0 Z M-45.625 7.0625 C-46.62241211 7.18004639 -47.61982422 7.29759277 -48.64746094 7.41870117 C-50.05366699 7.60783081 -50.05366699 7.60783081 -51.48828125 7.80078125 C-52.73992065 7.96574097 -52.73992065 7.96574097 -54.0168457 8.1340332 C-56.74322346 8.86557113 -58.27679454 9.79891446 -60.3125 11.75 C-60.96257292 14.72439024 -61.34010165 17.36269893 -61.5625 20.375 C-61.63549316 21.24584229 -61.70848633 22.11668457 -61.78369141 23.01391602 C-64.12127349 53.13301401 -64.12127349 53.13301401 -51.8125 79.84765625 C-47.85639948 84.4404417 -43.2859479 88.99788308 -37.125 90.1640625 C-35.02211739 90.24194645 -35.02211739 90.24194645 -32.3125 89.75 C-33.37532837 84.17015103 -35.75992673 82.44020546 -40.15234375 79.37109375 C-47.89608085 73.55979014 -52.93925424 65.34938786 -54.3125 55.75 C-54.42605358 52.6443825 -54.40688057 49.5446293 -54.375 46.4375 C-54.37048828 45.60154297 -54.36597656 44.76558594 -54.36132812 43.90429688 C-54.34960548 41.85283351 -54.33167203 39.80140727 -54.3125 37.75 C-51.47286612 41.10216614 -49.37315167 44.31224807 -47.5078125 48.28515625 C-47.00636719 49.34283203 -46.50492188 50.40050781 -45.98828125 51.49023438 C-45.47652344 52.58658203 -44.96476562 53.68292969 -44.4375 54.8125 C-43.42027509 56.97052574 -42.40204768 59.12807923 -41.3828125 61.28515625 C-40.88297852 62.34492676 -40.38314453 63.40469727 -39.86816406 64.49658203 C-37.42006762 69.61637694 -34.87288968 74.68562443 -32.3125 79.75 C-31.3225 79.255 -31.3225 79.255 -30.3125 78.75 C-29.9825 79.41 -29.6525 80.07 -29.3125 80.75 C-27.6625 80.75 -26.0125 80.75 -24.3125 80.75 C-29.42466425 69.7498417 -34.68962024 58.82398136 -40.06808472 47.95172119 C-40.72712175 46.61681979 -41.3833477 45.28052661 -42.03665161 43.94281006 C-42.96957424 42.03463354 -43.91315394 40.1320791 -44.859375 38.23046875 C-45.67680176 36.57374146 -45.67680176 36.57374146 -46.51074219 34.88354492 C-47.91521406 32.44094377 -49.18678356 30.61692423 -50.99780273 28.51831055 C-53.58187448 25.42783597 -53.89033609 24.3019741 -53.625 20.375 C-53.57988281 19.50101563 -53.53476562 18.62703125 -53.48828125 17.7265625 C-53.43027344 17.07429688 -53.37226562 16.42203125 -53.3125 15.75 C-51.82430543 16.6519361 -50.34717187 17.57214129 -48.875 18.5 C-48.05128906 19.01046875 -47.22757813 19.5209375 -46.37890625 20.046875 C-44.09505407 21.9292182 -43.65735543 22.8657546 -43.3125 25.75 C-42.69375 25.585 -42.075 25.42 -41.4375 25.25 C-33.84793715 24.03566994 -27.95698773 24.64392328 -20.6875 27.25 C-10.73383113 30.78528133 -4.94582699 30.17185501 4.6875 25.75 C4.6875 26.41 4.6875 27.07 4.6875 27.75 C5.3475 28.08 6.0075 28.41 6.6875 28.75 C7.08227539 30.65185547 7.08227539 30.65185547 7.28515625 33.1171875 C7.36443359 34.00277344 7.44371094 34.88835938 7.52539062 35.80078125 C7.59951172 36.73277344 7.67363281 37.66476563 7.75 38.625 C7.90449772 40.45598946 8.06192707 42.28673453 8.22265625 44.1171875 C8.32139038 45.34091064 8.32139038 45.34091064 8.42211914 46.58935547 C8.63701984 48.92892006 8.63701984 48.92892006 9.6875 51.75 C10.0175 51.75 10.3475 51.75 10.6875 51.75 C10.88031506 46.5725727 11.05894785 41.39492013 11.22460938 36.21655273 C11.28291107 34.45600355 11.34504688 32.6955769 11.41113281 30.93530273 C11.5056016 28.40110592 11.58615016 25.86678455 11.6640625 23.33203125 C11.69625885 22.54850784 11.7284552 21.76498444 11.7616272 20.9577179 C11.87538582 16.7822993 11.82631298 13.40847286 9.6875 9.75 C-6.72166292 3.11117836 -28.46969387 4.96963835 -45.625 7.0625 Z M5.6875 29.75 C6.6875 32.75 6.6875 32.75 6.6875 32.75 Z M11.6875 29.75 C12.6875 31.75 12.6875 31.75 12.6875 31.75 Z M5.6875 40.75 C6.6875 42.75 6.6875 42.75 6.6875 42.75 Z M-31.3125 50.75 C-29.86118651 53.87830756 -28.40026843 57.00203426 -26.9375 60.125 C-26.525 61.01445313 -26.1125 61.90390625 -25.6875 62.8203125 C-25.28789063 63.67109375 -24.88828125 64.521875 -24.4765625 65.3984375 C-24.10998535 66.18395996 -23.7434082 66.96948242 -23.36572266 67.77880859 C-22.35373526 69.90238883 -22.35373526 69.90238883 -20.3125 71.75 C-19.6525 71.75 -18.9925 71.75 -18.3125 71.75 C-16.9925 74.06 -15.6725 76.37 -14.3125 78.75 C-13.06200392 76.82877395 -13.06200392 76.82877395 -13.87109375 74.98046875 C-14.16113281 74.30628906 -14.45117188 73.63210937 -14.75 72.9375 C-16.07372243 69.64896985 -16.3125 67.29185203 -16.3125 63.75 C-17.25976954 62.05280873 -18.25478261 60.38064764 -19.3125 58.75 C-19.3125 58.09 -19.3125 57.43 -19.3125 56.75 C-18.343125 56.935625 -17.37375 57.12125 -16.375 57.3125 C-15.364375 57.456875 -14.35375 57.60125 -13.3125 57.75 C-12.9825 57.42 -12.6525 57.09 -12.3125 56.75 C-11.219375 56.770625 -10.12625 56.79125 -9 56.8125 C-5.59646118 56.7548129 -4.10155434 56.53499478 -1.3125 54.75 C-4.3125 53.41666667 -4.3125 53.41666667 -7.3125 54.75 C-7.3125 54.09 -7.3125 53.43 -7.3125 52.75 C-19.35765687 48.15238852 -19.35765687 48.15238852 -31.3125 50.75 Z M-13.3125 57.75 C-13.3125 58.08 -13.3125 58.41 -13.3125 58.75 C-10.6725 58.75 -8.0325 58.75 -5.3125 58.75 C-5.3125 58.42 -5.3125 58.09 -5.3125 57.75 C-7.9525 57.75 -10.5925 57.75 -13.3125 57.75 Z M7.6875 61.75 C7.6875 64.75 7.6875 64.75 7.6875 64.75 Z M-16.3125 65.75 C-15.3125 67.75 -15.3125 67.75 -15.3125 67.75 Z M-31.3125 79.75 C-30.3125 81.75 -30.3125 81.75 -30.3125 81.75 Z M-24.3125 80.75 C-23.3125 82.75 -23.3125 82.75 -23.3125 82.75 Z M-30.3125 81.75 C-29.3125 83.75 -29.3125 83.75 -29.3125 83.75 Z M-23.3125 82.75 C-22.3125 84.75 -22.3125 84.75 -22.3125 84.75 Z M-25.3125 87.75 C-26.7975 89.73 -26.7975 89.73 -28.3125 91.75 C-26.42070797 92.4314823 -26.42070797 92.4314823 -24.3125 92.75 C-23.6525 92.09 -22.9925 91.43 -22.3125 90.75 C-23.3025 89.76 -24.2925 88.77 -25.3125 87.75 Z " fill="#062A4E" transform="translate(79.3125,20.25)"/>
<path d="M0 0 C6.69899531 0.26957728 11.57499009 0.90356395 17 5 C20.28219257 10.12148889 20.73312089 15.02271037 21.1875 20.9375 C21.30484497 22.37101807 21.30484497 22.37101807 21.42456055 23.83349609 C23.03740319 45.43538626 23.38625589 63.42061616 11 82 C9.02583732 83.05008653 7.02417134 84.04987876 5 85 C4.01 85.66 3.02 86.32 2 87 C2 85.68 2 84.36 2 83 C-1.81684226 84.55500981 -4.19195732 87.03595495 -7 90 C-8.32 89.34 -9.64 88.68 -11 88 C-11 88.66 -11 89.32 -11 90 C-12.32 89.67 -13.64 89.34 -15 89 C-15 88.34 -15 87.68 -15 87 C-15.66 86.34 -16.32 85.68 -17 85 C-16.625 82.875 -16.625 82.875 -16 81 C-16.66 80.67 -17.32 80.34 -18 80 C-18 77.36 -18 74.72 -18 72 C-15 73 -15 73 -13 76 C-13.495 74.783125 -13.99 73.56625 -14.5 72.3125 C-15.76001137 68.99913678 -16 66.53813407 -16 63 C-16.99414593 61.32983484 -17.9935725 59.66279327 -19 58 C-18.67 57.01 -18.34 56.02 -18 55 C-16.02 55.66 -14.04 56.32 -12 57 C-11.67 56.34 -11.34 55.68 -11 55 C-9.865625 55.020625 -8.73125 55.04125 -7.5625 55.0625 C-4.18424326 55.41577477 -4.18424326 55.41577477 -3 54 C-3.99 54 -4.98 54 -6 54 C-6 53.34 -6 52.68 -6 52 C-9.3 51.34 -12.6 50.68 -16 50 C-12.87110801 49.217777 -10.8599909 48.88566682 -7.75 48.9375 C-5.89375 48.9684375 -5.89375 48.9684375 -4 49 C-4 48.01 -4 47.02 -4 46 C-3.34 45.67 -2.68 45.34 -2 45 C-1.53006806 42.78039908 -1.53006806 42.78039908 -1.375 40.1875 C-1.30023438 39.31480469 -1.22546875 38.44210938 -1.1484375 37.54296875 C-1.02131298 35.36512507 -1 33.18155077 -1 31 C-1.886875 31.33 -2.77375 31.66 -3.6875 32 C-6.70923347 32.91222143 -8.88373706 33.18330958 -12 33 C-12.33 33.66 -12.66 34.32 -13 35 C-13.33 34.34 -13.66 33.68 -14 33 C-15.84501625 32.23243264 -15.84501625 32.23243264 -18.0625 31.625 C-22.66909392 30.1854394 -26.73415644 28.24926297 -31 26 C-31 25.67 -31 25.34 -31 25 C-32.65 24.67 -34.3 24.34 -36 24 C-36 23.67 -36 23.34 -36 23 C-29.87875547 22.46304873 -25.18960171 23.42744674 -19.4375 25.5 C-9.82278674 28.90865941 -3.62362511 28.31305127 6 25 C6 25.66 6 26.32 6 27 C6.99 27.33 7.98 27.66 9 28 C9.66 34.6 10.32 41.2 11 48 C11.16593798 43.23119764 11.32844219 38.46253471 11.48217773 33.69335938 C11.53549272 32.0715468 11.59081357 30.44979885 11.64819336 28.828125 C11.73039833 26.4949334 11.80534775 24.16160324 11.87890625 21.828125 C11.91945885 20.74352997 11.91945885 20.74352997 11.96083069 19.63702393 C12.06061331 16.25866599 12.08401439 13.22649401 11 10 C5.37038358 8.18202346 -0.0577367 7.42049895 -5.9375 6.875 C-6.81212891 6.78863281 -7.68675781 6.70226562 -8.58789062 6.61328125 C-10.72470254 6.40310303 -12.86228122 6.20074482 -15 6 C-15 5.67 -15 5.34 -15 5 C-12.22922802 4.83225597 -9.45839073 4.66576064 -6.6875 4.5 C-5.90181641 4.45230469 -5.11613281 4.40460937 -4.30664062 4.35546875 C-3.54931641 4.31035156 -2.79199219 4.26523437 -2.01171875 4.21875 C-0.96697388 4.1559082 -0.96697388 4.1559082 0.09887695 4.09179688 C1.73096966 4.01299029 3.36600579 4 5 4 C5 3.34 5 2.68 5 2 C2.525 1.505 2.525 1.505 0 1 C0 0.67 0 0.34 0 0 Z M7 29 C8 32 8 32 8 32 Z M13 29 C14 31 14 31 14 31 Z M7 40 C8 42 8 42 8 42 Z M-12 57 C-12 57.33 -12 57.66 -12 58 C-9.36 58 -6.72 58 -4 58 C-4 57.67 -4 57.34 -4 57 C-6.64 57 -9.28 57 -12 57 Z M9 61 C9 64 9 64 9 64 Z M-15 65 C-14 67 -14 67 -14 67 Z " fill="#052953" transform="translate(78,21)"/>
<path d="M0 0 C1.49076829 0.87639106 2.96733869 1.77696328 4.4375 2.6875 C5.67306641 3.43580078 5.67306641 3.43580078 6.93359375 4.19921875 C9.43719323 6.38099448 9.69593558 7.75480334 10 11 C10.86625 10.649375 11.7325 10.29875 12.625 9.9375 C16.24825242 8.931041 18.3853322 9.13936481 22 10 C22 10.66 22 11.32 22 12 C32.58853163 17.01662801 39.36182344 19.73591854 51 17 C51.99020864 20.20142644 52.0200144 22.79985601 51.6875 26.125 C51.60886719 26.99382813 51.53023437 27.86265625 51.44921875 28.7578125 C51 31 51 31 49 33 C48.67 33.99 48.34 34.98 48 36 C41.63214955 36.12735701 35.41349435 35.64023188 29.07421875 35.0234375 C25.82542208 34.71119886 25.82542208 34.71119886 23 37 C22.67 37.99 22.34 38.98 22 40 C21.34 40 20.68 40 20 40 C20 41.65 20 43.3 20 45 C19.34 45 18.68 45 18 45 C17.60208252 44.18321777 17.20416504 43.36643555 16.79418945 42.52490234 C15.30044448 39.46885416 13.79932444 36.41666002 12.29321289 33.36669922 C11.64540681 32.05109006 11.00049156 30.73405305 10.35864258 29.41552734 C9.43043915 27.51007788 8.49162938 25.61016927 7.55078125 23.7109375 C6.71027222 21.99849854 6.71027222 21.99849854 5.8527832 20.25146484 C4.42574599 17.74714523 3.1586983 15.89523297 1.31079102 13.75170898 C-1.25135482 10.70068461 -1.59921005 9.57577434 -1.375 5.6875 C-1.34148438 4.82511719 -1.30796875 3.96273437 -1.2734375 3.07421875 C-1 1 -1 1 0 0 Z " fill="#205997" transform="translate(26,35)"/>
<path d="M0 0 C0 0.66 0 1.32 0 2 C0.99 2.33 1.98 2.66 3 3 C1.1128125 3.2784375 1.1128125 3.2784375 -0.8125 3.5625 C-1.52019531 3.66691406 -2.22789063 3.77132813 -2.95703125 3.87890625 C-5 4 -5 4 -8 3 C-12.41781552 2.88387083 -16.83427893 3.09474226 -21.25 3.25 C-22.54292969 3.29519775 -23.83585937 3.34039551 -25.16796875 3.38696289 C-33.49713477 3.73042838 -41.73365491 4.35857566 -50 5.4375 C-50.94133789 5.55963867 -51.88267578 5.68177734 -52.85253906 5.80761719 C-57.1635048 6.41983475 -61.03570809 7.09218452 -65 9 C-65 9.66 -65 10.32 -65 11 C-65.66 11 -66.32 11 -67 11 C-68.45391147 22.99476965 -69.19381394 34.84945646 -69.1875 46.9375 C-69.18814453 48.13922852 -69.18878906 49.34095703 -69.18945312 50.57910156 C-69.15659041 55.8535669 -68.96863581 60.80221814 -68 66 C-69.485 66.495 -69.485 66.495 -71 67 C-74.1384805 58.82902597 -74.43356192 51.2481425 -74.3125 42.5625 C-74.3012207 41.24314453 -74.28994141 39.92378906 -74.27832031 38.56445312 C-74.17335172 31.02512992 -73.94611009 23.50962045 -73.25 16 C-73.18852783 15.26080322 -73.12705566 14.52160645 -73.0637207 13.76000977 C-72.51097941 8.89760474 -71.17694233 5.71723865 -68 2 C-63.59374999 -0.84334936 -58.99465503 -1.88116814 -53.875 -2.6875 C-53.07529785 -2.81415039 -52.2755957 -2.94080078 -51.45166016 -3.07128906 C-36.57686644 -5.13777417 -13.412854 -7.91014467 0 0 Z " fill="#22518B" transform="translate(83,23)"/>
<path d="M0 0 C3.0525 -0.04125 6.105 -0.0825 9.25 -0.125 C10.20551758 -0.14320801 11.16103516 -0.16141602 12.14550781 -0.18017578 C13.28777832 -0.18766846 13.28777832 -0.18766846 14.453125 -0.1953125 C15.22817383 -0.20578613 16.00322266 -0.21625977 16.80175781 -0.22705078 C19.32842591 0.03392227 20.86289766 0.63554236 23 2 C25.46372552 5.69558828 25.57583561 8.71044199 25 13 C23.5 16 23.5 16 22 18 C22.474375 18.45375 22.94875 18.9075 23.4375 19.375 C25.75800442 21.7883246 25.99036909 22.89791238 26.3125 26.3125 C25.95018869 30.58777346 25.03853708 32.04827827 22 35 C19.17588235 35.94137255 17.47081968 36.11725382 14.55078125 36.09765625 C13.78677002 36.09515869 13.02275879 36.09266113 12.2355957 36.09008789 C11.27097412 36.08098389 10.30635254 36.07187988 9.3125 36.0625 C4.7028125 36.0315625 4.7028125 36.0315625 0 36 C0 24.12 0 12.24 0 0 Z M8 6 C8 8.97 8 11.94 8 15 C9.299375 14.855625 10.59875 14.71125 11.9375 14.5625 C12.66839844 14.48128906 13.39929688 14.40007812 14.15234375 14.31640625 C16.01140229 14.18113386 16.01140229 14.18113386 17 13 C17.33343551 10.54207971 17.33343551 10.54207971 17 8 C13.5647952 5.70986347 12.014669 5.82157027 8 6 Z M8 21 C8 23.97 8 26.94 8 30 C10.832168 30.33448259 10.832168 30.33448259 14 30 C16.37719693 28.12498069 16.37719693 28.12498069 18 26 C17.34 24.35 16.68 22.7 16 21 C13.36 21 10.72 21 8 21 Z " fill="#043199" transform="translate(317,52)"/>
<path d="M0 0 C0 12.54 0 25.08 0 38 C-2.97 38 -5.94 38 -9 38 C-10.2375 38.226875 -11.475 38.45375 -12.75 38.6875 C-16 39 -16 39 -18.75 38.125 C-22.63788175 34.45311168 -23.8808135 29.9033832 -24.09765625 24.62109375 C-23.73285414 19.36260479 -22.34482015 16.05432745 -19 12 C-16.26094655 10.63047327 -14.02912668 10.87378639 -11 11 C-10.34 11.33 -9.68 11.66 -9 12 C-8.67 8.37 -8.34 4.74 -8 1 C-5 0 -5 0 0 0 Z M-13 18 C-14.74975467 19.46043394 -14.74975467 19.46043394 -16 22 C-15.96846324 25.05380927 -15.53266629 27.99653222 -15 31 C-11.41672247 32.00217064 -11.41672247 32.00217064 -8 31 C-8 27.04 -8 23.08 -8 19 C-9.65 18.67 -11.3 18.34 -13 18 Z " fill="#04319A" transform="translate(233,50)"/>
<path d="M0 0 C0 12.54 0 25.08 0 38 C-2.97 38 -5.94 38 -9 38 C-10.0725 38.20625 -11.145 38.4125 -12.25 38.625 C-15.58617644 39.07993315 -17.11302631 38.71657895 -20 37 C-24.32454639 31.24438391 -23.75079762 24.89442115 -23 18 C-21.76195099 14.71016083 -20.21850001 12.60925 -17 11 C-15.45386986 11.08651631 -13.91090613 11.24002636 -12.375 11.4375 C-11.55773437 11.53933594 -10.74046875 11.64117187 -9.8984375 11.74609375 C-9.27195312 11.82988281 -8.64546875 11.91367187 -8 12 C-7.95101563 11.21753906 -7.90203125 10.43507813 -7.8515625 9.62890625 C-7.77679688 8.61699219 -7.70203125 7.60507812 -7.625 6.5625 C-7.55539062 5.55316406 -7.48578125 4.54382812 -7.4140625 3.50390625 C-7.27742188 2.67761719 -7.14078125 1.85132813 -7 1 C-5 0 -5 0 0 0 Z M-13 18 C-15.63326457 20.63326457 -15.71180635 22.32553101 -16 26 C-15.45981189 28.81172873 -15.45981189 28.81172873 -14 31 C-12.11149645 32.07642709 -12.11149645 32.07642709 -10 32 C-9.01 31.34 -8.02 30.68 -7 30 C-6.52209482 27.63715136 -6.52209482 27.63715136 -6.625 25 C-6.61726563 24.113125 -6.60953125 23.22625 -6.6015625 22.3125 C-6.73304688 21.549375 -6.86453125 20.78625 -7 20 C-9.81509993 17.7226499 -9.81509993 17.7226499 -13 18 Z " fill="#03319E" transform="translate(301,50)"/>
<path d="M0 0 C-0.33 2.31 -0.66 4.62 -1 7 C-5.29 6.67 -9.58 6.34 -14 6 C-13.67 7.65 -13.34 9.3 -13 11 C-10.84293689 12.33000802 -10.84293689 12.33000802 -8.1875 13.0625 C-1.36058759 15.51043574 -1.36058759 15.51043574 1 19 C2.30045689 22.90137067 2.08287114 24.74266329 0.8125 28.6875 C-0.98393584 31.97064136 -1.90183211 33.09683972 -5 35 C-11.02220879 36.50303033 -16.23219811 36.13157896 -22 34 C-22.625 32.1875 -22.625 32.1875 -23 30 C-22.01 28.515 -22.01 28.515 -21 27 C-20.22914062 27.08378906 -19.45828125 27.16757813 -18.6640625 27.25390625 C-17.66117187 27.35574219 -16.65828125 27.45757812 -15.625 27.5625 C-14.62726563 27.66691406 -13.62953125 27.77132812 -12.6015625 27.87890625 C-10.015963 28.21144708 -10.015963 28.21144708 -8 27 C-8 25.68 -8 24.36 -8 23 C-8.83144531 22.61328125 -9.66289063 22.2265625 -10.51953125 21.828125 C-11.60621094 21.30734375 -12.69289063 20.7865625 -13.8125 20.25 C-14.89144531 19.73953125 -15.97039062 19.2290625 -17.08203125 18.703125 C-19.97054786 17.01719027 -21.37092125 15.88307752 -23 13 C-23.40205949 9.31445465 -23.26797045 6.73691874 -22 3.25 C-15.75597688 -3.77452601 -8.23008215 -1.9066357 0 0 Z " fill="#062F90" transform="translate(137,53)"/>
<path d="M0 0 C0.06058594 1.12019531 0.12117188 2.24039063 0.18359375 3.39453125 C0.26801424 4.86719984 0.35266149 6.33985544 0.4375 7.8125 C0.47681641 8.55048828 0.51613281 9.28847656 0.55664062 10.04882812 C0.74381035 13.23071342 0.98720793 15.96162378 2 19 C2.268125 18.4946875 2.53625 17.989375 2.8125 17.46875 C4.07576515 15.37438935 5.22083453 13.68619246 7 12 C9.90516143 11.36097188 11.99278126 11.64321134 15 12 C14.41463247 15.66060821 12.916761 17.54535164 10.4375 20.25 C9.79683594 20.95640625 9.15617187 21.6628125 8.49609375 22.390625 C8.00238281 22.92171875 7.50867188 23.4528125 7 24 C7.39832031 24.53109375 7.79664063 25.0621875 8.20703125 25.609375 C9.8046875 27.73958333 11.40234375 29.86979167 13 32 C13.56074219 32.70640625 14.12148438 33.4128125 14.69921875 34.140625 C16 36 16 36 16 38 C12.86777159 38.50115655 10.11209905 38.68820402 7 38 C4.44649143 35.64767696 2.71118512 33.00631739 1 30 C0.67 32.64 0.34 35.28 0 38 C-2.64 38 -5.28 38 -8 38 C-8 25.79 -8 13.58 -8 1 C-4 0 -4 0 0 0 Z " fill="#063192" transform="translate(405,50)"/>
<path d="M0 0 C0.33 0 0.66 0 1 0 C0.9278125 1.15371094 0.855625 2.30742188 0.78125 3.49609375 C-2.5252068 38.53749371 -2.5252068 38.53749371 11.49267578 69.46435547 C16.97859146 75.0533431 25.11451509 81.09708188 33 82 C32.0022242 84.99332739 31.2477975 85.94766315 29 88 C28.5875 87.175 28.175 86.35 27.75 85.5 C26.88375 84.2625 26.88375 84.2625 26 83 C24.68 83 23.36 83 22 83 C19.375 82.8125 19.375 82.8125 17 82 C16.72800781 81.18402344 16.45601562 80.36804688 16.17578125 79.52734375 C15.78777344 78.69332031 15.39976563 77.85929687 15 77 C12.60592295 76.07490862 12.60592295 76.07490862 9.8125 75.75 C4.03104308 74.4164005 1.66993067 72.19682887 -1.62890625 67.36328125 C-3.40438269 64.3029871 -4.79655861 61.32716148 -6 58 C-5.01 57.505 -5.01 57.505 -4 57 C-4.16153564 56.13463623 -4.32307129 55.26927246 -4.48950195 54.37768555 C-5.32197789 48.8696489 -5.19083371 43.37387621 -5.1875 37.8125 C-5.18741943 36.57193848 -5.18733887 35.33137695 -5.18725586 34.05322266 C-5.02756238 8.05512477 -5.02756238 8.05512477 -2 2 C-1.34 2 -0.68 2 0 2 C0 1.34 0 0.68 0 0 Z " fill="#072E54" transform="translate(18,32)"/>
<path d="M0 0 C2.31 0.33 4.62 0.66 7 1 C9.9254644 1.2236068 9.9254644 1.2236068 12 0 C15.7965604 -0.50620805 17.47578113 -0.35533786 20.6796875 1.81640625 C24.1088386 6.52138629 23.54790729 10.65186014 23.3125 16.3125 C23.28994141 17.33923828 23.26738281 18.36597656 23.24414062 19.42382812 C23.18537575 21.9507179 23.10327849 24.47460255 23 27 C20.36 27 17.72 27 15 27 C14.67 20.73 14.34 14.46 14 8 C12.02 8 10.04 8 8 8 C8 14.27 8 20.54 8 27 C5.36 27 2.72 27 0 27 C0 18.09 0 9.18 0 0 Z " fill="#0D3082" transform="translate(183,61)"/>
<path d="M0 0 C2.71876727 2.93626865 2.68324479 5.76460943 2.66015625 9.57421875 C2.65693359 10.51201172 2.65371094 11.44980469 2.65039062 12.41601562 C2.64201172 13.39248047 2.63363281 14.36894531 2.625 15.375 C2.62048828 16.36306641 2.61597656 17.35113281 2.61132812 18.36914062 C2.59954303 20.80865474 2.58309011 23.24804689 2.5625 25.6875 C-0.4375 25.6875 -3.4375 25.6875 -6.4375 25.6875 C-7.55125 25.89375 -8.665 26.1 -9.8125 26.3125 C-13.4375 26.6875 -13.4375 26.6875 -15.75 26.0625 C-18.10824494 24.14096709 -18.70125055 22.63249781 -19.4375 19.6875 C-19.35958028 15.86943378 -18.93069115 14.2404719 -16.375 11.375 C-12.58465904 9.19757009 -9.77852944 8.98180708 -5.4375 8.6875 C-5.4375 7.6975 -5.4375 6.7075 -5.4375 5.6875 C-6.50291016 5.81318359 -6.50291016 5.81318359 -7.58984375 5.94140625 C-8.50894531 6.04324219 -9.42804688 6.14507812 -10.375 6.25 C-11.74978516 6.40662109 -11.74978516 6.40662109 -13.15234375 6.56640625 C-13.90644531 6.60636719 -14.66054687 6.64632812 -15.4375 6.6875 C-16.4375 5.6875 -16.4375 5.6875 -16.5 3.125 C-16.479375 2.320625 -16.45875 1.51625 -16.4375 0.6875 C-11.03969669 -1.47162133 -5.3737209 -2.89354202 0 0 Z M-10.4375 14.6875 C-10.7675 16.3375 -11.0975 17.9875 -11.4375 19.6875 C-9.7875 19.6875 -8.1375 19.6875 -6.4375 19.6875 C-6.1075 18.0375 -5.7775 16.3875 -5.4375 14.6875 C-7.0875 14.6875 -8.7375 14.6875 -10.4375 14.6875 Z " fill="#0C3184" transform="translate(176.4375,62.3125)"/>
<path d="M0 0 C2.64549492 2.23004716 3.87248402 4.01092126 4.31884766 7.47314453 C4.3938863 10.42925872 4.34832285 13.35714217 4.25 16.3125 C4.23195313 17.33923828 4.21390625 18.36597656 4.1953125 19.42382812 C4.14831063 21.95017885 4.08262272 24.47460469 4 27 C1.69 27 -0.62 27 -3 27 C-3.06058594 25.79601562 -3.12117188 24.59203125 -3.18359375 23.3515625 C-3.26799732 21.77602923 -3.35264541 20.20050904 -3.4375 18.625 C-3.47681641 17.8309375 -3.51613281 17.036875 -3.55664062 16.21875 C-3.68893404 11.97398779 -3.68893404 11.97398779 -5 8 C-6.65 8.33 -8.3 8.66 -10 9 C-10.33 14.94 -10.66 20.88 -11 27 C-13.64 27 -16.28 27 -19 27 C-19 18.42 -19 9.84 -19 1 C-16.69 1 -14.38 1 -12 1 C-12 1.66 -12 2.32 -12 3 C-11.13375 2.505 -10.2675 2.01 -9.375 1.5 C-5.78873986 -0.09389339 -3.8571384 -0.67080668 0 0 Z " fill="#09328C" transform="translate(389,61)"/>
<path d="M0 0 C2.7265625 1.8203125 2.7265625 1.8203125 5 5 C5.60871751 8.79036085 5.47162108 12.48624999 5.3125 16.3125 C5.28994141 17.33923828 5.26738281 18.36597656 5.24414062 19.42382812 C5.18537575 21.9507179 5.10327849 24.47460255 5 27 C4.39381836 26.99057373 3.78763672 26.98114746 3.16308594 26.97143555 C2.36161133 26.964104 1.56013672 26.95677246 0.734375 26.94921875 C-0.45333496 26.93507935 -0.45333496 26.93507935 -1.66503906 26.9206543 C-4.25857822 26.93926523 -4.25857822 26.93926523 -7.75 27.8125 C-11 28 -11 28 -13.9375 26 C-16.48673398 22.2920233 -16.64249942 20.41718353 -16 16 C-14.23984869 12.8149643 -13.50109084 12.16703028 -10 11 C-8.60560336 10.93334624 -7.20830125 10.91461801 -5.8125 10.9375 C-3.9253125 10.9684375 -3.9253125 10.9684375 -2 11 C-2.33 9.68 -2.66 8.36 -3 7 C-3.62648437 7.09539062 -4.25296875 7.19078125 -4.8984375 7.2890625 C-5.71570313 7.39992188 -6.53296875 7.51078125 -7.375 7.625 C-8.18710938 7.74101563 -8.99921875 7.85703125 -9.8359375 7.9765625 C-10.55007812 7.98429687 -11.26421875 7.99203125 -12 8 C-12.66 7.34 -13.32 6.68 -14 6 C-14 4.68 -14 3.36 -14 2 C-9.03048293 0.01219317 -5.27662529 -0.5862917 0 0 Z M-7 16 C-7.66 17.32 -8.32 18.64 -9 20 C-7.93354885 21.29633621 -7.93354885 21.29633621 -5.4375 21.0625 C-4.633125 21.041875 -3.82875 21.02125 -3 21 C-2.67 19.35 -2.34 17.7 -2 16 C-3.65 16 -5.3 16 -7 16 Z " fill="#03319E" transform="translate(252,61)"/>
<path d="M0 0 C2.69140625 1.8203125 2.69140625 1.8203125 5 5 C5.61197561 8.78968517 5.47161103 12.48649161 5.3125 16.3125 C5.28994141 17.33923828 5.26738281 18.36597656 5.24414062 19.42382812 C5.18537575 21.9507179 5.10327849 24.47460255 5 27 C4.39381836 26.99057373 3.78763672 26.98114746 3.16308594 26.97143555 C2.36161133 26.964104 1.56013672 26.95677246 0.734375 26.94921875 C-0.45333496 26.93507935 -0.45333496 26.93507935 -1.66503906 26.9206543 C-4.25857822 26.93926523 -4.25857822 26.93926523 -7.75 27.8125 C-11 28 -11 28 -13.9375 26.0625 C-16.74271661 21.89717837 -16.63852859 19.9485966 -16 15 C-14.18836733 12.32568511 -13.12238923 12.04079641 -10 11 C-8.60560336 10.93334624 -7.20830125 10.91461801 -5.8125 10.9375 C-3.9253125 10.9684375 -3.9253125 10.9684375 -2 11 C-2.33 10.01 -2.66 9.02 -3 8 C-3.93972656 8.03480469 -3.93972656 8.03480469 -4.8984375 8.0703125 C-6.12433594 8.09738281 -6.12433594 8.09738281 -7.375 8.125 C-8.18710937 8.14820312 -8.99921875 8.17140625 -9.8359375 8.1953125 C-12 8 -12 8 -14 6 C-14 4.68 -14 3.36 -14 2 C-9.20559312 0.43447939 -5.09775149 -0.66081964 0 0 Z M-7 16 C-7.66 17.32 -8.32 18.64 -9 20 C-7.93354885 21.29633621 -7.93354885 21.29633621 -5.4375 21.0625 C-4.633125 21.041875 -3.82875 21.02125 -3 21 C-2.67 19.35 -2.34 17.7 -2 16 C-3.65 16 -5.3 16 -7 16 Z " fill="#073090" transform="translate(361,61)"/>
<path d="M0 0 C2.4375 0.1875 2.4375 0.1875 3.4375 1.1875 C3.47830783 3.18708364 3.48004356 5.18795254 3.4375 7.1875 C5.4175 7.1875 7.3975 7.1875 9.4375 7.1875 C10.37173645 10.19781744 10.48199911 11.05400268 9.4375 14.1875 C7.1275 14.1875 4.8175 14.1875 2.4375 14.1875 C2.7675 15.1775 3.0975 16.1675 3.4375 17.1875 C3.52953743 18.70611755 3.56751284 20.22860426 3.5625 21.75 C3.56507813 22.53503906 3.56765625 23.32007812 3.5703125 24.12890625 C3.4375 26.1875 3.4375 26.1875 2.4375 28.1875 C4.1390625 28.1565625 4.1390625 28.1565625 5.875 28.125 C9.4375 28.1875 9.4375 28.1875 10.4375 29.1875 C10.47813832 30.85367115 10.480221 32.52138095 10.4375 34.1875 C8.85620971 34.41081199 7.27228911 34.61554644 5.6875 34.8125 C4.80578125 34.92851563 3.9240625 35.04453125 3.015625 35.1640625 C0.17400633 35.1898954 -1.21087549 34.74465677 -3.5625 33.1875 C-5.21747356 29.87755287 -4.66334335 26.19627 -4.625 22.5625 C-4.62048828 21.76070312 -4.61597656 20.95890625 -4.61132812 20.1328125 C-4.59953168 18.15100994 -4.58159605 16.16924567 -4.5625 14.1875 C-6.2125 13.8575 -7.8625 13.5275 -9.5625 13.1875 C-9.2325 11.5375 -8.9025 9.8875 -8.5625 8.1875 C-7.2425 8.1875 -5.9225 8.1875 -4.5625 8.1875 C-4.60375 7.23875 -4.645 6.29 -4.6875 5.3125 C-4.5314297 1.41074262 -3.98269118 0.29141643 0 0 Z " fill="#02309F" transform="translate(146.5625,53.8125)"/>
<path d="M0 0 C0.86689453 0.00008057 1.73378906 0.00016113 2.62695312 0.00024414 C12.21169502 0.08326297 22.35432058 0.56238414 31.625 3.1875 C31.625 5.5 31.625 5.5 30.625 8.1875 C23.54263579 11.8551529 17.47725524 12.33481077 9.84765625 10.0625 C7.75543505 9.38016753 5.66981162 8.68146819 3.58691406 7.97119141 C-1.21296998 6.38747908 -5.27571432 5.75366134 -10.359375 6.3046875 C-13.13323467 6.14341659 -14.38432559 5.06160338 -16.375 3.1875 C-16.375 2.5275 -16.375 1.8675 -16.375 1.1875 C-10.88321989 0.26729556 -5.56465291 -0.00487178 0 0 Z " fill="#1F4C7D" transform="translate(52.375,32.8125)"/>
<path d="M0 0 C3.875 3.75 3.875 3.75 5 6 C5.55042969 5.84273437 6.10085937 5.68546875 6.66796875 5.5234375 C11.75469792 4.38169259 17.4973603 3.77018049 22.2734375 6.1171875 C24.1875 7.5 24.1875 7.5 27 10 C26.65066406 10.45890625 26.30132812 10.9178125 25.94140625 11.390625 C25.48636719 12.00421875 25.03132813 12.6178125 24.5625 13.25 C24.11003906 13.85328125 23.65757813 14.4565625 23.19140625 15.078125 C21.89373685 16.95093735 21.89373685 16.95093735 21.46484375 19.171875 C21.31144531 19.77515625 21.15804687 20.3784375 21 21 C20.34 21.33 19.68 21.66 19 22 C18.34786708 24.02463255 18.34786708 24.02463255 18 26 C14.22552776 25.48993618 12.48863263 24.86603976 10 22 C8.95678711 20.31420898 8.95678711 20.31420898 8.02734375 18.49609375 C7.68509766 17.83802734 7.34285156 17.17996094 6.99023438 16.50195312 C6.64283203 15.82068359 6.29542969 15.13941406 5.9375 14.4375 C3.46240625 9.38281618 3.46240625 9.38281618 0 5 C-0.125 2.375 -0.125 2.375 0 0 Z " fill="#5F88BC" transform="translate(27,44)"/>
<path d="M0 0 C2.20644747 2.04498098 3.65854534 3.9332361 5.0078125 6.6171875 C5.35457031 7.30683594 5.70132812 7.99648437 6.05859375 8.70703125 C6.41050781 9.42246094 6.76242188 10.13789062 7.125 10.875 C7.48464844 11.58269531 7.84429687 12.29039063 8.21484375 13.01953125 C10.02484087 16.65986253 11.47192192 19.91939663 12 24 C11.01 23.67 10.02 23.34 9 23 C9.66 23.66 10.32 24.32 11 25 C11.35840222 27.32961443 11.68848712 29.66365343 12 32 C12.65509503 34.00382009 13.31974363 36.00458132 14 38 C14 38.99 14 39.98 14 41 C9.70788465 40.25998011 8.12603372 38.38544908 5.45703125 35.1015625 C-0.0827004 27.11127932 -1.17013702 19.22877448 -1.125 9.75 C-1.12886719 8.92242187 -1.13273437 8.09484375 -1.13671875 7.2421875 C-1.12669335 1.12669335 -1.12669335 1.12669335 0 0 Z " fill="#2B4E79" transform="translate(25,57)"/>
<path d="M0 0 C1.49076829 0.87639106 2.96733869 1.77696328 4.4375 2.6875 C5.67306641 3.43580078 5.67306641 3.43580078 6.93359375 4.19921875 C9.43719323 6.38099448 9.69593558 7.75480334 10 11 C10.86625 10.649375 11.7325 10.29875 12.625 9.9375 C16.24825242 8.931041 18.3853322 9.13936481 22 10 C22 10.66 22 11.32 22 12 C22.81404297 12.38091797 22.81404297 12.38091797 23.64453125 12.76953125 C24.35996094 13.11371094 25.07539062 13.45789062 25.8125 13.8125 C26.87404297 14.31716797 26.87404297 14.31716797 27.95703125 14.83203125 C30.01129035 16.00645471 31.41616278 17.25628016 33 19 C32.34 20.32 31.68 21.64 31 23 C30.34 23 29.68 23 29 23 C29.66 24.65 30.32 26.3 31 28 C28.3991542 30.87950786 26.78271103 32.21737013 23 33 C22.67 33.66 22.34 34.32 22 35 C21.34 35 20.68 35 20 35 C19.34 36.32 18.68 37.64 18 39 C16.0625 38.25 16.0625 38.25 14 37 C13.25 34.875 13.25 34.875 13 33 C14.98 33.66 16.96 34.32 19 35 C19.33 33.35 19.66 31.7 20 30 C20.66 30 21.32 30 22 30 C22.0825 29.29875 22.165 28.5975 22.25 27.875 C23.17027725 24.34727053 24.88126977 21.93888386 27 19 C22.29174056 14.92799183 18.83713958 14.59587851 12.68359375 14.76171875 C10.06081529 14.9946001 7.56850186 15.42870573 5 16 C4.690625 15.195625 4.38125 14.39125 4.0625 13.5625 C3.23664655 11.10919595 3.23664655 11.10919595 2 10 C1.34 10.99 0.68 11.98 0 13 C-1.25069801 10.49860398 -1.13302467 8.72607309 -1.125 5.9375 C-1.12757812 5.03902344 -1.13015625 4.14054687 -1.1328125 3.21484375 C-1 1 -1 1 0 0 Z " fill="#3D6EA7" transform="translate(26,35)"/>
<path d="M0 0 C0 2.31 0 4.62 0 7 C-0.56589844 7.103125 -1.13179688 7.20625 -1.71484375 7.3125 C-4.52546537 8.18186627 -5.95661132 8.83996969 -8 11 C-9.05499377 16.3569632 -9.10131582 21.55427489 -9 27 C-11.64 27 -14.28 27 -17 27 C-17 18.42 -17 9.84 -17 1 C-13.33333333 1 -9.66666667 1 -6 1 C-4 0 -4 0 0 0 Z " fill="#032F9B" transform="translate(278,61)"/>
<path d="M0 0 C6.63625982 -0.31260105 11.22531015 0.47098123 17.3125 3 C24.35852281 5.73157351 30.38442243 6.79237223 38 6 C38 9.41099168 37.50854594 12.63088314 37 16 C37.99 16.33 38.98 16.66 40 17 C39.505 18.485 39.505 18.485 39 20 C38.34 20 37.68 20 37 20 C37.495 21.485 37.495 21.485 38 23 C36.8125 25.6875 36.8125 25.6875 35 28 C33.68 28 32.36 28 31 28 C30.67 28.99 30.34 29.98 30 31 C30 30.34 30 29.68 30 29 C26.7 28.34 23.4 27.68 20 27 C23.12889199 26.217777 25.1400091 25.88566682 28.25 25.9375 C30.10625 25.9684375 30.10625 25.9684375 32 26 C32 25.01 32 24.02 32 23 C32.66 22.67 33.32 22.34 34 22 C34.46993194 19.78039908 34.46993194 19.78039908 34.625 17.1875 C34.69976562 16.31480469 34.77453125 15.44210938 34.8515625 14.54296875 C34.97868702 12.36512507 35 10.18155077 35 8 C34.113125 8.33 33.22625 8.66 32.3125 9 C29.29076653 9.91222143 27.11626294 10.18330958 24 10 C23.67 10.66 23.34 11.32 23 12 C22.67 11.34 22.34 10.68 22 10 C20.15498375 9.23243264 20.15498375 9.23243264 17.9375 8.625 C13.33090608 7.1854394 9.26584356 5.24926297 5 3 C5 2.67 5 2.34 5 2 C3.35 1.67 1.7 1.34 0 1 C0 0.67 0 0.34 0 0 Z M39 14 C39.66 14.66 40.32 15.32 41 16 C40.34 16 39.68 16 39 16 C39 15.34 39 14.68 39 14 Z " fill="#0C3865" transform="translate(42,44)"/>
<path d="M0 0 C3.39574543 0.93838834 4.7467742 1.61957141 6.72924805 4.59790039 C7.23496338 5.67031982 7.74067871 6.74273926 8.26171875 7.84765625 C8.82310547 9.00974609 9.38449219 10.17183594 9.96289062 11.36914062 C10.53869396 12.59982407 11.1135532 13.83094964 11.6875 15.0625 C12.82901967 17.47413012 13.98154254 19.87998589 15.13671875 22.28515625 C15.63905029 23.35644775 16.14138184 24.42773926 16.65893555 25.53149414 C17.75912534 28.11808235 17.75912534 28.11808235 20 29 C19.6875 30.875 19.6875 30.875 19 33 C18.01 33.66 17.02 34.32 16 35 C15.443125 33.9275 14.88625 32.855 14.3125 31.75 C12.36736948 28.3218799 10.17649883 26.36201195 7 24 C5.1875 21.75 5.1875 21.75 4 20 C4.66 20 5.32 20 6 20 C5.71125 19.030625 5.4225 18.06125 5.125 17.0625 C4.08144505 13.44680256 3.29652498 9.80306753 2.5625 6.11328125 C1.96889722 3.88314859 1.09681288 2.02453377 0 0 Z " fill="#052E55" transform="translate(33,78)"/>
<path d="M0 0 C1.32 0 2.64 0 4 0 C4.08704 4.58321382 4.14040632 9.16621534 4.1875 13.75 C4.21263672 15.05195312 4.23777344 16.35390625 4.26367188 17.6953125 C4.27333984 18.94570312 4.28300781 20.19609375 4.29296875 21.484375 C4.3086792 22.63647461 4.32438965 23.78857422 4.34057617 24.97558594 C3.9698672 28.26758786 3.22615202 29.60695077 1 32 C-0.65 31.67 -2.3 31.34 -4 31 C-4 30.34 -4 29.68 -4 29 C-3.34 28.67 -2.68 28.34 -2 28 C-1.34227572 24.97065509 -1.34227572 24.97065509 -1 22 C-0.34 22 0.32 22 1 22 C1 20.02 1 18.04 1 16 C-2.96 16 -6.92 16 -11 16 C-11.33 15.34 -11.66 14.68 -12 14 C-11.67 13.01 -11.34 12.02 -11 11 C-3.25 10.875 -3.25 10.875 -1 12 C-1.01160156 11.21753906 -1.02320313 10.43507813 -1.03515625 9.62890625 C-1.04417969 8.61699219 -1.05320312 7.60507812 -1.0625 6.5625 C-1.07410156 5.55316406 -1.08570313 4.54382812 -1.09765625 3.50390625 C-1 1 -1 1 0 0 Z " fill="#02319F" transform="translate(295,52)"/>
<path d="M0 0 C4.47915271 -0.0292814 8.95828042 -0.04689296 13.4375 -0.0625 C15.32758789 -0.07506836 15.32758789 -0.07506836 17.25585938 -0.08789062 C35.98543809 -0.13679292 35.98543809 -0.13679292 43 4 C43 4.66 43 5.32 43 6 C43.99 6.33 44.98 6.66 46 7 C44.1128125 7.2784375 44.1128125 7.2784375 42.1875 7.5625 C41.47980469 7.66691406 40.77210937 7.77132813 40.04296875 7.87890625 C38 8 38 8 35 7 C30.58218448 6.88387083 26.16572107 7.09474226 21.75 7.25 C20.45707031 7.29519775 19.16414063 7.34039551 17.83203125 7.38696289 C9.50286523 7.73042838 1.26634509 8.35857566 -7 9.4375 C-7.94133789 9.55963867 -8.88267578 9.68177734 -9.85253906 9.80761719 C-14.1635048 10.41983475 -18.03570809 11.09218452 -22 13 C-22 13.66 -22 14.32 -22 15 C-22.66 14.67 -23.32 14.34 -24 14 C-23.01720242 11.31964295 -22.44049647 10.21706775 -19.8359375 8.93359375 C-8.52379036 5.20962245 4.44615991 5.66915555 16.21362305 5.42944336 C17.29297119 5.40116455 18.37231934 5.37288574 19.484375 5.34375 C20.93408691 5.31571289 20.93408691 5.31571289 22.41308594 5.28710938 C25.35280524 5.11178237 25.35280524 5.11178237 29 3 C19.43 2.34 9.86 1.68 0 1 C0 0.67 0 0.34 0 0 Z " fill="#123B73" transform="translate(40,19)"/>
<path d="M0 0 C1.65 0 3.3 0 5 0 C6.35129438 2.51256298 7.68074204 5.03317942 9 7.5625 C9.57234375 8.61920898 9.57234375 8.61920898 10.15625 9.69726562 C12.59166029 14.41587305 13.44640819 17.69192767 13 23 C11.35 23.33 9.7 23.66 8 24 C6.64590836 21.50943858 5.31727848 19.00994955 4 16.5 C3.6184375 15.80390625 3.236875 15.1078125 2.84375 14.390625 C0.21079429 9.31278185 -0.41164909 5.71163116 0 0 Z " fill="#042C53" transform="translate(45,74)"/>
<path d="M0 0 C0 0.99 0 1.98 0 3 C-3.34224832 3.89983608 -6.5411483 4.42352472 -10 5 C-10.33 11.27 -10.66 17.54 -11 24 C-12.98 24 -14.96 24 -17 24 C-17 17.4 -17 10.8 -17 4 C-16.34 3.67 -15.68 3.34 -15 3 C-14.67 3.66 -14.34 4.32 -14 5 C-12.989375 4.175 -11.97875 3.35 -10.9375 2.5 C-7.24854513 -0.17261016 -4.57989423 -0.46733615 0 0 Z " fill="#02319D" transform="translate(388,63)"/>
<path d="M0 0 C2.31 0.66 4.62 1.32 7 2 C7.33 1.34 7.66 0.68 8 0 C11.3 0.66 14.6 1.32 18 2 C17.67 2.66 17.34 3.32 17 4 C16.01 4 15.02 4 14 4 C13.34 6.31 12.68 8.62 12 11 C12.66 11 13.32 11 14 11 C12.8141763 14.37503669 11.72426311 16.64722731 9 19 C6.87562908 15.49127927 4.8107877 11.95711573 2.8125 8.375 C2.28269531 7.43398437 1.75289062 6.49296875 1.20703125 5.5234375 C0 3 0 3 0 0 Z M7 2 C7 2.33 7 2.66 7 3 C9.64 3 12.28 3 15 3 C15 2.67 15 2.34 15 2 C12.36 2 9.72 2 7 2 Z " fill="#0A2A55" transform="translate(59,76)"/>
<path d="M0 0 C0 12.54 0 25.08 0 38 C-2.97 38 -5.94 38 -9 38 C-10.0725 38.20625 -11.145 38.4125 -12.25 38.625 C-15.58617644 39.07993315 -17.11302631 38.71657895 -20 37 C-22.64481422 33.62558186 -23.36498871 31.25820163 -23 27 C-21 30.75 -21 30.75 -21 33 C-20.360625 33.309375 -19.72125 33.61875 -19.0625 33.9375 C-17 35 -17 35 -16 36 C-13.49845247 35.81773788 -11.02994202 35.47951979 -8.54296875 35.15625 C-6.05666801 35.00348191 -4.37283391 35.34299467 -2 36 C-2.05329468 34.72153198 -2.05329468 34.72153198 -2.10766602 33.41723633 C-2.23727206 30.23983267 -2.36151308 27.0622763 -2.48217773 23.88452148 C-2.53538216 22.51204126 -2.59069309 21.13964095 -2.64819336 19.76733398 C-2.73070839 17.7891258 -2.80489585 15.81057586 -2.87890625 13.83203125 C-2.9260376 12.64327393 -2.97316895 11.4545166 -3.02172852 10.22973633 C-3.00212782 7.31628032 -2.69052984 4.82024478 -2 2 C-3.65 2.33 -5.3 2.66 -7 3 C-7 2.34 -7 1.68 -7 1 C-5 0 -5 0 0 0 Z " fill="#0B2F81" transform="translate(301,50)"/>
<path d="M0 0 C0.66 0.33 1.32 0.66 2 1 C2.94137255 3.82411765 3.11725382 5.52918032 3.09765625 8.44921875 C3.09443359 9.29677734 3.09121094 10.14433594 3.08789062 11.01757812 C3.07951172 11.89865234 3.07113281 12.77972656 3.0625 13.6875 C3.05798828 14.58017578 3.05347656 15.47285156 3.04882812 16.39257812 C3.03704983 18.59511987 3.02060164 20.79752599 3 23 C1.35 23 -0.3 23 -2 23 C-2 22.34 -2 21.68 -2 21 C-3.32 20.34 -4.64 19.68 -6 19 C-5.34 18.67 -4.68 18.34 -4 18 C-4.69795395 14.3911416 -4.69795395 14.3911416 -5.75 10.875 C-5.8325 10.25625 -5.915 9.6375 -6 9 C-5.02246356 7.97803008 -4.0194119 6.98020375 -3 6 C-2.64386903 4.33805547 -2.30791692 2.671549 -2 1 C-1.34 0.67 -0.68 0.34 0 0 Z " fill="#04339C" transform="translate(175,64)"/>
<path d="M0 0 C0.66 0.33 1.32 0.66 2 1 C2.05441656 2.89551022 2.09298035 4.7914792 2.125 6.6875 C2.14820312 7.74324219 2.17140625 8.79898438 2.1953125 9.88671875 C1.99608303 13.06243655 1.48332518 15.19535103 0 18 C-2.4375 18.9375 -2.4375 18.9375 -5 19 C-5.99 18.34 -6.98 17.68 -8 17 C-9.65549531 16.61500109 -11.3222433 16.27206865 -13 16 C-13.33 15.01 -13.66 14.02 -14 13 C-11 11 -11 11 -9 10 C-8.30341637 8.34561387 -7.63903117 6.67745682 -7 5 C-6.34 4.01 -5.68 3.02 -5 2 C-4.34 4.31 -3.68 6.62 -3 9 C-0.23776722 6.23776722 -0.42143709 3.79293383 0 0 Z " fill="#0E2F5E" transform="translate(92,62)"/>
<path d="M0 0 C0.33 0 0.66 0 1 0 C0.99214478 1.63412842 0.99214478 1.63412842 0.98413086 3.30126953 C0.96596977 7.36034314 0.95452749 11.41941318 0.94506836 15.47851562 C0.94005349 17.23210251 0.93323998 18.98568524 0.92456055 20.73925781 C0.91237 23.2662865 0.90674312 25.79325968 0.90234375 28.3203125 C0.89718246 29.09867462 0.89202118 29.87703674 0.88670349 30.6789856 C0.8862728 34.9003949 1.1641336 38.84091388 2 43 C0.515 43.495 0.515 43.495 -1 44 C-4.35690716 35.53519465 -4.35680493 27.33005974 -4.1875 18.375 C-4.17241606 16.97527492 -4.15873425 15.575534 -4.14648438 14.17578125 C-4.11139121 10.78344156 -4.06222265 7.39193225 -4 4 C-3.67 4 -3.34 4 -3 4 C-2.67 4.99 -2.34 5.98 -2 7 C-1.34 7 -0.68 7 0 7 C0 4.69 0 2.38 0 0 Z " fill="#194783" transform="translate(13,46)"/>
<path d="M0 0 C2.4375 0.1875 2.4375 0.1875 3.4375 1.1875 C3.47830783 3.18708364 3.48004356 5.18795254 3.4375 7.1875 C5.4175 7.1875 7.3975 7.1875 9.4375 7.1875 C10.37173645 10.19781744 10.48199911 11.05400268 9.4375 14.1875 C7.1275 14.1875 4.8175 14.1875 2.4375 14.1875 C2.7675 15.1775 3.0975 16.1675 3.4375 17.1875 C3.55382729 18.70516539 3.61246239 20.2279346 3.625 21.75 C3.63917969 22.53503906 3.65335938 23.32007812 3.66796875 24.12890625 C3.4375 26.1875 3.4375 26.1875 1.4375 28.1875 C0.30980646 22.6743316 0.30980646 22.6743316 0.9375 20.28125 C1.52543011 17.81929265 1.3310758 15.93896162 1 13.4375 C0.84724609 12.23867187 0.84724609 12.23867187 0.69140625 11.015625 C0.60761719 10.41234375 0.52382812 9.8090625 0.4375 9.1875 C-1.2125 8.8575 -2.8625 8.5275 -4.5625 8.1875 C-4.6875 5.3125 -4.6875 5.3125 -4.5625 2.1875 C-2.5625 0.1875 -2.5625 0.1875 0 0 Z " fill="#052E94" transform="translate(146.5625,53.8125)"/>
<path d="M0 0 C11.05994427 -0.10611887 21.9760632 -0.00708069 33 1 C30.54795397 3.96826625 28.75403474 4.43681336 25 5 C22.72480822 5.14463953 20.44667026 5.24613792 18.16796875 5.31640625 C16.22954102 5.37924805 16.22954102 5.37924805 14.25195312 5.44335938 C12.89713808 5.48316352 11.54232033 5.52287591 10.1875 5.5625 C8.81313895 5.60573723 7.43878976 5.64935312 6.06445312 5.69335938 C2.70973331 5.7992979 -0.6450586 5.90137189 -4 6 C-3.67 5.34 -3.34 4.68 -3 4 C-1.35 4 0.3 4 2 4 C2 3.34 2 2.68 2 2 C1.34 2 0.68 2 0 2 C0 1.34 0 0.68 0 0 Z " fill="#124A90" transform="translate(40,20)"/>
<path d="M0 0 C1.65 0 3.3 0 5 0 C5 12.54 5 25.08 5 38 C2.03 38 -0.94 38 -4 38 C-5.2375 38.226875 -6.475 38.45375 -7.75 38.6875 C-11 39 -11 39 -13.8125 37.875 C-16.29502729 35.74711947 -17.07739356 34.10331257 -18 31 C-15 32 -15 32 -13.75 33.5 C-11.0846819 35.78455837 -8.41674083 35.74690809 -5 36 C-4.505 35.505 -4.505 35.505 -4 35 C-5.98 34.34 -7.96 33.68 -10 33 C-10 32.34 -10 31.68 -10 31 C-7.69 31 -5.38 31 -3 31 C-3 27.04 -3 23.08 -3 19 C-4.65 18.67 -6.3 18.34 -8 18 C-4.25 16.875 -4.25 16.875 -2 18 C-2 23.94 -2 29.88 -2 36 C-0.35 36 1.3 36 3 36 C3.33 24.45 3.66 12.9 4 1 C2.68 0.67 1.36 0.34 0 0 Z " fill="#0E307B" transform="translate(228,50)"/>
<path d="M0 0 C2.64 0 5.28 0 8 0 C8 0.66 8 1.32 8 2 C8.66 2 9.32 2 10 2 C10 2.66 10 3.32 10 4 C4.13073434 6.30423022 -1.21730939 7.39130045 -7.51953125 7.69140625 C-10.15303135 8.01903855 -11.79477732 8.53148868 -14 10 C-15.29231642 13.04199472 -15.29231642 13.04199472 -16 16 C-16.66 16 -17.32 16 -18 16 C-18.33 16.66 -18.66 17.32 -19 18 C-19.5500333 12.36215871 -18.24701545 9.4756159 -15 5 C-12.375 4 -12.375 4 -10 4 C-9.34 4.33 -8.68 4.66 -8 5 C-7.67 4.34 -7.34 3.68 -7 3 C-2.52459016 1.73770492 -2.52459016 1.73770492 0 3 C0 2.01 0 1.02 0 0 Z " fill="#1A528F" transform="translate(32,20)"/>
<path d="M0 0 C1.13199829 0.06948853 1.13199829 0.06948853 2.28686523 0.14038086 C7.927614 0.52762729 13.38558621 1.29828717 18.875 2.6875 C18.545 4.3375 18.215 5.9875 17.875 7.6875 C15.565 8.3475 13.255 9.0075 10.875 9.6875 C10.64296875 9.05199219 10.4109375 8.41648437 10.171875 7.76171875 C9.05752435 5.51250692 9.05752435 5.51250692 6.765625 4.89453125 C5.45851563 4.69923828 5.45851563 4.69923828 4.125 4.5 C3.15433594 4.35433594 2.18367188 4.20867188 1.18359375 4.05859375 C-4.57414226 3.41280282 -10.3408948 3.00837007 -16.125 2.6875 C-10.59975204 -0.27245426 -6.21269927 -0.40666669 0 0 Z " fill="#07284F" transform="translate(65.125,33.3125)"/>
<path d="M0 0 C0.99 0 1.98 0 3 0 C3 0.66 3 1.32 3 2 C3.66 2 4.32 2 5 2 C5 8.27 5 14.54 5 21 C3.02 21 1.04 21 -1 21 C-1.02888146 17.68751813 -1.04675799 14.37506833 -1.0625 11.0625 C-1.07087891 10.11697266 -1.07925781 9.17144531 -1.08789062 8.19726562 C-1.09111328 7.29814453 -1.09433594 6.39902344 -1.09765625 5.47265625 C-1.10289307 4.64000244 -1.10812988 3.80734863 -1.11352539 2.94946289 C-1 1 -1 1 0 0 Z " fill="#01309D" transform="translate(200,66)"/>
<path d="M0 0 C0 2.31 0 4.62 0 7 C-0.56589844 7.103125 -1.13179688 7.20625 -1.71484375 7.3125 C-4.52546537 8.18186627 -5.95661132 8.83996969 -8 11 C-9.05499377 16.3569632 -9.10131582 21.55427489 -9 27 C-11.64 27 -14.28 27 -17 27 C-17 18.42 -17 9.84 -17 1 C-13.33333333 1 -9.66666667 1 -6 1 C-4 0 -4 0 0 0 Z M-4 1 C-4.33 1.66 -4.66 2.32 -5 3 C-8.0625 3.625 -8.0625 3.625 -11 4 C-11.33 3.34 -11.66 2.68 -12 2 C-12.99 2 -13.98 2 -15 2 C-16.01044795 5.03134384 -16.05032949 6.74395943 -15.87890625 9.88671875 C-15.83056641 10.82451172 -15.78222656 11.76230469 -15.73242188 12.72851562 C-15.67634766 13.70498047 -15.62027344 14.68144531 -15.5625 15.6875 C-15.51029297 16.67556641 -15.45808594 17.66363281 -15.40429688 18.68164062 C-15.27464694 21.12141676 -15.13968258 23.56078105 -15 26 C-13.35 26 -11.7 26 -10 26 C-10 20.39 -10 14.78 -10 9 C-7.03 8.01 -4.06 7.02 -1 6 C-1 4.35 -1 2.7 -1 1 C-1.99 1 -2.98 1 -4 1 Z " fill="#13316F" transform="translate(278,61)"/>
<path d="M0 0 C3.66708267 0.96042641 4.94155921 2.47797168 7.1328125 5.55859375 C7.74044354 9.34917877 7.60443693 13.04476319 7.4453125 16.87109375 C7.42275391 17.89783203 7.40019531 18.92457031 7.37695312 19.98242188 C7.31818825 22.50931165 7.23609099 25.0331963 7.1328125 27.55859375 C6.52735596 27.55061768 5.92189941 27.5426416 5.2980957 27.53442383 C4.49718506 27.52822021 3.69627441 27.5220166 2.87109375 27.515625 C2.08001221 27.50764893 1.28893066 27.49967285 0.47387695 27.49145508 C-2.12844544 27.50783147 -2.12844544 27.50783147 -5.6796875 28.24609375 C-8.8671875 28.55859375 -8.8671875 28.55859375 -11.3046875 27.24609375 C-12.8671875 25.55859375 -12.8671875 25.55859375 -12.8671875 23.55859375 C-12.26390625 23.64238281 -11.660625 23.72617188 -11.0390625 23.8125 C-10.23984375 23.91433594 -9.440625 24.01617187 -8.6171875 24.12109375 C-7.82828125 24.22550781 -7.039375 24.32992187 -6.2265625 24.4375 C-3.86185876 24.55886724 -2.1160838 24.25492632 0.1328125 23.55859375 C0.4628125 24.21859375 0.7928125 24.87859375 1.1328125 25.55859375 C2.4528125 25.88859375 3.7728125 26.21859375 5.1328125 26.55859375 C5.1328125 19.62859375 5.1328125 12.69859375 5.1328125 5.55859375 C0.25802832 3.12120166 -3.45625922 2.4039958 -8.8671875 2.55859375 C-5.69899994 0.44646871 -3.73499498 0.22702911 0 0 Z " fill="#0C2F80" transform="translate(249.8671875,60.44140625)"/>
<path d="M0 0 C6.68646185 0.26907291 11.55784518 0.94733152 17 5 C18.125 7.0625 18.125 7.0625 18 9 C16.5625 10.75 16.5625 10.75 15 12 C14.67 11.01 14.34 10.02 14 9 C12.741875 8.87625 11.48375 8.7525 10.1875 8.625 C1.78794617 7.78626018 -6.60551122 6.88771288 -15 6 C-15 5.67 -15 5.34 -15 5 C-12.22922802 4.83225597 -9.45839073 4.66576064 -6.6875 4.5 C-5.90181641 4.45230469 -5.11613281 4.40460937 -4.30664062 4.35546875 C-3.54931641 4.31035156 -2.79199219 4.26523437 -2.01171875 4.21875 C-1.31522217 4.17685547 -0.61872559 4.13496094 0.09887695 4.09179688 C1.73096966 4.01299029 3.36600579 4 5 4 C5 3.34 5 2.68 5 2 C2.525 1.505 2.525 1.505 0 1 C0 0.67 0 0.34 0 0 Z " fill="#0B2E5D" transform="translate(78,21)"/>
<path d="M0 0 C3.0525 -0.04125 6.105 -0.0825 9.25 -0.125 C10.20551758 -0.14320801 11.16103516 -0.16141602 12.14550781 -0.18017578 C13.28777832 -0.18766846 13.28777832 -0.18766846 14.453125 -0.1953125 C15.22817383 -0.20578613 16.00322266 -0.21625977 16.80175781 -0.22705078 C19.25883539 0.02673444 20.87311542 0.77555848 23 2 C22.67 2.66 22.34 3.32 22 4 C20.68 3.67 19.36 3.34 18 3 C18 2.34 18 1.68 18 1 C12.72 1 7.44 1 2 1 C2.33 11.89 2.66 22.78 3 34 C8.28 34.33 13.56 34.66 19 35 C19 35.33 19 35.66 19 36 C12.73 36 6.46 36 0 36 C0 24.12 0 12.24 0 0 Z " fill="#102D79" transform="translate(317,52)"/>
<path d="M0 0 C3 1 3 1 4 3 C4.08308638 4.37548156 4.10736016 5.75485796 4.09765625 7.1328125 C4.09282227 8.34130859 4.09282227 8.34130859 4.08789062 9.57421875 C4.07951172 10.41597656 4.07113281 11.25773437 4.0625 12.125 C4.05798828 12.97449219 4.05347656 13.82398437 4.04882812 14.69921875 C4.03702874 16.79950909 4.01909306 18.8997633 4 21 C2.35 21 0.7 21 -1 21 C-1.02888146 17.68751813 -1.04675799 14.37506833 -1.0625 11.0625 C-1.07087891 10.11697266 -1.07925781 9.17144531 -1.08789062 8.19726562 C-1.09111328 7.29814453 -1.09433594 6.39902344 -1.09765625 5.47265625 C-1.10289307 4.64000244 -1.10812988 3.80734863 -1.11352539 2.94946289 C-1 1 -1 1 0 0 Z " fill="#02329C" transform="translate(186,66)"/>
<path d="M0 0 C0.33 0 0.66 0 1 0 C1 1.65 1 3.3 1 5 C-2.63 4.34 -6.26 3.68 -10 3 C-10 4.32 -10 5.64 -10 7 C-8.7625 6.979375 -7.525 6.95875 -6.25 6.9375 C-3.3359175 6.93233319 -0.79046673 7.06984442 2 8 C2 9.98 2 11.96 2 14 C1.34 14 0.68 14 0 14 C-0.33 12.68 -0.66 11.36 -1 10 C-2.65 9.67 -4.3 9.34 -6 9 C-6.99 10.32 -7.98 11.64 -9 13 C-9.78375 12.814375 -10.5675 12.62875 -11.375 12.4375 C-13.97089775 11.74037734 -13.97089775 11.74037734 -16 13 C-15.75947814 8.91112832 -15.29124046 6.43686069 -13 3 C-9.18329394 0.45552929 -7.17233823 0.84104374 -2.79296875 1.60546875 C-1.90544922 1.80076172 -1.90544922 1.80076172 -1 2 C-0.67 1.34 -0.34 0.68 0 0 Z " fill="#073188" transform="translate(294,60)"/>
<path d="M0 0 C0.99 0.33 1.98 0.66 3 1 C3.53853921 2.61561763 4.0590286 4.24057875 4.46484375 5.89453125 C5.24185562 8.95153416 6.29410571 11.90456744 7.31640625 14.88671875 C7.97080206 16.90973664 8.50978104 18.93174285 9 21 C6.75 20.9375 6.75 20.9375 4 20 C-1.10212125 13.93261256 -0.41276581 7.62470179 0 0 Z " fill="#4275AB" transform="translate(26,71)"/>
<path d="M0 0 C0.556875 0.7115625 0.556875 0.7115625 1.125 1.4375 C0.795 2.4275 0.465 3.4175 0.125 4.4375 C-0.205 4.1075 -0.535 3.7775 -0.875 3.4375 C-1.205 4.7575 -1.535 6.0775 -1.875 7.4375 C-2.535 7.4375 -3.195 7.4375 -3.875 7.4375 C-4.205 6.1175 -4.535 4.7975 -4.875 3.4375 C-5.50148437 3.53289062 -6.12796875 3.62828125 -6.7734375 3.7265625 C-7.59070313 3.83742188 -8.40796875 3.94828125 -9.25 4.0625 C-10.06210938 4.17851563 -10.87421875 4.29453125 -11.7109375 4.4140625 C-12.42507812 4.42179687 -13.13921875 4.42953125 -13.875 4.4375 C-14.535 3.7775 -15.195 3.1175 -15.875 2.4375 C-15.875 1.1175 -15.875 -0.2025 -15.875 -1.5625 C-4.07267442 -3.39389535 -4.07267442 -3.39389535 0 0 Z " fill="#082F92" transform="translate(253.875,64.5625)"/>
<path d="M0 0 C1.65 0.99 3.3 1.98 5 3 C4.65066406 3.45890625 4.30132812 3.9178125 3.94140625 4.390625 C3.48636719 5.00421875 3.03132813 5.6178125 2.5625 6.25 C2.11003906 6.85328125 1.65757813 7.4565625 1.19140625 8.078125 C-0.10626315 9.95093735 -0.10626315 9.95093735 -0.53515625 12.171875 C-0.68855469 12.77515625 -0.84195313 13.3784375 -1 14 C-1.99 14.495 -1.99 14.495 -3 15 C-3.65213292 17.02463255 -3.65213292 17.02463255 -4 19 C-6.4375 18.625 -6.4375 18.625 -9 18 C-9.33 17.34 -9.66 16.68 -10 16 C-9.34 16 -8.68 16 -8 16 C-7.896875 15.4225 -7.79375 14.845 -7.6875 14.25 C-6.6667378 10.9093237 -4.55317126 8.68082617 -2.375 6 C-0.97432665 3.96265695 -0.43113101 2.41433364 0 0 Z " fill="#4F7BB2" transform="translate(49,51)"/>
<path d="M0 0 C0.99 0.33 1.98 0.66 3 1 C2.34 1 1.68 1 1 1 C1 1.66 1 2.32 1 3 C2.32 3.33 3.64 3.66 5 4 C5 9.28 5 14.56 5 20 C6.32 20.66 7.64 21.32 9 22 C8.34 22.33 7.68 22.66 7 23 C7 23.66 7 24.32 7 25 C10.3 25 13.6 25 17 25 C17 23.68 17 22.36 17 21 C15.02 21 13.04 21 11 21 C11 20.67 11 20.34 11 20 C13.33294775 19.95758277 15.66702567 19.95907063 18 20 C19 21 19 21 19.0625 23.5625 C19.041875 24.366875 19.02125 25.17125 19 26 C17.41870971 26.22331199 15.83478911 26.42804644 14.25 26.625 C12.92742187 26.79902344 12.92742187 26.79902344 11.578125 26.9765625 C8.73650633 27.0023954 7.35162451 26.55715677 5 25 C3.34502644 21.69005287 3.89915665 18.00877 3.9375 14.375 C3.94201172 13.57320312 3.94652344 12.77140625 3.95117188 11.9453125 C3.96296832 9.96350994 3.98090395 7.98174567 4 6 C2.35 5.67 0.7 5.34 -1 5 C-0.67 3.35 -0.34 1.7 0 0 Z " fill="#0E3183" transform="translate(138,62)"/>
<path d="M0 0 C11.26476738 2.83768949 11.26476738 2.83768949 14 7 C15.30772724 10.92318171 15.07146061 12.77433491 13.8125 16.75 C12.04612479 19.91729348 11.38012657 20.9509952 8 22 C8.33 20.68 8.66 19.36 9 18 C9.66 18 10.32 18 11 18 C10.65213292 16.02463255 10.65213292 16.02463255 10 14 C9.34 13.67 8.68 13.34 8 13 C9.32 12.01 10.64 11.02 12 10 C10.68 9.67 9.36 9.34 8 9 C8 8.34 8 7.68 8 7 C8.66 7 9.32 7 10 7 C9.67 6.34 9.34 5.68 9 5 C7.02 5 5.04 5 3 5 C3.33 4.01 3.66 3.02 4 2 C2.68 2 1.36 2 0 2 C0 1.34 0 0.68 0 0 Z " fill="#0A318A" transform="translate(124,65)"/>
<path d="M0 0 C1.32 0.33 2.64 0.66 4 1 C3.34 3.97 2.68 6.94 2 10 C2.99 10.33 3.98 10.66 5 11 C4.67 11.99 4.34 12.98 4 14 C3.34 14 2.68 14 2 14 C2.33 14.99 2.66 15.98 3 17 C1.8125 19.6875 1.8125 19.6875 0 22 C-1.32 22 -2.64 22 -4 22 C-4.33 22.99 -4.66 23.98 -5 25 C-5 24.34 -5 23.68 -5 23 C-8.3 22.34 -11.6 21.68 -15 21 C-11.87110801 20.217777 -9.8599909 19.88566682 -6.75 19.9375 C-4.89375 19.9684375 -4.89375 19.9684375 -3 20 C-3 19.01 -3 18.02 -3 17 C-2.34 16.67 -1.68 16.34 -1 16 C-0.52875971 13.8486534 -0.52875971 13.8486534 -0.375 11.3125 C-0.30152344 10.41402344 -0.22804688 9.51554687 -0.15234375 8.58984375 C0.01644161 5.72049257 0.07561931 2.87353366 0 0 Z M4 8 C4.66 8.66 5.32 9.32 6 10 C5.34 10 4.68 10 4 10 C4 9.34 4 8.68 4 8 Z " fill="#04305C" transform="translate(77,50)"/>
<path d="M0 0 C2 2 2 2 2.375 5.3125 C1.92416165 9.74574381 1.32534914 11.056413 -2 14 C-5.26949146 14.61704936 -8.43781315 14.47150454 -11.75 14.3125 C-12.63816406 14.28994141 -13.52632813 14.26738281 -14.44140625 14.24414062 C-16.62932812 14.18532552 -18.81379671 14.10321268 -21 14 C-21.33 12.35 -21.66 10.7 -22 9 C-21.5875 9.515625 -21.175 10.03125 -20.75 10.5625 C-19.88375 11.2740625 -19.88375 11.2740625 -19 12 C-17.66248568 11.68386025 -16.33005602 11.34617896 -15 11 C-12.91765408 10.93256652 -10.83331443 10.91485528 -8.75 10.9375 C-7.67234375 10.94652344 -6.5946875 10.95554687 -5.484375 10.96484375 C-4.66453125 10.97644531 -3.8446875 10.98804687 -3 11 C-2.01 7.37 -1.02 3.74 0 0 Z " fill="#032E9C" transform="translate(341,73)"/>
<path d="M0 0 C0.66 0 1.32 0 2 0 C2 0.66 2 1.32 2 2 C2.99 2.33 3.98 2.66 5 3 C5.33 4.65 5.66 6.3 6 8 C5.01 8 4.02 8 3 8 C2.67 10.31 2.34 12.62 2 15 C0.68 15.33 -0.64 15.66 -2 16 C-2.05402274 13.89611431 -2.09280256 11.79183286 -2.125 9.6875 C-2.14820313 8.51574219 -2.17140625 7.34398438 -2.1953125 6.13671875 C-2 3 -2 3 0 0 Z " fill="#012F9F" transform="translate(401,71)"/>
<path d="M0 0 C-2.33214148 1.20628008 -4.49642139 2.1654738 -7 3 C-5.68 3.99 -4.36 4.98 -3 6 C-5.24940295 6.08119503 -7.49964871 6.13927819 -9.75 6.1875 C-11.00296875 6.22230469 -12.2559375 6.25710937 -13.546875 6.29296875 C-17.1381757 5.98827695 -18.533239 5.57265731 -21 3 C-21 2.34 -21 1.68 -21 1 C-14.03220597 -0.32719886 -7.07011089 -0.08825381 0 0 Z " fill="#214D79" transform="translate(57,33)"/>
<path d="M0 0 C2.16444535 3.24666802 2.31610724 4.61967165 1.75 8.3984375 C0.06715671 14.23580015 -2.92932636 19.77347235 -6 25 C-6.66 25.33 -7.32 25.66 -8 26 C-7.67 22.7 -7.34 19.4 -7 16 C-6.01 15.67 -5.02 15.34 -4 15 C-3.67 14.34 -3.34 13.68 -3 13 C-2.34 13 -1.68 13 -1 13 C-1 11.02 -1 9.04 -1 7 C-1.66 7 -2.32 7 -3 7 C-3.66 7.66 -4.32 8.32 -5 9 C-4.75 5.625 -4.75 5.625 -4 2 C-1.9375 0.5625 -1.9375 0.5625 0 0 Z " fill="#072848" transform="translate(97,75)"/>
<path d="M0 0 C0.226875 0.53625 0.45375 1.0725 0.6875 1.625 C2.00213215 4.22071491 2.00213215 4.22071491 4.5625 6.8125 C7.33415336 10.02988709 7.62211525 12.76769076 8 17 C8.65509503 19.00382009 9.31974363 21.00458132 10 23 C10 23.99 10 24.98 10 26 C6.74456771 25.65120368 5.98126893 24.97866739 3.75 22.4375 C3.1725 21.633125 2.595 20.82875 2 20 C2.99 19.67 3.98 19.34 5 19 C4.54857225 17.22739369 4.08859477 15.4569632 3.625 13.6875 C3.36976562 12.70136719 3.11453125 11.71523437 2.8515625 10.69921875 C2.08086826 7.8194184 2.08086826 7.8194184 0 5 C-0.125 2.3125 -0.125 2.3125 0 0 Z " fill="#295F99" transform="translate(29,72)"/>
<path d="M0 0 C0.8723412 2.99480917 1.10829766 5.63575911 1.0625 8.75 C1.05347656 9.54921875 1.04445313 10.3484375 1.03515625 11.171875 C1.02355469 11.77515625 1.01195313 12.3784375 1 13 C0.67 12.34 0.34 11.68 0 11 C-0.45375 11.495 -0.9075 11.99 -1.375 12.5 C-3 14 -3 14 -5 14 C-5.125 7.25 -5.125 7.25 -4 5 C-7.96 5 -11.92 5 -16 5 C-16 4.67 -16 4.34 -16 4 C-15.15695313 3.79503906 -14.31390625 3.59007812 -13.4453125 3.37890625 C-12.34960938 3.10949219 -11.25390625 2.84007812 -10.125 2.5625 C-9.03445312 2.29566406 -7.94390625 2.02882812 -6.8203125 1.75390625 C-0.25906736 0 -0.25906736 0 0 0 Z " fill="#052E56" transform="translate(84,46)"/>
<path d="M0 0 C2.97 0 5.94 0 9 0 C8.67 1.32 8.34 2.64 8 4 C8.66 4 9.32 4 10 4 C8.8141763 7.37503669 7.72426311 9.64722731 5 12 C0 3.81818182 0 3.81818182 0 0 Z " fill="#0C3A72" transform="translate(63,83)"/>
<path d="M0 0 C2.31 0 4.62 0 7 0 C7.33 0.99 7.66 1.98 8 3 C7.34 3 6.68 3 6 3 C6 3.66 6 4.32 6 5 C7.65 5 9.3 5 11 5 C10.484375 5.7425 9.96875 6.485 9.4375 7.25 C7.75057228 9.83215454 7.75057228 9.83215454 8.3125 12.3125 C8.6528125 13.1478125 8.6528125 13.1478125 9 14 C8.01 14.495 8.01 14.495 7 15 C6.67 15.99 6.34 16.98 6 18 C4.68 17.34 3.36 16.68 2 16 C2.66 16 3.32 16 4 16 C5.16063604 11.74433453 4.76173392 8.3164922 4 4 C2.68 4 1.36 4 0 4 C0 2.68 0 1.36 0 0 Z " fill="#0232A2" transform="translate(126,69)"/>
<path d="M0 0 C0.515625 0.495 1.03125 0.99 1.5625 1.5 C1.2325 2.16 0.9025 2.82 0.5625 3.5 C-0.0975 2.84 -0.7575 2.18 -1.4375 1.5 C-4.09287372 0.93479997 -6.72894713 0.76211802 -9.4375 0.5 C-8.1175 1.16 -6.7975 1.82 -5.4375 2.5 C-5.4375 3.49 -5.4375 4.48 -5.4375 5.5 C-6.89385371 5.72174933 -8.35272956 5.92698698 -9.8125 6.125 C-10.62460937 6.24101563 -11.43671875 6.35703125 -12.2734375 6.4765625 C-12.98757813 6.48429687 -13.70171875 6.49203125 -14.4375 6.5 C-15.0975 5.84 -15.7575 5.18 -16.4375 4.5 C-16.4375 3.18 -16.4375 1.86 -16.4375 0.5 C-5.1675 -3.18 -5.1675 -3.18 0 0 Z " fill="#0B2F83" transform="translate(363.4375,62.5)"/>
<path d="M0 0 C1.49076829 0.87639106 2.96733869 1.77696328 4.4375 2.6875 C5.67306641 3.43580078 5.67306641 3.43580078 6.93359375 4.19921875 C9.43719323 6.38099448 9.69593558 7.75480334 10 11 C9.01 11.66 8.02 12.32 7 13 C6.13375 11.7934375 6.13375 11.7934375 5.25 10.5625 C3.01873107 8.02133261 2.25543229 7.34879632 -1 7 C-1.04254356 5.00045254 -1.04080783 2.99958364 -1 1 C-0.67 0.67 -0.34 0.34 0 0 Z " fill="#2E5B91" transform="translate(26,35)"/>
<path d="M0 0 C0.33 0 0.66 0 1 0 C0.67 6.6 0.34 13.2 0 20 C-0.66 20.33 -1.32 20.66 -2 21 C-4 19 -4 19 -4.265625 17.1171875 C-4.22824761 11.75353197 -3.49918237 7.15343941 -2 2 C-1.34 2 -0.68 2 0 2 C0 1.34 0 0.68 0 0 Z " fill="#0A3562" transform="translate(18,32)"/>
<path d="M0 0 C1.70884005 1.62339805 3.37446717 3.29319053 5 5 C5 5.66 5 6.32 5 7 C6.65 6.67 8.3 6.34 10 6 C12.15377564 8.62198774 13.40072174 10.64404172 14 14 C12.68 14.99 11.36 15.98 10 17 C9.443125 15.9275 8.88625 14.855 8.3125 13.75 C6.36736948 10.3218799 4.17649883 8.36201195 1 6 C-0.8125 3.75 -0.8125 3.75 -2 2 C-1.34 2 -0.68 2 0 2 C0 1.34 0 0.68 0 0 Z " fill="#14315F" transform="translate(39,96)"/>
<path d="M0 0 C0 0.33 0 0.66 0 1 C-0.90242432 1.08040527 -1.80484863 1.16081055 -2.73461914 1.24365234 C-6.11031446 1.54767527 -9.48534126 1.85776767 -12.86010742 2.171875 C-14.31561682 2.30611553 -15.77134618 2.43799434 -17.22729492 2.56738281 C-19.33055103 2.7547232 -21.43284667 2.9507894 -23.53515625 3.1484375 C-24.797229 3.26364746 -26.05930176 3.37885742 -27.35961914 3.49755859 C-32.10064793 4.15191023 -36.47128745 5.49042915 -41 7 C-41 7.66 -41 8.32 -41 9 C-41.66 8.67 -42.32 8.34 -43 8 C-42.02319791 5.33599431 -41.44372618 4.22024365 -38.859375 2.9375 C-26.57495656 -1.09017818 -12.75041427 -0.23515108 0 0 Z " fill="#123C75" transform="translate(59,25)"/>
<path d="M0 0 C2.3125 2 2.3125 2 4 4 C3.07767578 3.96519531 3.07767578 3.96519531 2.13671875 3.9296875 C1.32847656 3.91164063 0.52023438 3.89359375 -0.3125 3.875 C-1.51326172 3.84019531 -1.51326172 3.84019531 -2.73828125 3.8046875 C-5.28388576 3.84182678 -5.28388576 3.84182678 -8 6 C-8.33 6.99 -8.66 7.98 -9 9 C-9.66 9 -10.32 9 -11 9 C-11 10.65 -11 12.3 -11 14 C-11.66 14 -12.32 14 -13 14 C-13.99 11.69 -14.98 9.38 -16 7 C-15.360625 6.87625 -14.72125 6.7525 -14.0625 6.625 C-13.381875 6.41875 -12.70125 6.2125 -12 6 C-11.67 5.34 -11.34 4.68 -11 4 C-10.34 4 -9.68 4 -9 4 C-8.67 3.01 -8.34 2.02 -8 1 C-4.95713516 -0.01428828 -3.16374283 -0.3858223 0 0 Z " fill="#2A5B89" transform="translate(57,66)"/>
<path d="M0 0 C1.98 0.495 1.98 0.495 4 1 C3.67 6.28 3.34 11.56 3 17 C1.68 16.34 0.36 15.68 -1 15 C-1.02693575 12.87506859 -1.04636628 10.75004088 -1.0625 8.625 C-1.07410156 7.44164062 -1.08570313 6.25828125 -1.09765625 5.0390625 C-1 2 -1 2 0 0 Z " fill="#02319F" transform="translate(400,51)"/>
<path d="M0 0 C0 0.66 0 1.32 0 2 C-1.32 1.67 -2.64 1.34 -4 1 C-4.33 1.66 -4.66 2.32 -5 3 C-5.66 2.67 -6.32 2.34 -7 2 C-7.33 2.99 -7.66 3.98 -8 5 C-10.31 4.67 -12.62 4.34 -15 4 C-15.12246094 4.56203125 -15.24492187 5.1240625 -15.37109375 5.703125 C-16.0519869 8.18986519 -16.99352325 10.40514776 -18.0625 12.75 C-18.60583984 13.94882812 -18.60583984 13.94882812 -19.16015625 15.171875 C-19.43730469 15.77515625 -19.71445312 16.3784375 -20 17 C-20.33 17 -20.66 17 -21 17 C-21.32764303 12.90446218 -21.23069669 10.46139337 -19.375 6.75 C-14.10958981 0.65320926 -7.6743188 -0.17847253 0 0 Z " fill="#275588" transform="translate(32,21)"/>
<path d="M0 0 C0.66 0 1.32 0 2 0 C1.88601335 1.62580966 1.75844341 3.25067157 1.625 4.875 C1.55539063 5.77992187 1.48578125 6.68484375 1.4140625 7.6171875 C1 10 1 10 -1 12 C-1.33 12.99 -1.66 13.98 -2 15 C-4.31 15 -6.62 15 -9 15 C-6.61506276 9.35146444 -6.61506276 9.35146444 -3.375 7.5 C-0.65211133 6.16090952 -0.65211133 6.16090952 -0.1875 2.8125 C-0.0946875 1.4203125 -0.0946875 1.4203125 0 0 Z " fill="#124B91" transform="translate(76,56)"/>
<path d="M0 0 C0 0.66 0 1.32 0 2 C0.99 2.33 1.98 2.66 3 3 C2.34 3 1.68 3 1 3 C1.95865509 5.33075929 1.95865509 5.33075929 5 7 C5.6875 10.125 5.6875 10.125 6 13 C6.66 13 7.32 13 8 13 C8 13.66 8 14.32 8 15 C3.81181221 13.68228785 2.06508824 12.27273352 -0.25 8.5625 C-0.75015625 7.78003906 -1.2503125 6.99757813 -1.765625 6.19140625 C-3 4 -3 4 -4 1 C-2 0 -2 0 0 0 Z " fill="#052F5C" transform="translate(16,89)"/>
<path d="M0 0 C0.66 0 1.32 0 2 0 C2.0825 0.94875 2.165 1.8975 2.25 2.875 C2.65074923 6.10461791 2.65074923 6.10461791 5.0625 7.375 C5.701875 7.58125 6.34125 7.7875 7 8 C7 8.99 7 9.98 7 11 C4.69 11 2.38 11 0 11 C0 10.34 0 9.68 0 9 C-0.99 8.67 -1.98 8.34 -3 8 C-1.125 1.125 -1.125 1.125 0 0 Z " fill="#02319F" transform="translate(349,76)"/>
<path d="M0 0 C3 1 3 1 6 3 C6 3.99 6 4.98 6 6 C7.4540625 6.185625 7.4540625 6.185625 8.9375 6.375 C10.4534375 6.684375 10.4534375 6.684375 12 7 C12.33 7.66 12.66 8.32 13 9 C9.14896842 10.38637137 5.9245222 9.99896929 2 9 C0 6.6875 0 6.6875 -1 4 C-0.6875 1.6875 -0.6875 1.6875 0 0 Z " fill="#0331A1" transform="translate(212,77)"/>
<path d="M0 0 C0.99 0.495 0.99 0.495 2 1 C1.67 12.55 1.34 24.1 1 36 C2.98 35.505 2.98 35.505 5 35 C5.66 32.69 6.32 30.38 7 28 C7.33 28 7.66 28 8 28 C8 30.97 8 33.94 8 37 C5.36 37 2.72 37 0 37 C0 24.79 0 12.58 0 0 Z " fill="#14326D" transform="translate(397,51)"/>
<path d="M0 0 C4.31392226 0.4793247 6.16569547 1.7457985 9 5 C9.33 4.67 9.66 4.34 10 4 C11.66617115 3.95936168 13.33388095 3.957279 15 4 C15 4.33 15 4.66 15 5 C17.31 5.33 19.62 5.66 22 6 C22 6.33 22 6.66 22 7 C16.72 7.66 11.44 8.32 6 9 C5.34 7.35 4.68 5.7 4 4 C3.67 3.67 3.34 3.34 3 3 C2.34 3.99 1.68 4.98 1 6 C0.67 4.02 0.34 2.04 0 0 Z " fill="#547DAD" transform="translate(25,42)"/>
<path d="M0 0 C2 1.8125 2 1.8125 4 4 C4 4.99 4 5.98 4 7 C4.66 7 5.32 7 6 7 C7.33333333 9.66666667 8.66666667 12.33333333 10 15 C10.556875 16.03640625 10.556875 16.03640625 11.125 17.09375 C12.22447698 19.48903913 12.14467982 21.39576316 12 24 C8.51939186 19.67851099 6.18070488 14.79747816 3.62109375 9.8984375 C2.16127053 6.97995469 2.16127053 6.97995469 0 5 C-0.125 2.375 -0.125 2.375 0 0 Z " fill="#6985AD" transform="translate(27,44)"/>
<path d="M0 0 C1.65 0 3.3 0 5 0 C6.32 2.97 7.64 5.94 9 9 C8.34 9 7.68 9 7 9 C5.375 7 5.375 7 4 5 C4.74359673 10.55053286 4.74359673 10.55053286 6 16 C5.34 16 4.68 16 4 16 C0.67424388 10.4174808 -0.46450943 6.50313209 0 0 Z " fill="#0E325C" transform="translate(45,74)"/>
<path d="M0 0 C4.33333333 0 8.66666667 0 13 0 C12.67 0.99 12.34 1.98 12 3 C9.69 3.33 7.38 3.66 5 4 C5 3.01 5 2.02 5 1 C4.01 1 3.02 1 2 1 C2 8.92 2 16.84 2 25 C1.67 25 1.34 25 1 25 C0.67 16.75 0.34 8.5 0 0 Z " fill="#0C3082" transform="translate(261,62)"/>
<path d="M0 0 C1.74867484 2.62301226 3.23671878 5.20651868 4.6875 8 C5.37392578 9.299375 5.37392578 9.299375 6.07421875 10.625 C7 13 7 13 6 16 C3.625 15.0625 3.625 15.0625 1 13 C-0.74555178 8.56898394 -1.44145832 4.58550872 0 0 Z " fill="#134475" transform="translate(30,65)"/>
<path d="M0 0 C1.8871875 0.0309375 1.8871875 0.0309375 3.8125 0.0625 C3.8125 0.3925 3.8125 0.7225 3.8125 1.0625 C1.8325 1.3925 -0.1475 1.7225 -2.1875 2.0625 C-2.1875 2.7225 -2.1875 3.3825 -2.1875 4.0625 C-0.5375 4.0625 1.1125 4.0625 2.8125 4.0625 C2.173125 4.330625 1.53375 4.59875 0.875 4.875 C-1.51881686 5.94917752 -1.51881686 5.94917752 -2.1875 9.0625 C-0.8675 9.7225 0.4525 10.3825 1.8125 11.0625 C-0.4975 10.7325 -2.8075 10.4025 -5.1875 10.0625 C-5.1875 8.4125 -5.1875 6.7625 -5.1875 5.0625 C-6.5075 5.0625 -7.8275 5.0625 -9.1875 5.0625 C-8.375 3.125 -8.375 3.125 -7.1875 1.0625 C-4.43671116 0.14557039 -2.82801087 -0.04636083 0 0 Z " fill="#0C3088" transform="translate(246.1875,71.9375)"/>
<path d="M0 0 C0.33 0.66 0.66 1.32 1 2 C0.34 2 -0.32 2 -1 2 C-1 2.66 -1 3.32 -1 4 C-3.40545638 5.20272819 -4.94996953 5.10071472 -7.625 5.0625 C-8.85089844 5.04896484 -8.85089844 5.04896484 -10.1015625 5.03515625 C-11.04128906 5.01775391 -11.04128906 5.01775391 -12 5 C-12 4.01 -12 3.02 -12 2 C-7.8794254 0.00214565 -4.54805635 -0.17835515 0 0 Z " fill="#053199" transform="translate(173,62)"/>
<path d="M0 0 C0.66 0.33 1.32 0.66 2 1 C2.27429625 6.39449293 2.36055646 9.51925805 -1 14 C-0.34 14.33 0.32 14.66 1 15 C0.67 15.66 0.34 16.32 0 17 C-2 15.1875 -2 15.1875 -4 13 C-4 12.01 -4 11.02 -4 10 C-3.34 10 -2.68 10 -2 10 C-1.93941406 9.36191406 -1.87882812 8.72382812 -1.81640625 8.06640625 C-1.73261719 7.24011719 -1.64882813 6.41382813 -1.5625 5.5625 C-1.48128906 4.73878906 -1.40007812 3.91507813 -1.31640625 3.06640625 C-1 1 -1 1 0 0 Z " fill="#072C87" transform="translate(340,56)"/>
<path d="M0 0 C0.8971875 0.5259375 0.8971875 0.5259375 1.8125 1.0625 C1.4825 1.7225 1.1525 2.3825 0.8125 3.0625 C0.008125 3.31 -0.79625 3.5575 -1.625 3.8125 C-4.51121184 4.87205402 -4.51121184 4.87205402 -5.5 8.1875 C-5.8403125 9.610625 -5.8403125 9.610625 -6.1875 11.0625 C-6.8475 11.0625 -7.5075 11.0625 -8.1875 11.0625 C-8.5175 11.7225 -8.8475 12.3825 -9.1875 13.0625 C-9.73748918 7.42511092 -8.30338996 4.6027968 -5.1875 0.0625 C-2.1875 -0.9375 -2.1875 -0.9375 0 0 Z " fill="#215999" transform="translate(22.1875,24.9375)"/>
<path d="M0 0 C5.61 0 11.22 0 17 0 C12.95251535 4.04748465 10.6803763 3.94665472 5.0625 4.125 C1.63015659 4.08592209 -1.62858159 3.67428368 -5 3 C-5 2.67 -5 2.34 -5 2 C-3.35 1.67 -1.7 1.34 0 1 C0 0.67 0 0.34 0 0 Z " fill="#0B4287" transform="translate(56,21)"/>
<path d="M0 0 C2.88208966 0.64046437 4.56717555 1.34730626 6.22265625 3.84375 C9 9.33870968 9 9.33870968 9 12 C8.34 12 7.68 12 7 12 C7 13.32 7 14.64 7 16 C6.34 16.33 5.68 16.66 5 17 C3.8125645 13.75434296 2.97365048 10.80896598 2.5 7.375 C2.05940269 4.40096816 1.52461833 2.54103055 0 0 Z " fill="#0E3B63" transform="translate(33,78)"/>
<path d="M0 0 C2 3 2 3 2.9375 5.375 C3.92786178 8.08963216 3.92786178 8.08963216 5.75 10.5625 C6.1625 11.366875 6.575 12.17125 7 13 C6.1875 15.3125 6.1875 15.3125 5 17 C4.67 16.01 4.34 15.02 4 14 C3.01 13.34 2.02 12.68 1 12 C-0.96665421 8.27370781 -1.28508721 5.18127911 -1 1 C-0.67 0.67 -0.34 0.34 0 0 Z " fill="#002851" transform="translate(16,82)"/>
<path d="M0 0 C0.98484375 0.10183594 1.9696875 0.20367187 2.984375 0.30859375 C3.73203125 0.39238281 4.4796875 0.47617187 5.25 0.5625 C5.25 1.5525 5.25 2.5425 5.25 3.5625 C-1.02 3.2325 -7.29 2.9025 -13.75 2.5625 C-8.57622978 -0.02438511 -5.73151665 -0.61409107 0 0 Z " fill="#0F3B65" transform="translate(62.75,33.4375)"/>
<path d="M0 0 C0.99 0.33 1.98 0.66 3 1 C3.66 4.96 4.32 8.92 5 13 C4.01 13 3.02 13 2 13 C-0.24828052 8.50343896 -0.16682272 4.92127034 0 0 Z " fill="#5581BD" transform="translate(26,71)"/>
<path d="M0 0 C0 0.66 0 1.32 0 2 C2.64 3.32 5.28 4.64 8 6 C4.79937313 7.60031344 2.27728194 6.03173691 -1 5 C-1 4.34 -1 3.68 -1 3 C-3.64 3 -6.28 3 -9 3 C-9.33 2.01 -9.66 1.02 -10 0 C-6.30581799 -1.231394 -3.7943739 -0.64432764 0 0 Z " fill="#25578A" transform="translate(48,45)"/>
<path d="M0 0 C2.64 0 5.28 0 8 0 C7.60196439 2.88575819 7.20990931 3.82189513 4.9375 5.75 C4.298125 6.1625 3.65875 6.575 3 7 C3 6.01 3 5.02 3 4 C1.35 4 -0.3 4 -2 4 C-1.34 2.68 -0.68 1.36 0 0 Z " fill="#0D2E88" transform="translate(412,62)"/>
<path d="M0 0 C0 1.98 0 3.96 0 6 C-1.65 6.33 -3.3 6.66 -5 7 C-5.33 7.99 -5.66 8.98 -6 10 C-6 9.34 -6 8.68 -6 8 C-9.3 7.34 -12.6 6.68 -16 6 C-12.87110801 5.217777 -10.8599909 4.88566682 -7.75 4.9375 C-5.89375 4.9684375 -5.89375 4.9684375 -4 5 C-4 4.01 -4 3.02 -4 2 C-1 0 -1 0 0 0 Z " fill="#103770" transform="translate(78,65)"/>
<path d="M0 0 C0.66 0.33 1.32 0.66 2 1 C2 3 2 5 2 7 C6.62 7 11.24 7 16 7 C11.89311354 9.05344323 10.78293583 9.19932398 6.4375 8.75 C5.48746094 8.66234375 4.53742188 8.5746875 3.55859375 8.484375 C1 8 1 8 -2 6 C-1.125 1.125 -1.125 1.125 0 0 Z " fill="#102C7A" transform="translate(116,80)"/>
<path d="M0 0 C0.33 2.31 0.66 4.62 1 7 C0.30519531 6.67257813 -0.38960937 6.34515625 -1.10546875 6.0078125 C-4.36368828 4.87337169 -6.87449502 4.79943945 -10.3125 4.875 C-11.38113281 4.89304687 -12.44976562 4.91109375 -13.55078125 4.9296875 C-14.76314453 4.96449219 -14.76314453 4.96449219 -16 5 C-16 4.67 -16 4.34 -16 4 C-15.15695313 3.79503906 -14.31390625 3.59007812 -13.4453125 3.37890625 C-12.34960938 3.10949219 -11.25390625 2.84007812 -10.125 2.5625 C-9.03445312 2.29566406 -7.94390625 2.02882812 -6.8203125 1.75390625 C-0.25906736 0 -0.25906736 0 0 0 Z " fill="#0D2C4C" transform="translate(84,46)"/>
<path d="M0 0 C1.17755859 0.14695313 1.17755859 0.14695313 2.37890625 0.296875 C3.55259766 0.42835937 3.55259766 0.42835937 4.75 0.5625 C6.94140625 1.046875 6.94140625 1.046875 9.94140625 3.046875 C9.94140625 3.706875 9.94140625 4.366875 9.94140625 5.046875 C4.97046801 4.63533763 0.49632239 4.25086668 -4.05859375 2.046875 C-2.05859375 0.046875 -2.05859375 0.046875 0 0 Z " fill="#275F99" transform="translate(60.05859375,36.953125)"/>
<path d="M0 0 C0.5775 0.45375 1.155 0.9075 1.75 1.375 C3.7800333 2.84113516 5.73539843 3.94857784 8 5 C8 5.99 8 6.98 8 8 C5.69 8 3.38 8 1 8 C0.17361624 5.10765685 0 3.11257569 0 0 Z " fill="#0334A0" transform="translate(160,79)"/>
<path d="M0 0 C0.99 0.495 0.99 0.495 2 1 C2 1.66 2 2.32 2 3 C3.65 3 5.3 3 7 3 C7.93065133 5.60582371 8.14917407 6.64198224 7.0625 9.25 C6.711875 9.8275 6.36125 10.405 6 11 C3.57223333 9.70519111 2.23032326 8.64161481 1.2890625 6.01953125 C0.80217802 4.0261274 0.39608139 2.01341375 0 0 Z " fill="#022757" transform="translate(48,98)"/>
<path d="M0 0 C3 1 3 1 4.39453125 2.51953125 C6.48490487 4.44715072 7.88536595 4.48444681 10.6875 4.6875 C11.49574219 4.75324219 12.30398437 4.81898437 13.13671875 4.88671875 C13.75160156 4.92410156 14.36648437 4.96148437 15 5 C13.71484375 6.50390625 13.71484375 6.50390625 12 8 C8.03353584 7.92788247 5.76543122 7.6042878 2.625 5.125 C1 3 1 3 0 0 Z " fill="#0B2B80" transform="translate(210,81)"/>
<path d="M0 0 C-0.33 2.31 -0.66 4.62 -1 7 C-4.3 6.34 -7.6 5.68 -11 5 C-11 4.67 -11 4.34 -11 4 C-8.36 4 -5.72 4 -3 4 C-3 3.34 -3 2.68 -3 2 C-4.32 1.67 -5.64 1.34 -7 1 C-4.53721199 -0.231394 -2.7204945 -0.07159196 0 0 Z " fill="#0C2C82" transform="translate(137,53)"/>
<path d="M0 0 C2 3.75 2 3.75 2 6 C5.92818776 8.03182126 9.65867693 9.17866861 14 10 C13.34 10.66 12.68 11.32 12 12 C8.2346449 11.8605424 5.75927188 11.51950181 2.625 9.375 C0.51872954 6.29660472 0.2828463 3.67700184 0 0 Z " fill="#0B2A77" transform="translate(278,77)"/>
<path d="M0 0 C1.32 0.66 2.64 1.32 4 2 C3.67 4.31 3.34 6.62 3 9 C2.01 8.67 1.02 8.34 0 8 C-0.33 8.99 -0.66 9.98 -1 11 C-1.0270043 9.54176788 -1.04639787 8.08339325 -1.0625 6.625 C-1.07410156 5.81289062 -1.08570312 5.00078125 -1.09765625 4.1640625 C-1 2 -1 2 0 0 Z " fill="#265891" transform="translate(26,63)"/>
<path d="M0 0 C2.31 0 4.62 0 7 0 C5.68 0.33 4.36 0.66 3 1 C3 1.66 3 2.32 3 3 C3.66 3.33 4.32 3.66 5 4 C4.01 5.485 4.01 5.485 3 7 C2.34 7 1.68 7 1 7 C1 8.65 1 10.3 1 12 C0.67 12 0.34 12 0 12 C0 8.04 0 4.08 0 0 Z " fill="#0C3389" transform="translate(225,51)"/>
<path d="M0 0 C6.45892714 -0.40368295 11.06108578 0.4084738 17 3 C13.98968256 3.93423645 13.13349732 4.04449911 10 3 C9.67 3.66 9.34 4.32 9 5 C7.68 4.34 6.36 3.68 5 3 C5 2.67 5 2.34 5 2 C3.35 1.67 1.7 1.34 0 1 C0 0.67 0 0.34 0 0 Z " fill="#1D456C" transform="translate(42,44)"/>
<path d="M0 0 C2 2 2 2 2.375 5.3125 C1.94623108 9.52872769 1.00545229 11.08294336 -2 14 C-2.66 14 -3.32 14 -4 14 C-4 13.34 -4 12.68 -4 12 C-3.34 11.67 -2.68 11.34 -2 11 C-1.59367909 9.01354224 -1.27050453 7.00946222 -1 5 C-0.67364302 3.33195323 -0.34274406 1.66475686 0 0 Z " fill="#092A79" transform="translate(341,73)"/>
<path d="M0 0 C1.75570313 0.02707031 1.75570313 0.02707031 3.546875 0.0546875 C4.88492188 0.08949219 4.88492188 0.08949219 6.25 0.125 C6.25 0.455 6.25 0.785 6.25 1.125 C5.03763672 1.30675781 5.03763672 1.30675781 3.80078125 1.4921875 C2.73214844 1.65976562 1.66351563 1.82734375 0.5625 2 C-0.49324219 2.16242187 -1.54898437 2.32484375 -2.63671875 2.4921875 C-5.54794914 3.08393069 -8.03955607 3.9281806 -10.75 5.125 C-10.75 5.785 -10.75 6.445 -10.75 7.125 C-11.41 6.795 -12.07 6.465 -12.75 6.125 C-11.82953704 3.82384261 -11.16934716 2.40983958 -9.09375 1 C-5.97478959 -0.16441189 -3.31910406 -0.06638208 0 0 Z " fill="#1A4B79" transform="translate(28.75,26.875)"/>
<path d="M0 0 C0.90492187 0.30357422 0.90492187 0.30357422 1.828125 0.61328125 C0.25022902 1.76659072 -1.3344232 2.91066052 -2.921875 4.05078125 C-3.80359375 4.68886719 -4.6853125 5.32695313 -5.59375 5.984375 C-7.89886625 7.44078935 -9.51537072 8.17259946 -12.171875 8.61328125 C-11.841875 7.62328125 -11.511875 6.63328125 -11.171875 5.61328125 C-9.851875 5.61328125 -8.531875 5.61328125 -7.171875 5.61328125 C-7.171875 4.95328125 -7.171875 4.29328125 -7.171875 3.61328125 C-2.92048515 -0.52001444 -2.92048515 -0.52001444 0 0 Z " fill="#0D2A48" transform="translate(77.171875,112.38671875)"/>
<path d="M0 0 C-1.1858237 3.37503669 -2.27573689 5.64722731 -5 8 C-6.4606285 5.35261084 -7 4.10551666 -7 1 C-2.25 0 -2.25 0 0 0 Z " fill="#063168" transform="translate(73,87)"/>
<path d="M0 0 C0.66 0.33 1.32 0.66 2 1 C1.67 1.99 1.34 2.98 1 4 C0.34 4 -0.32 4 -1 4 C-1 5.65 -1 7.3 -1 9 C-1.66 9 -2.32 9 -3 9 C-3.99 6.69 -4.98 4.38 -6 2 C-4.02 2 -2.04 2 0 2 C0 1.34 0 0.68 0 0 Z " fill="#214C79" transform="translate(47,71)"/>
<path d="M0 0 C0.66 0.66 1.32 1.32 2 2 C-1.28976808 3.09658936 -2.71303767 2.79953138 -6 2 C-6.33 2.99 -6.66 3.98 -7 5 C-9.0625 5.6875 -9.0625 5.6875 -11 6 C-7.89449086 0.49477925 -6.39047772 -0.39940486 0 0 Z " fill="#103585" transform="translate(222,61)"/>
<path d="M0 0 C0 0.66 0 1.32 0 2 C0.99 2.33 1.98 2.66 3 3 C2.34 3 1.68 3 1 3 C1.33 4.65 1.66 6.3 2 8 C-0.99324263 6.9024777 -1.84610901 6.32317108 -3.25 3.375 C-3.4975 2.59125 -3.745 1.8075 -4 1 C-2 0 -2 0 0 0 Z " fill="#093466" transform="translate(16,89)"/>
<path d="M0 0 C1.98 0.99 1.98 0.99 4 2 C4.75 5.125 4.75 5.125 5 8 C4.01 8.33 3.02 8.66 2 9 C1.34 6.03 0.68 3.06 0 0 Z " fill="#103D79" transform="translate(10,81)"/>
<path d="M0 0 C2.10827055 3.16240582 2.33817465 4.50657469 2.625 8.1875 C2.69976562 9.08855469 2.77453125 9.98960938 2.8515625 10.91796875 C2.90054688 11.60503906 2.94953125 12.29210937 3 13 C2.01 13.33 1.02 13.66 0 14 C0 9.38 0 4.76 0 0 Z " fill="#033493" transform="translate(226,69)"/>
<path d="M0 0 C2.64 0 5.28 0 8 0 C7.67 0.66 7.34 1.32 7 2 C6.34 2 5.68 2 5 2 C5 2.66 5 3.32 5 4 C3.35 4 1.7 4 0 4 C0 2.68 0 1.36 0 0 Z " fill="#164E86" transform="translate(40,35)"/>
<path d="M0 0 C2.46301423 2.46301423 2.76766521 4.27360036 3.625 7.625 C3.88539062 8.62789062 4.14578125 9.63078125 4.4140625 10.6640625 C4.60742188 11.43492188 4.80078125 12.20578125 5 13 C4.34 13 3.68 13 3 13 C-1.07877462 5.9452954 -1.07877462 5.9452954 -0.75 2 C-0.5025 1.34 -0.255 0.68 0 0 Z " fill="#123A65" transform="translate(46,77)"/>
<path d="M0 0 C1.55693206 2.33539809 2.90200646 4.57968756 4.1875 7.0625 C4.55230469 7.75472656 4.91710938 8.44695312 5.29296875 9.16015625 C5.52628906 9.76730469 5.75960937 10.37445313 6 11 C5.67 11.66 5.34 12.32 5 13 C4.34 12.67 3.68 12.34 3 12 C3 10.68 3 9.36 3 8 C2.34 8 1.68 8 1 8 C0.34 5.69 -0.32 3.38 -1 1 C-0.67 0.67 -0.34 0.34 0 0 Z " fill="#24486D" transform="translate(30,65)"/>
<path d="M0 0 C0.99 0 1.98 0 3 0 C3.99 1.98 4.98 3.96 6 6 C4.02 6 2.04 6 0 6 C-1.125 2.25 -1.125 2.25 0 0 Z " fill="#0131A4" transform="translate(117,60)"/>
<path d="M0 0 C0 0.33 0 0.66 0 1 C2.31 1.33 4.62 1.66 7 2 C7 2.33 7 2.66 7 3 C2.05 3 -2.9 3 -8 3 C-6.18317104 -0.63365792 -3.70249681 -0.09743413 0 0 Z " fill="#3B6BA4" transform="translate(40,46)"/>
<path d="M0 0 C0.66 0 1.32 0 2 0 C1.67 3.3 1.34 6.6 1 10 C0.01 10 -0.98 10 -2 10 C-2 6.38970831 -1.03907418 3.44193324 0 0 Z " fill="#124382" transform="translate(76,56)"/>
<path d="M0 0 C0.226875 0.53625 0.45375 1.0725 0.6875 1.625 C2.01622666 4.23743909 2.01622666 4.23743909 4.625 6.9375 C7 10 7 10 7.3125 12.875 C7.209375 13.57625 7.10625 14.2775 7 15 C5.9838154 13.67896002 4.98866506 12.34175973 4 11 C3.278125 10.030625 2.55625 9.06125 1.8125 8.0625 C-0.03630968 4.93864915 -0.41587631 3.53494863 0 0 Z " fill="#1B4F86" transform="translate(29,72)"/>
<path d="M0 0 C2.97 0.33 5.94 0.66 9 1 C9 2.98 9 4.96 9 7 C8.34 7 7.68 7 7 7 C6.67 5.68 6.34 4.36 6 3 C2.41672247 1.99782936 2.41672247 1.99782936 -1 3 C-0.67 2.01 -0.34 1.02 0 0 Z " fill="#092E88" transform="translate(287,67)"/>
<path d="M0 0 C2.31 0.33 4.62 0.66 7 1 C7 2.32 7 3.64 7 5 C4.61435923 4.42415568 2.33317216 3.77772405 0 3 C0 2.01 0 1.02 0 0 Z " fill="#0C3D6A" transform="translate(52,47)"/>
<path d="M0 0 C0.66 0.33 1.32 0.66 2 1 C-0.64 3.64 -3.28 6.28 -6 9 C-6.33 8.01 -6.66 7.02 -7 6 C-4.69 4.02 -2.38 2.04 0 0 Z " fill="#062445" transform="translate(86,103)"/>
<path d="M0 0 C0.99 0.33 1.98 0.66 3 1 C2.34 1 1.68 1 1 1 C1 1.66 1 2.32 1 3 C2.32 3.33 3.64 3.66 5 4 C5 4.66 5 5.32 5 6 C3.35 6 1.7 6 0 6 C-0.38218767 4.34385343 -0.71395102 2.67542976 -1 1 C-0.67 0.67 -0.34 0.34 0 0 Z " fill="#0D3280" transform="translate(138,62)"/>
<path d="M0 0 C0.66 0.33 1.32 0.66 2 1 C1.67 1.99 1.34 2.98 1 4 C1.99 4 2.98 4 4 4 C3.67 4.66 3.34 5.32 3 6 C-2.75 4.25 -2.75 4.25 -5 2 C-2.625 0.9375 -2.625 0.9375 0 0 Z " fill="#1A5590" transform="translate(63,65)"/>
<path d="M0 0 C0.66 0.33 1.32 0.66 2 1 C2 1.66 2 2.32 2 3 C-3.53846154 3.36923077 -3.53846154 3.36923077 -5.875 1.5 C-6.24625 1.005 -6.6175 0.51 -7 0 C-3.83299069 -1.05566977 -3.03571759 -0.97926374 0 0 Z " fill="#0230A0" transform="translate(132,54)"/>
<path d="M0 0 C1.65 0.99 3.3 1.98 5 3 C4.625 5.4375 4.625 5.4375 4 8 C3.01 8.495 3.01 8.495 2 9 C1.34 6.03 0.68 3.06 0 0 Z " fill="#295589" transform="translate(31,39)"/>
<path d="M0 0 C2.71824439 4.07736659 5.06640618 8.14531215 6 13 C2.42016341 9.65881918 0.10283266 7.26231859 -0.125 2.25 C-0.063125 1.13625 -0.063125 1.13625 0 0 Z " fill="#476692" transform="translate(26,79)"/>
<path d="M0 0 C0.66 0.99 1.32 1.98 2 3 C-1.13411302 5.08940868 -1.97450472 5.27364412 -5.5625 5.25 C-6.74005859 5.25773437 -6.74005859 5.25773437 -7.94140625 5.265625 C-10 5 -10 5 -12 3 C-11.07767578 3.05220703 -11.07767578 3.05220703 -10.13671875 3.10546875 C-8.92435547 3.14607422 -8.92435547 3.14607422 -7.6875 3.1875 C-6.88699219 3.22230469 -6.08648437 3.25710937 -5.26171875 3.29296875 C-2.52148416 2.93801608 -1.70828921 2.10633718 0 0 Z " fill="#0D317D" transform="translate(130,78)"/>
<path d="M0 0 C0.66 0 1.32 0 2 0 C2.25 6.625 2.25 6.625 0 10 C-1.125 3.375 -1.125 3.375 0 0 Z " fill="#1F5599" transform="translate(12,39)"/>
<path d="M0 0 C0 3.09875672 -0.58261252 5.24421515 -1.5 8.1875 C-1.7784375 9.08855469 -2.056875 9.98960938 -2.34375 10.91796875 C-2.66859375 11.94857422 -2.66859375 11.94857422 -3 13 C-3.33 13 -3.66 13 -4 13 C-4.45732667 7.28341664 -3.52273754 4.51350747 0 0 Z " fill="#2B527C" transform="translate(15,25)"/>
<path d="M0 0 C0.99 0.33 1.98 0.66 3 1 C3 1.99 3 2.98 3 4 C3.99 4.66 4.98 5.32 6 6 C5.67 6.99 5.34 7.98 5 9 C3.02 6.69 1.04 4.38 -1 2 C-0.67 1.34 -0.34 0.68 0 0 Z " fill="#082888" transform="translate(407,78)"/>
<path d="M0 0 C0.99 0.33 1.98 0.66 3 1 C2.67 3.31 2.34 5.62 2 8 C1.34 8 0.68 8 0 8 C0 5.36 0 2.72 0 0 Z " fill="#4C7AB4" transform="translate(26,71)"/>
<path d="M0 0 C0.33 0 0.66 0 1 0 C1 2.97 1 5.94 1 9 C-0.98 9 -2.96 9 -5 9 C-4.01 8.34 -3.02 7.68 -2 7 C-0.7811879 3.44327821 -0.7811879 3.44327821 0 0 Z " fill="#0A2D80" transform="translate(404,79)"/>
<path d="M0 0 C0.99 0.66 1.98 1.32 3 2 C2.01 3.32 1.02 4.64 0 6 C-0.33 5.34 -0.66 4.68 -1 4 C-2.98 4.33 -4.96 4.66 -7 5 C-7 4.34 -7 3.68 -7 3 C-3.6875 1.375 -3.6875 1.375 0 0 Z " fill="#082981" transform="translate(385,65)"/>
<path d="M0 0 C1.32 0.33 2.64 0.66 4 1 C3.67 2.98 3.34 4.96 3 7 C1.02 7 -0.96 7 -3 7 C-3 6.67 -3 6.34 -3 6 C-1.35 6 0.3 6 2 6 C1.34 4.02 0.68 2.04 0 0 Z " fill="#0D3070" transform="translate(153,61)"/>
<path d="M0 0 C1.65 0 3.3 0 5 0 C5 0.66 5 1.32 5 2 C2 4 2 4 -2 4 C-1.34 2.68 -0.68 1.36 0 0 Z " fill="#05309F" transform="translate(196,62)"/>
<path d="M0 0 C0.99 0.33 1.98 0.66 3 1 C1.515 3.475 1.515 3.475 0 6 C-1.32 5.67 -2.64 5.34 -4 5 C-3.67 4.01 -3.34 3.02 -3 2 C-2.01 1.67 -1.02 1.34 0 1 C0 0.67 0 0.34 0 0 Z " fill="#3067A3" transform="translate(54,61)"/>
<path d="M0 0 C0.78375 0.04125 1.5675 0.0825 2.375 0.125 C2.705 0.785 3.035 1.445 3.375 2.125 C1.065 2.455 -1.245 2.785 -3.625 3.125 C-3.625 4.775 -3.625 6.425 -3.625 8.125 C-3.955 8.125 -4.285 8.125 -4.625 8.125 C-4.75 5.25 -4.75 5.25 -4.625 2.125 C-2.625 0.125 -2.625 0.125 0 0 Z " fill="#0B2979" transform="translate(146.625,53.875)"/>
<path d="M0 0 C0.33 0.66 0.66 1.32 1 2 C2.98 2 4.96 2 7 2 C7 2.33 7 2.66 7 3 C3.37 3.33 -0.26 3.66 -4 4 C-3.67 3.01 -3.34 2.02 -3 1 C-2.01 0.67 -1.02 0.34 0 0 Z " fill="#205B9A" transform="translate(28,22)"/>
<path d="M0 0 C0.763125 0.309375 1.52625 0.61875 2.3125 0.9375 C4.18789677 1.67893593 6.08684652 2.36228217 8 3 C8 3.99 8 4.98 8 6 C4.74456771 5.65120368 3.98126893 4.97866739 1.75 2.4375 C1.1725 1.633125 0.595 0.82875 0 0 Z " fill="#255083" transform="translate(31,92)"/>
<path d="M0 0 C3.08089673 2.77280706 4.68775452 5.06326356 6 9 C5.34 9 4.68 9 4 9 C2.7109375 7.25 2.7109375 7.25 1.375 5 C0.92898437 4.2575 0.48296875 3.515 0.0234375 2.75 C-0.31429688 2.1725 -0.65203125 1.595 -1 1 C-0.67 0.67 -0.34 0.34 0 0 Z " fill="#1B3656" transform="translate(22,92)"/>
<path d="M0 0 C0.99 0.495 0.99 0.495 2 1 C2 1.66 2 2.32 2 3 C2.66 3 3.32 3 4 3 C4 4.98 4 6.96 4 9 C3.34 9 2.68 9 2 9 C0.50178941 5.62902617 0 3.79557881 0 0 Z " fill="#0D2D7D" transform="translate(157,78)"/>
<path d="M0 0 C0.33 0 0.66 0 1 0 C1.05399736 1.45792884 1.09279177 2.91642712 1.125 4.375 C1.14820313 5.18710938 1.17140625 5.99921875 1.1953125 6.8359375 C1 9 1 9 -1 11 C-2.0257259 6.58937864 -2.03684712 4.07369424 0 0 Z " fill="#011A6D" transform="translate(149,71)"/>
<path d="M0 0 C3.91402949 1.26941497 5.79072873 2.51167694 8 6 C6.68 6.33 5.36 6.66 4 7 C1.125 2.25 1.125 2.25 0 0 Z " fill="#113457" transform="translate(28,102)"/>
<path d="M0 0 C0.66 0 1.32 0 2 0 C5.10096154 5.45769231 5.10096154 5.45769231 4.58984375 8.203125 C4.39519531 8.79609375 4.20054688 9.3890625 4 10 C3.32845067 8.71086513 2.66291141 7.41859796 2 6.125 C1.62875 5.40570313 1.2575 4.68640625 0.875 3.9453125 C0 2 0 2 0 0 Z " fill="#0C3458" transform="translate(53,84)"/>
<path d="M0 0 C1.32 0.33 2.64 0.66 4 1 C3.39816251 3.02045442 2.72693904 5.02111039 2 7 C1.01 7.495 1.01 7.495 0 8 C0 5.36 0 2.72 0 0 Z " fill="#052E92" transform="translate(249,75)"/>
<path d="M0 0 C0.66 0.33 1.32 0.66 2 1 C2 2.32 2 3.64 2 5 C0.68 5 -0.64 5 -2 5 C-2 3.68 -2 2.36 -2 1 C-1.34 0.67 -0.68 0.34 0 0 Z " fill="#042B5A" transform="translate(36,107)"/>
<path d="M0 0 C0 1.32 0 2.64 0 4 C-1.65 4.33 -3.3 4.66 -5 5 C-5 4.01 -5 3.02 -5 2 C-2 0 -2 0 0 0 Z " fill="#173662" transform="translate(76,99)"/>
<path d="M0 0 C0.99 0.33 1.98 0.66 3 1 C3 1.99 3 2.98 3 4 C0.69 4 -1.62 4 -4 4 C-4 3.01 -4 2.02 -4 1 C-2.02 1.495 -2.02 1.495 0 2 C0 1.34 0 0.68 0 0 Z " fill="#012D96" transform="translate(165,83)"/>
<path d="M0 0 C2.31 0.66 4.62 1.32 7 2 C6.67 2.66 6.34 3.32 6 4 C3.4375 4.625 3.4375 4.625 1 5 C0.67 3.35 0.34 1.7 0 0 Z " fill="#1B3656" transform="translate(59,76)"/>
<path d="M0 0 C3.68754757 0.49831724 5.60490662 1.10067643 8 4 C5.69 3.67 3.38 3.34 1 3 C0.67 2.01 0.34 1.02 0 0 Z " fill="#195692" transform="translate(67,38)"/>
<path d="" fill="#000000" transform="translate(0,0)"/>
<path d="" fill="#000000" transform="translate(0,0)"/>
</svg>
