<?xml version="1.0" standalone="no"?>
<!DOCTYPE svg PUBLIC "-//W3C//DTD SVG 20010904//EN"
 "http://www.w3.org/TR/2001/REC-SVG-20010904/DTD/svg10.dtd">
<svg version="1.0" xmlns="http://www.w3.org/2000/svg"
 width="300.000000pt" height="151.000000pt" viewBox="0 0 300.000000 151.000000"
 preserveAspectRatio="xMidYMid meet">
<metadata>
Created by potrace 1.10, written by Peter Selinger 2001-2011
</metadata>
<g transform="translate(0.000000,151.000000) scale(0.100000,-0.100000)"
fill="#000000" stroke="none">
<path d="M890 1125 c-21 -21 -30 -41 -30 -63 0 -31 2 -32 40 -32 38 0 40 2 40
30 l0 31 72 -3 c40 -2 73 -8 75 -14 2 -6 -48 -53 -111 -105 -101 -83 -115 -98
-115 -126 l-1 -32 155 -3 155 -3 0 38 0 38 -87 -2 c-49 -1 -86 2 -84 7 2 5 16
18 31 29 14 11 54 44 88 74 73 63 79 91 32 136 -28 27 -34 28 -130 29 -100 1
-101 1 -130 -29z m80 -239 c0 -2 3 -11 6 -20 5 -12 0 -16 -18 -16 -31 0 -41
10 -27 27 11 12 39 19 39 9z"/>
<path d="M1554 1151 c-2 -2 -4 -21 -4 -42 0 -59 -18 -69 -119 -69 -54 0 -91 4
-99 12 -7 7 -12 32 -12 55 l0 44 -57 -3 -58 -3 1 -54 c2 -55 13 -72 43 -64 9
2 29 0 44 -6 21 -8 27 -17 27 -40 0 -36 -22 -51 -75 -51 l-36 0 3 -57 3 -58
53 -3 52 -3 0 43 c0 24 5 49 12 56 8 8 46 12 105 12 104 0 113 -6 113 -75 l0
-36 58 3 57 3 3 58 3 57 -41 0 c-57 0 -80 14 -80 50 0 37 12 44 85 50 l60 5 3
49 c2 27 -1 53 -6 58 -10 10 -130 17 -138 9z m104 -59 c2 -18 -1 -32 -7 -32
-6 0 -11 8 -11 17 0 14 -4 13 -23 -5 -31 -29 -44 -16 -15 15 19 20 19 23 4 23
-9 0 -14 5 -11 10 4 6 19 9 33 7 22 -3 28 -9 30 -35z m-152 -103 c12 -20 -19
-30 -78 -26 -61 3 -74 9 -63 26 8 15 132 14 141 0z"/>
<path d="M1728 1138 c5 -21 6 -21 13 -2 7 16 8 17 8 2 1 -25 41 -24 41 0 0 13
-9 19 -34 20 -31 2 -34 0 -28 -20z"/>
<path d="M534 1125 c-9 -14 -14 -29 -10 -33 4 -3 56 -5 117 -3 103 3 109 2
109 -17 0 -12 -29 -47 -75 -89 l-75 -68 0 -52 0 -53 45 0 45 0 0 43 c0 40 5
47 75 117 83 83 89 101 49 149 l-26 31 -119 0 c-116 0 -119 -1 -135 -25z"/>
<path d="M550 707 c-56 -28 -24 -67 56 -67 24 0 34 -4 32 -12 -6 -17 -47 -23
-61 -9 -14 14 -57 15 -57 1 0 -31 126 -43 154 -14 32 31 13 53 -52 61 -29 3
-52 10 -52 16 0 6 22 7 56 2 44 -5 55 -4 52 6 -9 27 -88 36 -128 16z"/>
<path d="M955 673 c-9 -24 -20 -43 -24 -43 -4 0 -14 18 -21 40 l-13 40 -99 0
-98 0 0 -60 0 -60 70 0 c56 0 70 3 70 15 0 11 -12 15 -50 15 -27 0 -50 5 -50
10 0 6 20 10 45 10 34 0 45 4 45 16 0 12 -9 15 -42 13 -24 -2 -43 1 -45 8 -3
7 16 12 51 15 l54 3 26 -52 c24 -48 29 -53 60 -53 32 0 35 4 56 55 12 30 27
55 32 55 7 0 8 -20 3 -55 l-6 -55 70 0 c56 0 71 3 71 15 0 11 -12 15 -45 15
-25 0 -45 5 -45 10 0 6 20 10 45 10 35 0 45 4 45 16 0 14 -8 16 -45 12 -34 -4
-45 -2 -45 8 0 10 13 14 45 14 29 0 45 4 45 13 0 9 -26 12 -95 12 l-94 0 -16
-42z"/>
<path d="M1305 712 c-3 -3 -2 -22 1 -41 l6 -36 -39 38 c-25 24 -48 37 -66 37
-26 0 -27 -1 -27 -60 0 -53 2 -60 20 -60 16 0 20 7 20 35 0 19 3 35 8 35 4 0
20 -16 35 -35 21 -26 36 -35 57 -35 30 0 30 0 30 59 0 50 -3 59 -19 64 -11 3
-22 2 -26 -1z"/>
<path d="M1656 713 c-11 -3 -27 -15 -36 -26 l-17 -21 -12 22 c-11 21 -19 22
-121 22 -91 0 -110 -3 -110 -15 0 -9 9 -15 25 -15 23 0 25 -4 25 -45 0 -41 2
-45 25 -45 23 0 25 4 25 45 0 41 2 45 24 45 13 0 27 6 29 13 8 19 67 -49 67
-78 0 -20 5 -25 25 -25 20 0 25 5 25 24 0 13 13 39 30 57 29 34 37 50 23 48
-5 -1 -17 -4 -27 -6z"/>
<path d="M524 561 c-14 -15 0 -31 26 -31 29 0 30 -2 30 -45 0 -42 2 -45 26
-45 25 0 26 1 20 45 -7 45 -7 45 23 45 16 0 31 5 33 11 2 7 12 -14 23 -45 18
-52 21 -56 51 -56 28 0 32 4 38 35 4 19 11 35 16 35 5 0 12 -16 16 -35 6 -32
9 -35 40 -35 26 0 34 4 34 18 0 9 9 36 20 60 l19 42 -24 0 c-18 0 -26 -8 -35
-35 -13 -40 -25 -39 -33 5 -6 25 -11 30 -36 30 -25 0 -30 -5 -36 -32 -12 -53
-19 -56 -31 -13 l-11 40 -102 5 c-57 3 -105 3 -107 1z"/>
<path d="M974 560 c-25 -10 -29 -15 -38 -52 -10 -43 21 -68 87 -68 64 0 97 20
97 58 0 38 -11 51 -51 62 -40 12 -66 12 -95 0z m94 -54 c4 -21 -13 -36 -44
-36 -27 0 -48 24 -40 45 9 24 80 16 84 -9z"/>
<path d="M1140 546 c0 -8 6 -17 13 -20 10 -5 10 -7 0 -12 -16 -7 -17 -34 -3
-34 6 0 13 7 16 15 8 20 34 19 49 -2 7 -9 17 -13 23 -9 17 10 15 26 -3 26 -8
0 -15 5 -15 10 0 6 7 10 15 10 8 0 15 7 15 15 0 17 -25 20 -35 5 -3 -5 -15
-10 -26 -10 -10 0 -19 5 -19 10 0 6 -7 10 -15 10 -8 0 -15 -6 -15 -14z"/>
<path d="M1270 453 c0 -9 33 -12 125 -12 69 0 125 5 125 10 0 5 -28 9 -62 10
-35 0 -91 1 -126 2 -43 1 -62 -2 -62 -10z"/>
<path d="M1530 454 c0 -14 167 -17 175 -3 4 5 -21 9 -57 10 -35 0 -75 2 -90 3
-16 1 -28 -3 -28 -10z"/>
</g>
</svg>
